<?xml version="1.0" encoding="UTF-8" standalone="no"?>
<!DOCTYPE svg PUBLIC "-//W3C//DTD SVG 1.1//EN"
 "http://www.w3.org/Graphics/SVG/1.1/DTD/svg11.dtd">
<!-- Generated by graphviz version 2.43.0 (0)
 -->
<!-- Title: pixelate&#45;videos generic workflow (v0.8+) Pages: 1 -->
<svg width="681pt" height="1376pt"
 viewBox="0.00 0.00 680.50 1376.37" xmlns="http://www.w3.org/2000/svg" xmlns:xlink="http://www.w3.org/1999/xlink">
<g id="graph0" class="graph" transform="scale(1 1) rotate(0) translate(4 1372.37)">
<title>pixelate&#45;videos generic workflow (v0.8+)</title>
<polygon fill="white" stroke="transparent" points="-4,4 -4,-1372.37 676.5,-1372.37 676.5,4 -4,4"/>
<!-- load_video -->
<g id="node1" class="node">
<title>load_video</title>
<polygon fill="none" stroke="black" points="496.5,-1278.73 402.5,-1278.73 402.5,-1242.73 496.5,-1242.73 496.5,-1278.73"/>
<text text-anchor="middle" x="449.5" y="-1257.03" font-family="Times,serif" font-size="14.00">Load video</text>
</g>
<!-- preprocess_video -->
<g id="node2" class="node">
<title>preprocess_video</title>
<ellipse fill="none" stroke="black" cx="449.5" cy="-1078.06" rx="111.03" ry="111.03"/>
<polyline fill="none" stroke="black" points="522.93,-1161.32 376.07,-1161.32 "/>
<polyline fill="none" stroke="black" points="522.93,-994.8 376.07,-994.8 "/>
<text text-anchor="middle" x="449.5" y="-1104.36" font-family="Times,serif" font-size="14.00">Preprocess video:</text>
<text text-anchor="middle" x="449.5" y="-1089.36" font-family="Times,serif" font-size="14.00">de&#45;shake if possible</text>
<text text-anchor="middle" x="449.5" y="-1074.36" font-family="Times,serif" font-size="14.00">and requested,</text>
<text text-anchor="middle" x="449.5" y="-1059.36" font-family="Times,serif" font-size="14.00">cut if requested,</text>
<text text-anchor="middle" x="449.5" y="-1044.36" font-family="Times,serif" font-size="14.00">split into frames</text>
</g>
<!-- load_video&#45;&gt;preprocess_video -->
<g id="edge2" class="edge">
<title>load_video&#45;&gt;preprocess_video</title>
<path fill="none" stroke="black" d="M449.5,-1242.4C449.5,-1231.4 449.5,-1216.09 449.5,-1199.21"/>
<polygon fill="black" stroke="black" points="453,-1199.11 449.5,-1189.11 446,-1199.11 453,-1199.11"/>
</g>
<!-- new_pixelation -->
<!-- preprocess_video&#45;&gt;new_pixelation -->
<g id="edge5" class="edge">
<title>preprocess_video&#45;&gt;new_pixelation</title>
<path fill="none" stroke="black" d="M449.5,-966.75C449.5,-949.51 449.5,-934.17 449.5,-924.35"/>
<polygon fill="black" stroke="black" points="453,-924.14 449.5,-914.14 446,-924.14 453,-924.14"/>
</g>
<!-- out_original_frames -->
<g id="node13" class="node">
<title>out_original_frames</title>
<path fill="none" stroke="black" d="M670.5,-1099.54C670.5,-1102.17 653.92,-1104.31 633.5,-1104.31 613.08,-1104.31 596.5,-1102.17 596.5,-1099.54 596.5,-1099.54 596.5,-1056.58 596.5,-1056.58 596.5,-1053.95 613.08,-1051.81 633.5,-1051.81 653.92,-1051.81 670.5,-1053.95 670.5,-1056.58 670.5,-1056.58 670.5,-1099.54 670.5,-1099.54"/>
<path fill="none" stroke="black" d="M670.5,-1099.54C670.5,-1096.91 653.92,-1094.77 633.5,-1094.77 613.08,-1094.77 596.5,-1096.91 596.5,-1099.54"/>
<text text-anchor="middle" x="633.5" y="-1081.86" font-family="Times,serif" font-size="14.00">Original</text>
<text text-anchor="middle" x="633.5" y="-1066.86" font-family="Times,serif" font-size="14.00">frames</text>
</g>
<!-- preprocess_video&#45;&gt;out_original_frames -->
<g id="edge4" class="edge">
<title>preprocess_video&#45;&gt;out_original_frames</title>
<path fill="none" stroke="black" d="M560.55,-1078.06C569.15,-1078.06 577.75,-1078.06 586.35,-1078.06"/>
<polygon fill="black" stroke="black" points="586.45,-1081.56 596.45,-1078.06 586.45,-1074.56 586.45,-1081.56"/>
</g>
<!-- start_position -->
<g id="node4" class="node">
<title>start_position</title>
<polygon fill="none" stroke="black" points="517.5,-857.05 381.5,-857.05 381.5,-804.05 517.5,-804.05 517.5,-857.05"/>
<text text-anchor="middle" x="449.5" y="-841.85" font-family="Times,serif" font-size="14.00">Select pixelation</text>
<text text-anchor="middle" x="449.5" y="-826.85" font-family="Times,serif" font-size="14.00">start frame</text>
<text text-anchor="middle" x="449.5" y="-811.85" font-family="Times,serif" font-size="14.00">and position</text>
</g>
<!-- new_pixelation&#45;&gt;start_position -->
<g id="edge7" class="edge">
<title>new_pixelation&#45;&gt;start_position</title>
<path fill="none" stroke="black" d="M449.5,-910.15C449.5,-905.78 449.5,-886.06 449.5,-867.47"/>
<polygon fill="black" stroke="black" points="453,-867.36 449.5,-857.36 446,-867.36 453,-867.36"/>
</g>
<!-- end_position -->
<g id="node5" class="node">
<title>end_position</title>
<polygon fill="none" stroke="black" points="517.5,-767.05 381.5,-767.05 381.5,-714.05 517.5,-714.05 517.5,-767.05"/>
<text text-anchor="middle" x="449.5" y="-751.85" font-family="Times,serif" font-size="14.00">Select pixelation</text>
<text text-anchor="middle" x="449.5" y="-736.85" font-family="Times,serif" font-size="14.00">end frame</text>
<text text-anchor="middle" x="449.5" y="-721.85" font-family="Times,serif" font-size="14.00">and position</text>
</g>
<!-- start_position&#45;&gt;end_position -->
<g id="edge10" class="edge">
<title>start_position&#45;&gt;end_position</title>
<path fill="none" stroke="black" d="M449.5,-803.62C449.5,-795.38 449.5,-786.13 449.5,-777.32"/>
<polygon fill="black" stroke="black" points="453,-777.29 449.5,-767.29 446,-777.29 453,-777.29"/>
</g>
<!-- out_start_position -->
<g id="node15" class="node">
<title>out_start_position</title>
<polygon fill="none" stroke="black" points="662,-857.05 553,-857.05 553,-804.05 668,-804.05 668,-851.05 662,-857.05"/>
<polyline fill="none" stroke="black" points="662,-857.05 662,-851.05 "/>
<polyline fill="none" stroke="black" points="668,-851.05 662,-851.05 "/>
<text text-anchor="middle" x="610.5" y="-841.85" font-family="Times,serif" font-size="14.00">Start frame</text>
<text text-anchor="middle" x="610.5" y="-826.85" font-family="Times,serif" font-size="14.00">Start position</text>
<text text-anchor="middle" x="610.5" y="-811.85" font-family="Times,serif" font-size="14.00">Crop area</text>
</g>
<!-- start_position&#45;&gt;out_start_position -->
<g id="edge9" class="edge">
<title>start_position&#45;&gt;out_start_position</title>
<path fill="none" stroke="black" d="M517.74,-830.55C526.07,-830.55 534.4,-830.55 542.72,-830.55"/>
<polygon fill="black" stroke="black" points="542.89,-834.05 552.89,-830.55 542.89,-827.05 542.89,-834.05"/>
</g>
<!-- apply_pixelation -->
<g id="node6" class="node">
<title>apply_pixelation</title>
<polygon fill="none" stroke="black" points="557.14,-677.05 385.91,-677.05 341.86,-601.05 513.09,-601.05 557.14,-677.05"/>
<text text-anchor="middle" x="449.5" y="-642.85" font-family="Times,serif" font-size="14.00">Pixelate</text>
<text text-anchor="middle" x="449.5" y="-627.85" font-family="Times,serif" font-size="14.00">frame range</text>
</g>
<!-- end_position&#45;&gt;apply_pixelation -->
<g id="edge14" class="edge">
<title>end_position&#45;&gt;apply_pixelation</title>
<path fill="none" stroke="black" d="M449.5,-713.92C449.5,-705.81 449.5,-696.56 449.5,-687.42"/>
<polygon fill="black" stroke="black" points="453,-687.21 449.5,-677.21 446,-687.21 453,-687.21"/>
</g>
<!-- out_end_position -->
<g id="node16" class="node">
<title>out_end_position</title>
<polygon fill="none" stroke="black" points="654,-767.05 553,-767.05 553,-714.05 660,-714.05 660,-761.05 654,-767.05"/>
<polyline fill="none" stroke="black" points="654,-767.05 654,-761.05 "/>
<polyline fill="none" stroke="black" points="660,-761.05 654,-761.05 "/>
<text text-anchor="middle" x="606.5" y="-751.85" font-family="Times,serif" font-size="14.00">End frame</text>
<text text-anchor="middle" x="606.5" y="-736.85" font-family="Times,serif" font-size="14.00">End position</text>
<text text-anchor="middle" x="606.5" y="-721.85" font-family="Times,serif" font-size="14.00">Crop area</text>
</g>
<!-- end_position&#45;&gt;out_end_position -->
<g id="edge13" class="edge">
<title>end_position&#45;&gt;out_end_position</title>
<path fill="none" stroke="black" d="M517.57,-740.55C525.89,-740.55 534.2,-740.55 542.52,-740.55"/>
<polygon fill="black" stroke="black" points="542.66,-744.05 552.66,-740.55 542.66,-737.05 542.66,-744.05"/>
</g>
<!-- show_preview -->
<g id="node7" class="node">
<title>show_preview</title>
<polygon fill="none" stroke="black" points="508,-546.61 391,-546.61 391,-508.61 508,-508.61 508,-546.61"/>
<text text-anchor="middle" x="449.5" y="-531.41" font-family="Times,serif" font-size="14.00">Show preview</text>
<text text-anchor="middle" x="449.5" y="-516.41" font-family="Times,serif" font-size="14.00">as a flip book</text>
</g>
<!-- apply_pixelation&#45;&gt;show_preview -->
<g id="edge18" class="edge">
<title>apply_pixelation&#45;&gt;show_preview</title>
<path fill="none" stroke="black" d="M449.5,-601C449.5,-586.61 449.5,-570.4 449.5,-556.97"/>
<polygon fill="black" stroke="black" points="453,-556.89 449.5,-546.89 446,-556.89 453,-556.89"/>
</g>
<!-- out_modified_frames -->
<g id="node21" class="node">
<title>out_modified_frames</title>
<path fill="none" stroke="black" d="M672.5,-660.52C672.5,-663.16 654.57,-665.3 632.5,-665.3 610.43,-665.3 592.5,-663.16 592.5,-660.52 592.5,-660.52 592.5,-617.57 592.5,-617.57 592.5,-614.94 610.43,-612.8 632.5,-612.8 654.57,-612.8 672.5,-614.94 672.5,-617.57 672.5,-617.57 672.5,-660.52 672.5,-660.52"/>
<path fill="none" stroke="black" d="M672.5,-660.52C672.5,-657.89 654.57,-655.75 632.5,-655.75 610.43,-655.75 592.5,-657.89 592.5,-660.52"/>
<text text-anchor="middle" x="632.5" y="-642.85" font-family="Times,serif" font-size="14.00">Modified</text>
<text text-anchor="middle" x="632.5" y="-627.85" font-family="Times,serif" font-size="14.00">frames</text>
</g>
<!-- apply_pixelation&#45;&gt;out_modified_frames -->
<g id="edge17" class="edge">
<title>apply_pixelation&#45;&gt;out_modified_frames</title>
<path fill="none" stroke="black" d="M535.28,-639.05C550.86,-639.05 566.43,-639.05 582.01,-639.05"/>
<polygon fill="black" stroke="black" points="582.25,-642.55 592.25,-639.05 582.25,-635.55 582.25,-642.55"/>
</g>
<!-- add_pixelation -->
<g id="node8" class="node">
<title>add_pixelation</title>
<polygon fill="none" stroke="black" points="449.5,-454.17 345.5,-416.17 449.5,-378.17 553.5,-416.17 449.5,-454.17"/>
<text text-anchor="middle" x="449.5" y="-419.97" font-family="Times,serif" font-size="14.00">Add another</text>
<text text-anchor="middle" x="449.5" y="-404.97" font-family="Times,serif" font-size="14.00">pixelation?</text>
</g>
<!-- show_preview&#45;&gt;add_pixelation -->
<g id="edge21" class="edge">
<title>show_preview&#45;&gt;add_pixelation</title>
<path fill="none" stroke="black" d="M449.5,-508.54C449.5,-496.49 449.5,-480.04 449.5,-464.43"/>
<polygon fill="black" stroke="black" points="453,-464.34 449.5,-454.34 446,-464.34 453,-464.34"/>
</g>
<!-- out_crop_area -->
<g id="node23" class="node">
<title>out_crop_area</title>
<polygon fill="none" stroke="black" points="625,-545.61 544,-545.61 544,-509.61 631,-509.61 631,-539.61 625,-545.61"/>
<polyline fill="none" stroke="black" points="625,-545.61 625,-539.61 "/>
<polyline fill="none" stroke="black" points="631,-539.61 625,-539.61 "/>
<text text-anchor="middle" x="587.5" y="-523.91" font-family="Times,serif" font-size="14.00">Crop area</text>
</g>
<!-- show_preview&#45;&gt;out_crop_area -->
<g id="edge20" class="edge">
<title>show_preview&#45;&gt;out_crop_area</title>
<path fill="none" stroke="black" d="M508.26,-527.61C516.79,-527.61 525.31,-527.61 533.84,-527.61"/>
<polygon fill="black" stroke="black" points="533.85,-531.11 543.85,-527.61 533.85,-524.11 533.85,-531.11"/>
</g>
<!-- set_save_params -->
<g id="node9" class="node">
<title>set_save_params</title>
<polygon fill="none" stroke="black" points="499,-327.17 400,-327.17 400,-289.17 499,-289.17 499,-327.17"/>
<text text-anchor="middle" x="449.5" y="-311.97" font-family="Times,serif" font-size="14.00">Set save</text>
<text text-anchor="middle" x="449.5" y="-296.97" font-family="Times,serif" font-size="14.00">parameters</text>
</g>
<!-- add_pixelation&#45;&gt;set_save_params -->
<g id="edge23" class="edge">
<title>add_pixelation&#45;&gt;set_save_params</title>
<path fill="none" stroke="black" d="M449.5,-378.1C449.5,-364.8 449.5,-350.03 449.5,-337.58"/>
<polygon fill="black" stroke="black" points="453,-337.33 449.5,-327.33 446,-337.33 453,-337.33"/>
<text text-anchor="middle" x="458.5" y="-348.97" font-family="Times,serif" font-size="14.00">no</text>
</g>
<!-- additional_pixelation_2 -->
<g id="node31" class="node">
<title>additional_pixelation_2</title>
<ellipse fill="none" stroke="black" cx="614.5" cy="-416.17" rx="18" ry="18"/>
<text text-anchor="middle" x="614.5" y="-412.47" font-family="Times,serif" font-size="14.00">B</text>
</g>
<!-- add_pixelation&#45;&gt;additional_pixelation_2 -->
<g id="edge22" class="edge">
<title>add_pixelation&#45;&gt;additional_pixelation_2</title>
<path fill="none" stroke="black" d="M553.53,-416.17C565.37,-416.17 576.57,-416.17 586.07,-416.17"/>
<polygon fill="black" stroke="black" points="586.37,-419.67 596.37,-416.17 586.37,-412.67 586.37,-419.67"/>
<text text-anchor="middle" x="575" y="-422.97" font-family="Times,serif" font-size="14.00">yes</text>
</g>
<!-- save_video -->
<g id="node10" class="node">
<title>save_video</title>
<polygon fill="none" stroke="black" points="571.45,-233.73 377.45,-233.73 327.55,-197.73 521.55,-197.73 571.45,-233.73"/>
<text text-anchor="middle" x="449.5" y="-212.03" font-family="Times,serif" font-size="14.00">Assemble video</text>
</g>
<!-- set_save_params&#45;&gt;save_video -->
<g id="edge25" class="edge">
<title>set_save_params&#45;&gt;save_video</title>
<path fill="none" stroke="black" d="M449.5,-288.87C449.5,-276.04 449.5,-258.66 449.5,-244.17"/>
<polygon fill="black" stroke="black" points="453,-243.78 449.5,-233.78 446,-243.78 453,-243.78"/>
</g>
<!-- quit -->
<g id="node11" class="node">
<title>quit</title>
<polygon fill="none" stroke="black" points="476.5,-125.65 422.5,-125.65 422.5,-89.65 476.5,-89.65 476.5,-125.65"/>
<text text-anchor="middle" x="449.5" y="-103.95" font-family="Times,serif" font-size="14.00">Quit</text>
</g>
<!-- save_video&#45;&gt;quit -->
<g id="edge29" class="edge">
<title>save_video&#45;&gt;quit</title>
<path fill="none" stroke="black" d="M449.5,-197.69C449.5,-180.99 449.5,-155.26 449.5,-135.75"/>
<polygon fill="black" stroke="black" points="453,-135.65 449.5,-125.65 446,-135.65 453,-135.65"/>
</g>
<!-- out_result_video -->
<g id="node27" class="node">
<title>out_result_video</title>
<path fill="none" stroke="black" d="M668.5,-237.21C668.5,-239.85 654.61,-241.98 637.5,-241.98 620.39,-241.98 606.5,-239.85 606.5,-237.21 606.5,-237.21 606.5,-194.26 606.5,-194.26 606.5,-191.62 620.39,-189.48 637.5,-189.48 654.61,-189.48 668.5,-191.62 668.5,-194.26 668.5,-194.26 668.5,-237.21 668.5,-237.21"/>
<path fill="none" stroke="black" d="M668.5,-237.21C668.5,-234.58 654.61,-232.44 637.5,-232.44 620.39,-232.44 606.5,-234.58 606.5,-237.21"/>
<text text-anchor="middle" x="637.5" y="-219.53" font-family="Times,serif" font-size="14.00">Result</text>
<text text-anchor="middle" x="637.5" y="-204.53" font-family="Times,serif" font-size="14.00">video</text>
</g>
<!-- save_video&#45;&gt;out_result_video -->
<g id="edge28" class="edge">
<title>save_video&#45;&gt;out_result_video</title>
<path fill="none" stroke="black" d="M546.8,-215.73C563.23,-215.73 579.66,-215.73 596.09,-215.73"/>
<polygon fill="black" stroke="black" points="596.32,-219.23 606.32,-215.73 596.32,-212.23 596.32,-219.23"/>
</g>
<!-- Finish -->
<g id="node33" class="node">
<title>Finish</title>
<ellipse fill="none" stroke="black" cx="449.5" cy="-18" rx="39.79" ry="18"/>
<text text-anchor="middle" x="449.5" y="-14.3" font-family="Times,serif" font-size="14.00">Finish</text>
</g>
<!-- quit&#45;&gt;Finish -->
<g id="edge32" class="edge">
<title>quit&#45;&gt;Finish</title>
<path fill="none" stroke="black" d="M449.5,-89.33C449.5,-77.09 449.5,-60.42 449.5,-46.38"/>
<polygon fill="black" stroke="black" points="453,-46.28 449.5,-36.28 446,-46.28 453,-46.28"/>
</g>
<!-- in_original_video -->
<g id="node12" class="node">
<title>in_original_video</title>
<path fill="none" stroke="black" d="M302.5,-1099.54C302.5,-1102.17 285.92,-1104.31 265.5,-1104.31 245.08,-1104.31 228.5,-1102.17 228.5,-1099.54 228.5,-1099.54 228.5,-1056.58 228.5,-1056.58 228.5,-1053.95 245.08,-1051.81 265.5,-1051.81 285.92,-1051.81 302.5,-1053.95 302.5,-1056.58 302.5,-1056.58 302.5,-1099.54 302.5,-1099.54"/>
<path fill="none" stroke="black" d="M302.5,-1099.54C302.5,-1096.91 285.92,-1094.77 265.5,-1094.77 245.08,-1094.77 228.5,-1096.91 228.5,-1099.54"/>
<text text-anchor="middle" x="265.5" y="-1081.86" font-family="Times,serif" font-size="14.00">Original</text>
<text text-anchor="middle" x="265.5" y="-1066.86" font-family="Times,serif" font-size="14.00">video</text>
</g>
<!-- in_original_video&#45;&gt;preprocess_video -->
<g id="edge3" class="edge">
<title>in_original_video&#45;&gt;preprocess_video</title>
<path fill="none" stroke="black" d="M302.52,-1078.06C311.11,-1078.06 319.71,-1078.06 328.31,-1078.06"/>
<polygon fill="black" stroke="black" points="328.4,-1081.56 338.4,-1078.06 328.4,-1074.56 328.4,-1081.56"/>
</g>
<!-- in_start_frame -->
<g id="node14" class="node">
<title>in_start_frame</title>
<polygon fill="none" stroke="black" points="339.5,-758.55 245.5,-758.55 245.5,-722.55 345.5,-722.55 345.5,-752.55 339.5,-758.55"/>
<polyline fill="none" stroke="black" points="339.5,-758.55 339.5,-752.55 "/>
<polyline fill="none" stroke="black" points="345.5,-752.55 339.5,-752.55 "/>
<text text-anchor="middle" x="295.5" y="-736.85" font-family="Times,serif" font-size="14.00">Start frame</text>
</g>
<!-- in_start_frame&#45;&gt;end_position -->
<g id="edge12" class="edge">
<title>in_start_frame&#45;&gt;end_position</title>
<path fill="none" stroke="black" d="M345.73,-740.55C354.28,-740.55 362.82,-740.55 371.37,-740.55"/>
<polygon fill="black" stroke="black" points="371.4,-744.05 381.4,-740.55 371.4,-737.05 371.4,-744.05"/>
</g>
<!-- in_frames_and_positions -->
<g id="node17" class="node">
<title>in_frames_and_positions</title>
<polygon fill="none" stroke="black" points="300,-673.05 191,-673.05 191,-605.05 306,-605.05 306,-667.05 300,-673.05"/>
<polyline fill="none" stroke="black" points="300,-673.05 300,-667.05 "/>
<polyline fill="none" stroke="black" points="306,-667.05 300,-667.05 "/>
<text text-anchor="middle" x="248.5" y="-657.85" font-family="Times,serif" font-size="14.00">Start frame</text>
<text text-anchor="middle" x="248.5" y="-642.85" font-family="Times,serif" font-size="14.00">Start position</text>
<text text-anchor="middle" x="248.5" y="-627.85" font-family="Times,serif" font-size="14.00">End frame</text>
<text text-anchor="middle" x="248.5" y="-612.85" font-family="Times,serif" font-size="14.00">End position</text>
</g>
<!-- in_frames_and_positions&#45;&gt;apply_pixelation -->
<g id="edge16" class="edge">
<title>in_frames_and_positions&#45;&gt;apply_pixelation</title>
<path fill="none" stroke="black" d="M306.21,-639.05C321.97,-639.05 337.74,-639.05 353.5,-639.05"/>
<polygon fill="black" stroke="black" points="353.86,-642.55 363.86,-639.05 353.86,-635.55 353.86,-642.55"/>
</g>
<!-- in_original_frames_1 -->
<g id="node18" class="node">
<title>in_original_frames_1</title>
<path fill="none" stroke="black" d="M345.5,-852.02C345.5,-854.66 328.92,-856.8 308.5,-856.8 288.08,-856.8 271.5,-854.66 271.5,-852.02 271.5,-852.02 271.5,-809.07 271.5,-809.07 271.5,-806.44 288.08,-804.3 308.5,-804.3 328.92,-804.3 345.5,-806.44 345.5,-809.07 345.5,-809.07 345.5,-852.02 345.5,-852.02"/>
<path fill="none" stroke="black" d="M345.5,-852.02C345.5,-849.39 328.92,-847.25 308.5,-847.25 288.08,-847.25 271.5,-849.39 271.5,-852.02"/>
<text text-anchor="middle" x="308.5" y="-834.35" font-family="Times,serif" font-size="14.00">Original</text>
<text text-anchor="middle" x="308.5" y="-819.35" font-family="Times,serif" font-size="14.00">frames</text>
</g>
<!-- in_original_frames_1&#45;&gt;start_position -->
<g id="edge8" class="edge">
<title>in_original_frames_1&#45;&gt;start_position</title>
<path fill="none" stroke="black" d="M345.68,-830.55C354.23,-830.55 362.78,-830.55 371.33,-830.55"/>
<polygon fill="black" stroke="black" points="371.37,-834.05 381.37,-830.55 371.37,-827.05 371.37,-834.05"/>
</g>
<!-- in_original_frames_2 -->
<g id="node19" class="node">
<title>in_original_frames_2</title>
<path fill="none" stroke="black" d="M209.5,-762.02C209.5,-764.66 192.92,-766.8 172.5,-766.8 152.08,-766.8 135.5,-764.66 135.5,-762.02 135.5,-762.02 135.5,-719.07 135.5,-719.07 135.5,-716.44 152.08,-714.3 172.5,-714.3 192.92,-714.3 209.5,-716.44 209.5,-719.07 209.5,-719.07 209.5,-762.02 209.5,-762.02"/>
<path fill="none" stroke="black" d="M209.5,-762.02C209.5,-759.39 192.92,-757.25 172.5,-757.25 152.08,-757.25 135.5,-759.39 135.5,-762.02"/>
<text text-anchor="middle" x="172.5" y="-744.35" font-family="Times,serif" font-size="14.00">Original</text>
<text text-anchor="middle" x="172.5" y="-729.35" font-family="Times,serif" font-size="14.00">frames</text>
</g>
<!-- in_original_frames_2&#45;&gt;in_start_frame -->
<g id="edge11" class="edge">
<title>in_original_frames_2&#45;&gt;in_start_frame</title>
<path fill="none" stroke="black" d="M209.98,-740.55C218.37,-740.55 226.76,-740.55 235.15,-740.55"/>
<polygon fill="black" stroke="black" points="235.39,-744.05 245.39,-740.55 235.39,-737.05 235.39,-744.05"/>
</g>
<!-- in_original_frames_3 -->
<g id="node20" class="node">
<title>in_original_frames_3</title>
<path fill="none" stroke="black" d="M155.5,-660.52C155.5,-663.16 138.92,-665.3 118.5,-665.3 98.08,-665.3 81.5,-663.16 81.5,-660.52 81.5,-660.52 81.5,-617.57 81.5,-617.57 81.5,-614.94 98.08,-612.8 118.5,-612.8 138.92,-612.8 155.5,-614.94 155.5,-617.57 155.5,-617.57 155.5,-660.52 155.5,-660.52"/>
<path fill="none" stroke="black" d="M155.5,-660.52C155.5,-657.89 138.92,-655.75 118.5,-655.75 98.08,-655.75 81.5,-657.89 81.5,-660.52"/>
<text text-anchor="middle" x="118.5" y="-642.85" font-family="Times,serif" font-size="14.00">Original</text>
<text text-anchor="middle" x="118.5" y="-627.85" font-family="Times,serif" font-size="14.00">frames</text>
</g>
<!-- in_original_frames_3&#45;&gt;in_frames_and_positions -->
<g id="edge15" class="edge">
<title>in_original_frames_3&#45;&gt;in_frames_and_positions</title>
<path fill="none" stroke="black" d="M155.57,-639.05C163.91,-639.05 172.26,-639.05 180.6,-639.05"/>
<polygon fill="black" stroke="black" points="180.78,-642.55 190.78,-639.05 180.78,-635.55 180.78,-642.55"/>
</g>
<!-- in_modified_frames_1 -->
<g id="node22" class="node">
<title>in_modified_frames_1</title>
<path fill="none" stroke="black" d="M355.5,-557.37C355.5,-561.02 326.81,-563.98 291.5,-563.98 256.19,-563.98 227.5,-561.02 227.5,-557.37 227.5,-557.37 227.5,-497.85 227.5,-497.85 227.5,-494.2 256.19,-491.23 291.5,-491.23 326.81,-491.23 355.5,-494.2 355.5,-497.85 355.5,-497.85 355.5,-557.37 355.5,-557.37"/>
<path fill="none" stroke="black" d="M355.5,-557.37C355.5,-553.72 326.81,-550.76 291.5,-550.76 256.19,-550.76 227.5,-553.72 227.5,-557.37"/>
<text text-anchor="middle" x="291.5" y="-538.91" font-family="Times,serif" font-size="14.00">Unchanged and</text>
<text text-anchor="middle" x="291.5" y="-523.91" font-family="Times,serif" font-size="14.00">modified</text>
<text text-anchor="middle" x="291.5" y="-508.91" font-family="Times,serif" font-size="14.00">frames</text>
</g>
<!-- in_modified_frames_1&#45;&gt;show_preview -->
<g id="edge19" class="edge">
<title>in_modified_frames_1&#45;&gt;show_preview</title>
<path fill="none" stroke="black" d="M355.69,-527.61C364.02,-527.61 372.36,-527.61 380.7,-527.61"/>
<polygon fill="black" stroke="black" points="380.87,-531.11 390.87,-527.61 380.87,-524.11 380.87,-531.11"/>
</g>
<!-- in_crop_area -->
<g id="node24" class="node">
<title>in_crop_area</title>
<polygon fill="none" stroke="black" points="358,-326.17 277,-326.17 277,-290.17 364,-290.17 364,-320.17 358,-326.17"/>
<polyline fill="none" stroke="black" points="358,-326.17 358,-320.17 "/>
<polyline fill="none" stroke="black" points="364,-320.17 358,-320.17 "/>
<text text-anchor="middle" x="320.5" y="-304.47" font-family="Times,serif" font-size="14.00">Crop area</text>
</g>
<!-- in_crop_area&#45;&gt;set_save_params -->
<g id="edge24" class="edge">
<title>in_crop_area&#45;&gt;set_save_params</title>
<path fill="none" stroke="black" d="M364.09,-308.17C372.64,-308.17 381.19,-308.17 389.75,-308.17"/>
<polygon fill="black" stroke="black" points="389.79,-311.67 399.79,-308.17 389.79,-304.67 389.79,-311.67"/>
</g>
<!-- in_modified_frames_2 -->
<g id="node25" class="node">
<title>in_modified_frames_2</title>
<path fill="none" stroke="black" d="M292.5,-245.5C292.5,-249.14 263.81,-252.11 228.5,-252.11 193.19,-252.11 164.5,-249.14 164.5,-245.5 164.5,-245.5 164.5,-185.97 164.5,-185.97 164.5,-182.32 193.19,-179.36 228.5,-179.36 263.81,-179.36 292.5,-182.32 292.5,-185.97 292.5,-185.97 292.5,-245.5 292.5,-245.5"/>
<path fill="none" stroke="black" d="M292.5,-245.5C292.5,-241.85 263.81,-238.88 228.5,-238.88 193.19,-238.88 164.5,-241.85 164.5,-245.5"/>
<text text-anchor="middle" x="228.5" y="-227.03" font-family="Times,serif" font-size="14.00">Unchanged and</text>
<text text-anchor="middle" x="228.5" y="-212.03" font-family="Times,serif" font-size="14.00">modified</text>
<text text-anchor="middle" x="228.5" y="-197.03" font-family="Times,serif" font-size="14.00">frames</text>
</g>
<!-- in_modified_frames_2&#45;&gt;save_video -->
<g id="edge27" class="edge">
<title>in_modified_frames_2&#45;&gt;save_video</title>
<path fill="none" stroke="black" d="M292.81,-215.73C309.29,-215.73 325.76,-215.73 342.23,-215.73"/>
<polygon fill="black" stroke="black" points="342.49,-219.23 352.49,-215.73 342.49,-212.23 342.49,-219.23"/>
</g>
<!-- in_original_audio_stream -->
<g id="node26" class="node">
<title>in_original_audio_stream</title>
<path fill="none" stroke="black" stroke-dasharray="1,5" d="M129,-245.5C129,-249.14 100.09,-252.11 64.5,-252.11 28.91,-252.11 0,-249.14 0,-245.5 0,-245.5 0,-185.97 0,-185.97 0,-182.32 28.91,-179.36 64.5,-179.36 100.09,-179.36 129,-182.32 129,-185.97 129,-185.97 129,-245.5 129,-245.5"/>
<path fill="none" stroke="black" stroke-dasharray="1,5" d="M129,-245.5C129,-241.85 100.09,-238.88 64.5,-238.88 28.91,-238.88 0,-241.85 0,-245.5"/>
<text text-anchor="middle" x="64.5" y="-227.03" font-family="Times,serif" font-size="14.00">Original video’s</text>
<text text-anchor="middle" x="64.5" y="-212.03" font-family="Times,serif" font-size="14.00">audio stream(s)</text>
<text text-anchor="middle" x="64.5" y="-197.03" font-family="Times,serif" font-size="14.00">if avaiable</text>
</g>
<!-- in_original_audio_stream&#45;&gt;in_modified_frames_2 -->
<g id="edge26" class="edge">
<title>in_original_audio_stream&#45;&gt;in_modified_frames_2</title>
<path fill="none" stroke="black" stroke-dasharray="1,5" d="M129.2,-215.73C137.48,-215.73 145.75,-215.73 154.02,-215.73"/>
<polygon fill="black" stroke="black" points="154.11,-219.23 164.11,-215.73 154.11,-212.23 154.11,-219.23"/>
</g>
<!-- anytime_load -->
<g id="node28" class="node">
<title>anytime_load</title>
<ellipse fill="none" stroke="black" cx="332.5" cy="-1260.73" rx="34.8" ry="34.8"/>
<text text-anchor="middle" x="332.5" y="-1264.53" font-family="Times,serif" font-size="14.00">any</text>
<text text-anchor="middle" x="332.5" y="-1249.53" font-family="Times,serif" font-size="14.00">time</text>
</g>
<!-- anytime_load&#45;&gt;load_video -->
<g id="edge30" class="edge">
<title>anytime_load&#45;&gt;load_video</title>
<path fill="none" stroke="black" d="M367.23,-1260.73C375.54,-1260.73 383.84,-1260.73 392.14,-1260.73"/>
<polygon fill="black" stroke="black" points="392.26,-1264.23 402.26,-1260.73 392.26,-1257.23 392.26,-1264.23"/>
</g>
<!-- anytime_quit -->
<g id="node29" class="node">
<title>anytime_quit</title>
<ellipse fill="none" stroke="black" cx="352.5" cy="-107.65" rx="34.8" ry="34.8"/>
<text text-anchor="middle" x="352.5" y="-111.45" font-family="Times,serif" font-size="14.00">any</text>
<text text-anchor="middle" x="352.5" y="-96.45" font-family="Times,serif" font-size="14.00">time</text>
</g>
<!-- anytime_quit&#45;&gt;quit -->
<g id="edge31" class="edge">
<title>anytime_quit&#45;&gt;quit</title>
<path fill="none" stroke="black" d="M387.36,-107.65C395.64,-107.65 403.93,-107.65 412.21,-107.65"/>
<polygon fill="black" stroke="black" points="412.31,-111.15 422.31,-107.65 412.31,-104.15 412.31,-111.15"/>
</g>
<!-- additional_pixelation_1 -->
<g id="node30" class="node">
<title>additional_pixelation_1</title>
<ellipse fill="none" stroke="black" cx="394.5" cy="-912.05" rx="18" ry="18"/>
<text text-anchor="middle" x="394.5" y="-908.35" font-family="Times,serif" font-size="14.00">B</text>
</g>
<!-- additional_pixelation_1&#45;&gt;new_pixelation -->
<g id="edge6" class="edge">
<title>additional_pixelation_1&#45;&gt;new_pixelation</title>
<path fill="none" stroke="black" d="M412.55,-912.05C420.83,-912.05 429.1,-912.05 437.38,-912.05"/>
<polygon fill="black" stroke="black" points="437.48,-915.55 447.48,-912.05 437.48,-908.55 437.48,-915.55"/>
</g>
<!-- Start -->
<g id="node32" class="node">
<title>Start</title>
<ellipse fill="none" stroke="black" cx="449.5" cy="-1350.37" rx="34.39" ry="18"/>
<text text-anchor="middle" x="449.5" y="-1346.67" font-family="Times,serif" font-size="14.00">Start</text>
</g>
<!-- Start&#45;&gt;load_video -->
<g id="edge1" class="edge">
<title>Start&#45;&gt;load_video</title>
<path fill="none" stroke="black" d="M449.5,-1332.06C449.5,-1319.81 449.5,-1303.15 449.5,-1289.11"/>
<polygon fill="black" stroke="black" points="453,-1289.01 449.5,-1279.01 446,-1289.01 453,-1289.01"/>
</g>
</g>
</svg>
