<?xml version="1.0" encoding="UTF-8" standalone="no"?>
<!DOCTYPE svg PUBLIC "-//W3C//DTD SVG 1.1//EN"
 "http://www.w3.org/Graphics/SVG/1.1/DTD/svg11.dtd">
<!-- Generated by graphviz version 2.43.0 (0)
 -->
<!-- Title: pixelate&#45;videos generic workflow Pages: 1 -->
<svg width="601pt" height="1167pt"
 viewBox="0.00 0.00 601.00 1166.84" xmlns="http://www.w3.org/2000/svg" xmlns:xlink="http://www.w3.org/1999/xlink">
<g id="graph0" class="graph" transform="scale(1 1) rotate(0) translate(4 1162.84)">
<title>pixelate&#45;videos generic workflow</title>
<polygon fill="white" stroke="transparent" points="-4,4 -4,-1162.84 597,-1162.84 597,4 -4,4"/>
<!-- load_video -->
<g id="node1" class="node">
<title>load_video</title>
<polygon fill="none" stroke="black" points="431.5,-1070.19 336.5,-1070.19 336.5,-1034.19 431.5,-1034.19 431.5,-1070.19"/>
<text text-anchor="middle" x="384" y="-1048.49" font-family="Times,serif" font-size="14.00">Load Video</text>
</g>
<!-- split_video -->
<g id="node2" class="node">
<title>split_video</title>
<polygon fill="none" stroke="black" points="501.31,-981.55 314.7,-981.55 266.69,-905.55 453.3,-905.55 501.31,-981.55"/>
<text text-anchor="middle" x="384" y="-947.35" font-family="Times,serif" font-size="14.00">Split into</text>
<text text-anchor="middle" x="384" y="-932.35" font-family="Times,serif" font-size="14.00">single frames</text>
</g>
<!-- load_video&#45;&gt;split_video -->
<g id="edge2" class="edge">
<title>load_video&#45;&gt;split_video</title>
<path fill="none" stroke="black" d="M384,-1034.06C384,-1022.67 384,-1007.12 384,-992.17"/>
<polygon fill="black" stroke="black" points="387.5,-991.98 384,-981.98 380.5,-991.98 387.5,-991.98"/>
</g>
<!-- start_frame -->
<g id="node3" class="node">
<title>start_frame</title>
<polygon fill="none" stroke="black" points="433,-862.42 335,-862.42 335,-824.42 433,-824.42 433,-862.42"/>
<text text-anchor="middle" x="384" y="-847.22" font-family="Times,serif" font-size="14.00">Select</text>
<text text-anchor="middle" x="384" y="-832.22" font-family="Times,serif" font-size="14.00">start frame</text>
</g>
<!-- split_video&#45;&gt;start_frame -->
<g id="edge5" class="edge">
<title>split_video&#45;&gt;start_frame</title>
<path fill="none" stroke="black" d="M384,-905.45C384,-894.57 384,-882.86 384,-872.64"/>
<polygon fill="black" stroke="black" points="387.5,-872.61 384,-862.61 380.5,-872.61 387.5,-872.61"/>
</g>
<!-- out_original_frames -->
<g id="node13" class="node">
<title>out_original_frames</title>
<path fill="none" stroke="black" d="M593,-965.02C593,-967.66 576.42,-969.8 556,-969.8 535.58,-969.8 519,-967.66 519,-965.02 519,-965.02 519,-922.07 519,-922.07 519,-919.44 535.58,-917.3 556,-917.3 576.42,-917.3 593,-919.44 593,-922.07 593,-922.07 593,-965.02 593,-965.02"/>
<path fill="none" stroke="black" d="M593,-965.02C593,-962.39 576.42,-960.25 556,-960.25 535.58,-960.25 519,-962.39 519,-965.02"/>
<text text-anchor="middle" x="556" y="-947.35" font-family="Times,serif" font-size="14.00">Original</text>
<text text-anchor="middle" x="556" y="-932.35" font-family="Times,serif" font-size="14.00">frames</text>
</g>
<!-- split_video&#45;&gt;out_original_frames -->
<g id="edge4" class="edge">
<title>split_video&#45;&gt;out_original_frames</title>
<path fill="none" stroke="black" d="M477.39,-943.55C487.86,-943.55 498.33,-943.55 508.81,-943.55"/>
<polygon fill="black" stroke="black" points="508.84,-947.05 518.84,-943.55 508.84,-940.05 508.84,-947.05"/>
</g>
<!-- start_position -->
<g id="node4" class="node">
<title>start_position</title>
<polygon fill="none" stroke="black" points="452,-781.3 316,-781.3 316,-743.3 452,-743.3 452,-781.3"/>
<text text-anchor="middle" x="384" y="-766.1" font-family="Times,serif" font-size="14.00">Select pixelation</text>
<text text-anchor="middle" x="384" y="-751.1" font-family="Times,serif" font-size="14.00">start position</text>
</g>
<!-- start_frame&#45;&gt;start_position -->
<g id="edge8" class="edge">
<title>start_frame&#45;&gt;start_position</title>
<path fill="none" stroke="black" d="M384,-824.07C384,-814.48 384,-802.54 384,-791.78"/>
<polygon fill="black" stroke="black" points="387.5,-791.55 384,-781.55 380.5,-791.55 387.5,-791.55"/>
</g>
<!-- out_start_frame -->
<g id="node14" class="node">
<title>out_start_frame</title>
<polygon fill="none" stroke="black" points="545,-861.42 451,-861.42 451,-825.42 551,-825.42 551,-855.42 545,-861.42"/>
<polyline fill="none" stroke="black" points="545,-861.42 545,-855.42 "/>
<polyline fill="none" stroke="black" points="551,-855.42 545,-855.42 "/>
<text text-anchor="middle" x="501" y="-839.72" font-family="Times,serif" font-size="14.00">Start frame</text>
</g>
<!-- start_frame&#45;&gt;out_start_frame -->
<g id="edge7" class="edge">
<title>start_frame&#45;&gt;out_start_frame</title>
<path fill="none" stroke="black" d="M433.36,-843.42C435.81,-843.42 438.26,-843.42 440.72,-843.42"/>
<polygon fill="black" stroke="black" points="440.8,-846.92 450.8,-843.42 440.8,-839.92 440.8,-846.92"/>
</g>
<!-- end_frame -->
<g id="node5" class="node">
<title>end_frame</title>
<polygon fill="none" stroke="black" points="428.5,-700.17 339.5,-700.17 339.5,-662.17 428.5,-662.17 428.5,-700.17"/>
<text text-anchor="middle" x="384" y="-684.97" font-family="Times,serif" font-size="14.00">Select</text>
<text text-anchor="middle" x="384" y="-669.97" font-family="Times,serif" font-size="14.00">end frame</text>
</g>
<!-- start_position&#45;&gt;end_frame -->
<g id="edge11" class="edge">
<title>start_position&#45;&gt;end_frame</title>
<path fill="none" stroke="black" d="M384,-742.94C384,-733.36 384,-721.41 384,-710.65"/>
<polygon fill="black" stroke="black" points="387.5,-710.42 384,-700.42 380.5,-710.42 387.5,-710.42"/>
</g>
<!-- out_start_position -->
<g id="node17" class="node">
<title>out_start_position</title>
<polygon fill="none" stroke="black" points="579.5,-780.3 470.5,-780.3 470.5,-744.3 585.5,-744.3 585.5,-774.3 579.5,-780.3"/>
<polyline fill="none" stroke="black" points="579.5,-780.3 579.5,-774.3 "/>
<polyline fill="none" stroke="black" points="585.5,-774.3 579.5,-774.3 "/>
<text text-anchor="middle" x="528" y="-758.6" font-family="Times,serif" font-size="14.00">Start position</text>
</g>
<!-- start_position&#45;&gt;out_start_position -->
<g id="edge10" class="edge">
<title>start_position&#45;&gt;out_start_position</title>
<path fill="none" stroke="black" d="M452.06,-762.3C454.84,-762.3 457.62,-762.3 460.4,-762.3"/>
<polygon fill="black" stroke="black" points="460.45,-765.8 470.45,-762.3 460.45,-758.8 460.45,-765.8"/>
</g>
<!-- end_position -->
<g id="node6" class="node">
<title>end_position</title>
<polygon fill="none" stroke="black" points="452,-619.05 316,-619.05 316,-581.05 452,-581.05 452,-619.05"/>
<text text-anchor="middle" x="384" y="-603.85" font-family="Times,serif" font-size="14.00">Select pixelation</text>
<text text-anchor="middle" x="384" y="-588.85" font-family="Times,serif" font-size="14.00">end position</text>
</g>
<!-- end_frame&#45;&gt;end_position -->
<g id="edge15" class="edge">
<title>end_frame&#45;&gt;end_position</title>
<path fill="none" stroke="black" d="M384,-661.82C384,-652.23 384,-640.29 384,-629.53"/>
<polygon fill="black" stroke="black" points="387.5,-629.3 384,-619.3 380.5,-629.3 387.5,-629.3"/>
</g>
<!-- out_end_frame -->
<g id="node18" class="node">
<title>out_end_frame</title>
<polygon fill="none" stroke="black" points="533,-699.17 447,-699.17 447,-663.17 539,-663.17 539,-693.17 533,-699.17"/>
<polyline fill="none" stroke="black" points="533,-699.17 533,-693.17 "/>
<polyline fill="none" stroke="black" points="539,-693.17 533,-693.17 "/>
<text text-anchor="middle" x="493" y="-677.47" font-family="Times,serif" font-size="14.00">End frame</text>
</g>
<!-- end_frame&#45;&gt;out_end_frame -->
<g id="edge14" class="edge">
<title>end_frame&#45;&gt;out_end_frame</title>
<path fill="none" stroke="black" d="M428.71,-681.17C431.34,-681.17 433.98,-681.17 436.62,-681.17"/>
<polygon fill="black" stroke="black" points="436.79,-684.67 446.79,-681.17 436.79,-677.67 436.79,-684.67"/>
</g>
<!-- apply_pixelation -->
<g id="node7" class="node">
<title>apply_pixelation</title>
<polygon fill="none" stroke="black" points="491.64,-545.05 320.41,-545.05 276.36,-469.05 447.59,-469.05 491.64,-545.05"/>
<text text-anchor="middle" x="384" y="-510.85" font-family="Times,serif" font-size="14.00">Pixelate</text>
<text text-anchor="middle" x="384" y="-495.85" font-family="Times,serif" font-size="14.00">frame range</text>
</g>
<!-- end_position&#45;&gt;apply_pixelation -->
<g id="edge18" class="edge">
<title>end_position&#45;&gt;apply_pixelation</title>
<path fill="none" stroke="black" d="M384,-580.63C384,-573.24 384,-564.34 384,-555.35"/>
<polygon fill="black" stroke="black" points="387.5,-555.23 384,-545.23 380.5,-555.23 387.5,-555.23"/>
</g>
<!-- out_end_position -->
<g id="node20" class="node">
<title>out_end_position</title>
<polygon fill="none" stroke="black" points="571.5,-618.05 470.5,-618.05 470.5,-582.05 577.5,-582.05 577.5,-612.05 571.5,-618.05"/>
<polyline fill="none" stroke="black" points="571.5,-618.05 571.5,-612.05 "/>
<polyline fill="none" stroke="black" points="577.5,-612.05 571.5,-612.05 "/>
<text text-anchor="middle" x="524" y="-596.35" font-family="Times,serif" font-size="14.00">End position</text>
</g>
<!-- end_position&#45;&gt;out_end_position -->
<g id="edge17" class="edge">
<title>end_position&#45;&gt;out_end_position</title>
<path fill="none" stroke="black" d="M452.09,-600.05C454.75,-600.05 457.41,-600.05 460.07,-600.05"/>
<polygon fill="black" stroke="black" points="460.35,-603.55 470.35,-600.05 460.35,-596.55 460.35,-603.55"/>
</g>
<!-- show_preview -->
<g id="node8" class="node">
<title>show_preview</title>
<polygon fill="none" stroke="black" points="442.5,-415.61 325.5,-415.61 325.5,-377.61 442.5,-377.61 442.5,-415.61"/>
<text text-anchor="middle" x="384" y="-400.41" font-family="Times,serif" font-size="14.00">Show preview</text>
<text text-anchor="middle" x="384" y="-385.41" font-family="Times,serif" font-size="14.00">as flip book</text>
</g>
<!-- apply_pixelation&#45;&gt;show_preview -->
<g id="edge22" class="edge">
<title>apply_pixelation&#45;&gt;show_preview</title>
<path fill="none" stroke="black" d="M384,-469.03C384,-454.94 384,-439.12 384,-425.95"/>
<polygon fill="black" stroke="black" points="387.5,-425.62 384,-415.62 380.5,-425.62 387.5,-425.62"/>
</g>
<!-- out_modified_frames -->
<g id="node25" class="node">
<title>out_modified_frames</title>
<path fill="none" stroke="black" d="M590,-528.52C590,-531.16 572.07,-533.3 550,-533.3 527.93,-533.3 510,-531.16 510,-528.52 510,-528.52 510,-485.57 510,-485.57 510,-482.94 527.93,-480.8 550,-480.8 572.07,-480.8 590,-482.94 590,-485.57 590,-485.57 590,-528.52 590,-528.52"/>
<path fill="none" stroke="black" d="M590,-528.52C590,-525.89 572.07,-523.75 550,-523.75 527.93,-523.75 510,-525.89 510,-528.52"/>
<text text-anchor="middle" x="550" y="-510.85" font-family="Times,serif" font-size="14.00">Modified</text>
<text text-anchor="middle" x="550" y="-495.85" font-family="Times,serif" font-size="14.00">frames</text>
</g>
<!-- apply_pixelation&#45;&gt;out_modified_frames -->
<g id="edge21" class="edge">
<title>apply_pixelation&#45;&gt;out_modified_frames</title>
<path fill="none" stroke="black" d="M469.92,-507.05C479.93,-507.05 489.94,-507.05 499.95,-507.05"/>
<polygon fill="black" stroke="black" points="499.96,-510.55 509.96,-507.05 499.96,-503.55 499.96,-510.55"/>
</g>
<!-- set_save_params -->
<g id="node9" class="node">
<title>set_save_params</title>
<polygon fill="none" stroke="black" points="433.5,-324.17 334.5,-324.17 334.5,-286.17 433.5,-286.17 433.5,-324.17"/>
<text text-anchor="middle" x="384" y="-308.97" font-family="Times,serif" font-size="14.00">Set save</text>
<text text-anchor="middle" x="384" y="-293.97" font-family="Times,serif" font-size="14.00">parameters</text>
</g>
<!-- show_preview&#45;&gt;set_save_params -->
<g id="edge24" class="edge">
<title>show_preview&#45;&gt;set_save_params</title>
<path fill="none" stroke="black" d="M384,-377.51C384,-365.14 384,-348.51 384,-334.41"/>
<polygon fill="black" stroke="black" points="387.5,-334.24 384,-324.24 380.5,-334.24 387.5,-334.24"/>
</g>
<!-- save_video -->
<g id="node10" class="node">
<title>save_video</title>
<polygon fill="none" stroke="black" points="474.56,-231.73 330.5,-231.73 293.44,-195.73 437.5,-195.73 474.56,-231.73"/>
<text text-anchor="middle" x="384" y="-210.03" font-family="Times,serif" font-size="14.00">Save Video</text>
</g>
<!-- set_save_params&#45;&gt;save_video -->
<g id="edge25" class="edge">
<title>set_save_params&#45;&gt;save_video</title>
<path fill="none" stroke="black" d="M384,-286.07C384,-273.46 384,-256.41 384,-242.15"/>
<polygon fill="black" stroke="black" points="387.5,-241.9 384,-231.9 380.5,-241.9 387.5,-241.9"/>
</g>
<!-- quit -->
<g id="node11" class="node">
<title>quit</title>
<polygon fill="none" stroke="black" points="411,-124.65 357,-124.65 357,-88.65 411,-88.65 411,-124.65"/>
<text text-anchor="middle" x="384" y="-102.95" font-family="Times,serif" font-size="14.00">Quit</text>
</g>
<!-- save_video&#45;&gt;quit -->
<g id="edge29" class="edge">
<title>save_video&#45;&gt;quit</title>
<path fill="none" stroke="black" d="M384,-195.38C384,-178.93 384,-153.96 384,-134.86"/>
<polygon fill="black" stroke="black" points="387.5,-134.68 384,-124.68 380.5,-134.68 387.5,-134.68"/>
</g>
<!-- out_result_video -->
<g id="node29" class="node">
<title>out_result_video</title>
<path fill="none" stroke="black" d="M555,-235.21C555,-237.85 541.11,-239.98 524,-239.98 506.89,-239.98 493,-237.85 493,-235.21 493,-235.21 493,-192.26 493,-192.26 493,-189.62 506.89,-187.48 524,-187.48 541.11,-187.48 555,-189.62 555,-192.26 555,-192.26 555,-235.21 555,-235.21"/>
<path fill="none" stroke="black" d="M555,-235.21C555,-232.58 541.11,-230.44 524,-230.44 506.89,-230.44 493,-232.58 493,-235.21"/>
<text text-anchor="middle" x="524" y="-217.53" font-family="Times,serif" font-size="14.00">Result</text>
<text text-anchor="middle" x="524" y="-202.53" font-family="Times,serif" font-size="14.00">video</text>
</g>
<!-- save_video&#45;&gt;out_result_video -->
<g id="edge28" class="edge">
<title>save_video&#45;&gt;out_result_video</title>
<path fill="none" stroke="black" d="M456.19,-213.73C464.95,-213.73 473.7,-213.73 482.46,-213.73"/>
<polygon fill="black" stroke="black" points="482.74,-217.23 492.74,-213.73 482.74,-210.23 482.74,-217.23"/>
</g>
<!-- Finish -->
<g id="node33" class="node">
<title>Finish</title>
<ellipse fill="none" stroke="black" cx="384" cy="-18" rx="39.79" ry="18"/>
<text text-anchor="middle" x="384" y="-14.3" font-family="Times,serif" font-size="14.00">Finish</text>
</g>
<!-- quit&#45;&gt;Finish -->
<g id="edge32" class="edge">
<title>quit&#45;&gt;Finish</title>
<path fill="none" stroke="black" d="M384,-88.53C384,-76.54 384,-60.27 384,-46.48"/>
<polygon fill="black" stroke="black" points="387.5,-46.08 384,-36.08 380.5,-46.08 387.5,-46.08"/>
</g>
<!-- in_original_video -->
<g id="node12" class="node">
<title>in_original_video</title>
<path fill="none" stroke="black" d="M249,-965.02C249,-967.66 232.42,-969.8 212,-969.8 191.58,-969.8 175,-967.66 175,-965.02 175,-965.02 175,-922.07 175,-922.07 175,-919.44 191.58,-917.3 212,-917.3 232.42,-917.3 249,-919.44 249,-922.07 249,-922.07 249,-965.02 249,-965.02"/>
<path fill="none" stroke="black" d="M249,-965.02C249,-962.39 232.42,-960.25 212,-960.25 191.58,-960.25 175,-962.39 175,-965.02"/>
<text text-anchor="middle" x="212" y="-947.35" font-family="Times,serif" font-size="14.00">Original</text>
<text text-anchor="middle" x="212" y="-932.35" font-family="Times,serif" font-size="14.00">video</text>
</g>
<!-- in_original_video&#45;&gt;split_video -->
<g id="edge3" class="edge">
<title>in_original_video&#45;&gt;split_video</title>
<path fill="none" stroke="black" d="M249.29,-943.55C259.72,-943.55 270.16,-943.55 280.59,-943.55"/>
<polygon fill="black" stroke="black" points="280.6,-947.05 290.6,-943.55 280.6,-940.05 280.6,-947.05"/>
</g>
<!-- in_start_frame_1 -->
<g id="node15" class="node">
<title>in_start_frame_1</title>
<polygon fill="none" stroke="black" points="292,-780.3 198,-780.3 198,-744.3 298,-744.3 298,-774.3 292,-780.3"/>
<polyline fill="none" stroke="black" points="292,-780.3 292,-774.3 "/>
<polyline fill="none" stroke="black" points="298,-774.3 292,-774.3 "/>
<text text-anchor="middle" x="248" y="-758.6" font-family="Times,serif" font-size="14.00">Start frame</text>
</g>
<!-- in_start_frame_1&#45;&gt;start_position -->
<g id="edge9" class="edge">
<title>in_start_frame_1&#45;&gt;start_position</title>
<path fill="none" stroke="black" d="M298.2,-762.3C300.7,-762.3 303.2,-762.3 305.7,-762.3"/>
<polygon fill="black" stroke="black" points="305.97,-765.8 315.97,-762.3 305.97,-758.8 305.97,-765.8"/>
</g>
<!-- in_start_frame_2 -->
<g id="node16" class="node">
<title>in_start_frame_2</title>
<polygon fill="none" stroke="black" points="315,-699.17 221,-699.17 221,-663.17 321,-663.17 321,-693.17 315,-699.17"/>
<polyline fill="none" stroke="black" points="315,-699.17 315,-693.17 "/>
<polyline fill="none" stroke="black" points="321,-693.17 315,-693.17 "/>
<text text-anchor="middle" x="271" y="-677.47" font-family="Times,serif" font-size="14.00">Start frame</text>
</g>
<!-- in_start_frame_2&#45;&gt;end_frame -->
<g id="edge13" class="edge">
<title>in_start_frame_2&#45;&gt;end_frame</title>
<path fill="none" stroke="black" d="M321.32,-681.17C323.96,-681.17 326.6,-681.17 329.25,-681.17"/>
<polygon fill="black" stroke="black" points="329.44,-684.67 339.44,-681.17 329.44,-677.67 329.44,-684.67"/>
</g>
<!-- in_end_frame -->
<g id="node19" class="node">
<title>in_end_frame</title>
<polygon fill="none" stroke="black" points="292,-618.05 206,-618.05 206,-582.05 298,-582.05 298,-612.05 292,-618.05"/>
<polyline fill="none" stroke="black" points="292,-618.05 292,-612.05 "/>
<polyline fill="none" stroke="black" points="298,-612.05 292,-612.05 "/>
<text text-anchor="middle" x="252" y="-596.35" font-family="Times,serif" font-size="14.00">End frame</text>
</g>
<!-- in_end_frame&#45;&gt;end_position -->
<g id="edge16" class="edge">
<title>in_end_frame&#45;&gt;end_position</title>
<path fill="none" stroke="black" d="M298.15,-600.05C300.65,-600.05 303.15,-600.05 305.65,-600.05"/>
<polygon fill="black" stroke="black" points="305.92,-603.55 315.92,-600.05 305.92,-596.55 305.92,-603.55"/>
</g>
<!-- in_frames_and_positions -->
<g id="node21" class="node">
<title>in_frames_and_positions</title>
<polygon fill="none" stroke="black" points="252.5,-541.05 143.5,-541.05 143.5,-473.05 258.5,-473.05 258.5,-535.05 252.5,-541.05"/>
<polyline fill="none" stroke="black" points="252.5,-541.05 252.5,-535.05 "/>
<polyline fill="none" stroke="black" points="258.5,-535.05 252.5,-535.05 "/>
<text text-anchor="middle" x="201" y="-525.85" font-family="Times,serif" font-size="14.00">Start frame</text>
<text text-anchor="middle" x="201" y="-510.85" font-family="Times,serif" font-size="14.00">Start position</text>
<text text-anchor="middle" x="201" y="-495.85" font-family="Times,serif" font-size="14.00">End frame</text>
<text text-anchor="middle" x="201" y="-480.85" font-family="Times,serif" font-size="14.00">End position</text>
</g>
<!-- in_frames_and_positions&#45;&gt;apply_pixelation -->
<g id="edge20" class="edge">
<title>in_frames_and_positions&#45;&gt;apply_pixelation</title>
<path fill="none" stroke="black" d="M258.54,-507.05C268.37,-507.05 278.19,-507.05 288.01,-507.05"/>
<polygon fill="black" stroke="black" points="288.24,-510.55 298.24,-507.05 288.24,-503.55 288.24,-510.55"/>
</g>
<!-- in_original_frames_1 -->
<g id="node22" class="node">
<title>in_original_frames_1</title>
<path fill="none" stroke="black" d="M317,-864.9C317,-867.53 300.42,-869.67 280,-869.67 259.58,-869.67 243,-867.53 243,-864.9 243,-864.9 243,-821.94 243,-821.94 243,-819.31 259.58,-817.17 280,-817.17 300.42,-817.17 317,-819.31 317,-821.94 317,-821.94 317,-864.9 317,-864.9"/>
<path fill="none" stroke="black" d="M317,-864.9C317,-862.27 300.42,-860.13 280,-860.13 259.58,-860.13 243,-862.27 243,-864.9"/>
<text text-anchor="middle" x="280" y="-847.22" font-family="Times,serif" font-size="14.00">Original</text>
<text text-anchor="middle" x="280" y="-832.22" font-family="Times,serif" font-size="14.00">frames</text>
</g>
<!-- in_original_frames_1&#45;&gt;start_frame -->
<g id="edge6" class="edge">
<title>in_original_frames_1&#45;&gt;start_frame</title>
<path fill="none" stroke="black" d="M317.38,-843.42C319.83,-843.42 322.28,-843.42 324.73,-843.42"/>
<polygon fill="black" stroke="black" points="324.81,-846.92 334.81,-843.42 324.81,-839.92 324.81,-846.92"/>
</g>
<!-- in_original_frames_2 -->
<g id="node23" class="node">
<title>in_original_frames_2</title>
<path fill="none" stroke="black" d="M203,-702.65C203,-705.28 186.42,-707.42 166,-707.42 145.58,-707.42 129,-705.28 129,-702.65 129,-702.65 129,-659.69 129,-659.69 129,-657.06 145.58,-654.92 166,-654.92 186.42,-654.92 203,-657.06 203,-659.69 203,-659.69 203,-702.65 203,-702.65"/>
<path fill="none" stroke="black" d="M203,-702.65C203,-700.02 186.42,-697.88 166,-697.88 145.58,-697.88 129,-700.02 129,-702.65"/>
<text text-anchor="middle" x="166" y="-684.97" font-family="Times,serif" font-size="14.00">Original</text>
<text text-anchor="middle" x="166" y="-669.97" font-family="Times,serif" font-size="14.00">frames</text>
</g>
<!-- in_original_frames_2&#45;&gt;in_start_frame_2 -->
<g id="edge12" class="edge">
<title>in_original_frames_2&#45;&gt;in_start_frame_2</title>
<path fill="none" stroke="black" d="M203.32,-681.17C205.78,-681.17 208.23,-681.17 210.68,-681.17"/>
<polygon fill="black" stroke="black" points="210.77,-684.67 220.77,-681.17 210.77,-677.67 210.77,-684.67"/>
</g>
<!-- in_original_frames_3 -->
<g id="node24" class="node">
<title>in_original_frames_3</title>
<path fill="none" stroke="black" d="M125,-528.52C125,-531.16 108.42,-533.3 88,-533.3 67.58,-533.3 51,-531.16 51,-528.52 51,-528.52 51,-485.57 51,-485.57 51,-482.94 67.58,-480.8 88,-480.8 108.42,-480.8 125,-482.94 125,-485.57 125,-485.57 125,-528.52 125,-528.52"/>
<path fill="none" stroke="black" d="M125,-528.52C125,-525.89 108.42,-523.75 88,-523.75 67.58,-523.75 51,-525.89 51,-528.52"/>
<text text-anchor="middle" x="88" y="-510.85" font-family="Times,serif" font-size="14.00">Original</text>
<text text-anchor="middle" x="88" y="-495.85" font-family="Times,serif" font-size="14.00">frames</text>
</g>
<!-- in_original_frames_3&#45;&gt;in_frames_and_positions -->
<g id="edge19" class="edge">
<title>in_original_frames_3&#45;&gt;in_frames_and_positions</title>
<path fill="none" stroke="black" d="M125.08,-507.05C127.86,-507.05 130.63,-507.05 133.41,-507.05"/>
<polygon fill="black" stroke="black" points="133.47,-510.55 143.47,-507.05 133.47,-503.55 133.47,-510.55"/>
</g>
<!-- in_modified_frames_1 -->
<g id="node26" class="node">
<title>in_modified_frames_1</title>
<path fill="none" stroke="black" d="M307,-426.37C307,-430.02 278.31,-432.98 243,-432.98 207.69,-432.98 179,-430.02 179,-426.37 179,-426.37 179,-366.85 179,-366.85 179,-363.2 207.69,-360.23 243,-360.23 278.31,-360.23 307,-363.2 307,-366.85 307,-366.85 307,-426.37 307,-426.37"/>
<path fill="none" stroke="black" d="M307,-426.37C307,-422.72 278.31,-419.76 243,-419.76 207.69,-419.76 179,-422.72 179,-426.37"/>
<text text-anchor="middle" x="243" y="-407.91" font-family="Times,serif" font-size="14.00">Unchanged and</text>
<text text-anchor="middle" x="243" y="-392.91" font-family="Times,serif" font-size="14.00">modified</text>
<text text-anchor="middle" x="243" y="-377.91" font-family="Times,serif" font-size="14.00">frames</text>
</g>
<!-- in_modified_frames_1&#45;&gt;show_preview -->
<g id="edge23" class="edge">
<title>in_modified_frames_1&#45;&gt;show_preview</title>
<path fill="none" stroke="black" d="M307.17,-396.61C309.93,-396.61 312.7,-396.61 315.46,-396.61"/>
<polygon fill="black" stroke="black" points="315.47,-400.11 325.47,-396.61 315.47,-393.11 315.47,-400.11"/>
</g>
<!-- in_modified_frames_2 -->
<g id="node27" class="node">
<title>in_modified_frames_2</title>
<path fill="none" stroke="black" d="M128,-243.5C128,-247.14 99.31,-250.11 64,-250.11 28.69,-250.11 0,-247.14 0,-243.5 0,-243.5 0,-183.97 0,-183.97 0,-180.32 28.69,-177.36 64,-177.36 99.31,-177.36 128,-180.32 128,-183.97 128,-183.97 128,-243.5 128,-243.5"/>
<path fill="none" stroke="black" d="M128,-243.5C128,-239.85 99.31,-236.88 64,-236.88 28.69,-236.88 0,-239.85 0,-243.5"/>
<text text-anchor="middle" x="64" y="-225.03" font-family="Times,serif" font-size="14.00">Unchanged and</text>
<text text-anchor="middle" x="64" y="-210.03" font-family="Times,serif" font-size="14.00">modified</text>
<text text-anchor="middle" x="64" y="-195.03" font-family="Times,serif" font-size="14.00">frames</text>
</g>
<!-- in_modified_frames_2&#45;&gt;save_video -->
<g id="edge27" class="edge">
<title>in_modified_frames_2&#45;&gt;save_video</title>
<path fill="none" stroke="black" d="M107.56,-249.38C119.35,-257.08 132.59,-264.12 146,-268.17 200.89,-284.73 219.2,-281.33 275,-268.17 300.82,-262.08 327.51,-248.89 348.02,-237.02"/>
<polygon fill="black" stroke="black" points="349.88,-239.98 356.69,-231.86 346.3,-233.96 349.88,-239.98"/>
</g>
<!-- in_original_audio_stream -->
<g id="node28" class="node">
<title>in_original_audio_stream</title>
<path fill="none" stroke="black" stroke-dasharray="1,5" d="M275.5,-243.5C275.5,-247.14 246.59,-250.11 211,-250.11 175.41,-250.11 146.5,-247.14 146.5,-243.5 146.5,-243.5 146.5,-183.97 146.5,-183.97 146.5,-180.32 175.41,-177.36 211,-177.36 246.59,-177.36 275.5,-180.32 275.5,-183.97 275.5,-183.97 275.5,-243.5 275.5,-243.5"/>
<path fill="none" stroke="black" stroke-dasharray="1,5" d="M275.5,-243.5C275.5,-239.85 246.59,-236.88 211,-236.88 175.41,-236.88 146.5,-239.85 146.5,-243.5"/>
<text text-anchor="middle" x="211" y="-225.03" font-family="Times,serif" font-size="14.00">Original video’s</text>
<text text-anchor="middle" x="211" y="-210.03" font-family="Times,serif" font-size="14.00">audio stream(s)</text>
<text text-anchor="middle" x="211" y="-195.03" font-family="Times,serif" font-size="14.00">if avaiable</text>
</g>
<!-- in_original_audio_stream&#45;&gt;save_video -->
<g id="edge26" class="edge">
<title>in_original_audio_stream&#45;&gt;save_video</title>
<path fill="none" stroke="black" stroke-dasharray="1,5" d="M275.54,-213.73C284.17,-213.73 292.79,-213.73 301.42,-213.73"/>
<polygon fill="black" stroke="black" points="301.55,-217.23 311.55,-213.73 301.55,-210.23 301.55,-217.23"/>
</g>
<!-- anytime_load -->
<g id="node30" class="node">
<title>anytime_load</title>
<ellipse fill="none" stroke="black" cx="284" cy="-1052.19" rx="34.8" ry="34.8"/>
<text text-anchor="middle" x="284" y="-1055.99" font-family="Times,serif" font-size="14.00">any</text>
<text text-anchor="middle" x="284" y="-1040.99" font-family="Times,serif" font-size="14.00">time</text>
</g>
<!-- anytime_load&#45;&gt;load_video -->
<g id="edge30" class="edge">
<title>anytime_load&#45;&gt;load_video</title>
<path fill="none" stroke="black" d="M318.77,-1052.19C321.24,-1052.19 323.71,-1052.19 326.18,-1052.19"/>
<polygon fill="black" stroke="black" points="326.35,-1055.69 336.35,-1052.19 326.35,-1048.69 326.35,-1055.69"/>
</g>
<!-- anytime_quit -->
<g id="node31" class="node">
<title>anytime_quit</title>
<ellipse fill="none" stroke="black" cx="304" cy="-106.65" rx="34.8" ry="34.8"/>
<text text-anchor="middle" x="304" y="-110.45" font-family="Times,serif" font-size="14.00">any</text>
<text text-anchor="middle" x="304" y="-95.45" font-family="Times,serif" font-size="14.00">time</text>
</g>
<!-- anytime_quit&#45;&gt;quit -->
<g id="edge31" class="edge">
<title>anytime_quit&#45;&gt;quit</title>
<path fill="none" stroke="black" d="M338.69,-106.65C341.32,-106.65 343.95,-106.65 346.59,-106.65"/>
<polygon fill="black" stroke="black" points="346.74,-110.15 356.74,-106.65 346.74,-103.15 346.74,-110.15"/>
</g>
<!-- Start -->
<g id="node32" class="node">
<title>Start</title>
<ellipse fill="none" stroke="black" cx="384" cy="-1140.84" rx="34.39" ry="18"/>
<text text-anchor="middle" x="384" y="-1137.14" font-family="Times,serif" font-size="14.00">Start</text>
</g>
<!-- Start&#45;&gt;load_video -->
<g id="edge1" class="edge">
<title>Start&#45;&gt;load_video</title>
<path fill="none" stroke="black" d="M384,-1122.72C384,-1110.74 384,-1094.46 384,-1080.68"/>
<polygon fill="black" stroke="black" points="387.5,-1080.28 384,-1070.28 380.5,-1080.28 387.5,-1080.28"/>
</g>
</g>
</svg>
