<?xml version="1.0" encoding="UTF-8" standalone="no"?>
<!DOCTYPE svg PUBLIC "-//W3C//DTD SVG 1.1//EN"
 "http://www.w3.org/Graphics/SVG/1.1/DTD/svg11.dtd">
<!-- Generated by graphviz version 2.43.0 (0)
 -->
<!-- Title: pixelate&#45;videos generic workflow Pages: 1 -->
<svg width="638pt" height="1306pt"
 viewBox="0.00 0.00 638.00 1305.84" xmlns="http://www.w3.org/2000/svg" xmlns:xlink="http://www.w3.org/1999/xlink">
<g id="graph0" class="graph" transform="scale(1 1) rotate(0) translate(4 1301.84)">
<title>pixelate&#45;videos generic workflow</title>
<polygon fill="white" stroke="transparent" points="-4,4 -4,-1301.84 634,-1301.84 634,4 -4,4"/>
<!-- load_video -->
<g id="node1" class="node">
<title>load_video</title>
<polygon fill="none" stroke="black" points="450.5,-1208.19 355.5,-1208.19 355.5,-1172.19 450.5,-1172.19 450.5,-1208.19"/>
<text text-anchor="middle" x="403" y="-1186.49" font-family="Times,serif" font-size="14.00">Load Video</text>
</g>
<!-- split_video -->
<g id="node2" class="node">
<title>split_video</title>
<polygon fill="none" stroke="black" points="520.31,-1118.55 333.7,-1118.55 285.69,-1042.55 472.3,-1042.55 520.31,-1118.55"/>
<text text-anchor="middle" x="403" y="-1084.35" font-family="Times,serif" font-size="14.00">Split into</text>
<text text-anchor="middle" x="403" y="-1069.35" font-family="Times,serif" font-size="14.00">single frames</text>
</g>
<!-- load_video&#45;&gt;split_video -->
<g id="edge2" class="edge">
<title>load_video&#45;&gt;split_video</title>
<path fill="none" stroke="black" d="M403,-1171.9C403,-1160.31 403,-1144.44 403,-1129.24"/>
<polygon fill="black" stroke="black" points="406.5,-1128.88 403,-1118.88 399.5,-1128.88 406.5,-1128.88"/>
</g>
<!-- start_frame -->
<g id="node3" class="node">
<title>start_frame</title>
<polygon fill="none" stroke="black" points="452,-998.42 354,-998.42 354,-960.42 452,-960.42 452,-998.42"/>
<text text-anchor="middle" x="403" y="-983.22" font-family="Times,serif" font-size="14.00">Select</text>
<text text-anchor="middle" x="403" y="-968.22" font-family="Times,serif" font-size="14.00">start frame</text>
</g>
<!-- split_video&#45;&gt;start_frame -->
<g id="edge5" class="edge">
<title>split_video&#45;&gt;start_frame</title>
<path fill="none" stroke="black" d="M403,-1042.35C403,-1031.26 403,-1019.29 403,-1008.86"/>
<polygon fill="black" stroke="black" points="406.5,-1008.64 403,-998.64 399.5,-1008.64 406.5,-1008.64"/>
</g>
<!-- out_original_frames -->
<g id="node14" class="node">
<title>out_original_frames</title>
<path fill="none" stroke="black" d="M630,-1102.02C630,-1104.66 613.42,-1106.8 593,-1106.8 572.58,-1106.8 556,-1104.66 556,-1102.02 556,-1102.02 556,-1059.07 556,-1059.07 556,-1056.44 572.58,-1054.3 593,-1054.3 613.42,-1054.3 630,-1056.44 630,-1059.07 630,-1059.07 630,-1102.02 630,-1102.02"/>
<path fill="none" stroke="black" d="M630,-1102.02C630,-1099.39 613.42,-1097.25 593,-1097.25 572.58,-1097.25 556,-1099.39 556,-1102.02"/>
<text text-anchor="middle" x="593" y="-1084.35" font-family="Times,serif" font-size="14.00">Original</text>
<text text-anchor="middle" x="593" y="-1069.35" font-family="Times,serif" font-size="14.00">frames</text>
</g>
<!-- split_video&#45;&gt;out_original_frames -->
<g id="edge4" class="edge">
<title>split_video&#45;&gt;out_original_frames</title>
<path fill="none" stroke="black" d="M496.52,-1080.55C512.85,-1080.55 529.18,-1080.55 545.52,-1080.55"/>
<polygon fill="black" stroke="black" points="545.69,-1084.05 555.69,-1080.55 545.69,-1077.05 545.69,-1084.05"/>
</g>
<!-- start_position -->
<g id="node4" class="node">
<title>start_position</title>
<polygon fill="none" stroke="black" points="471,-916.3 335,-916.3 335,-878.3 471,-878.3 471,-916.3"/>
<text text-anchor="middle" x="403" y="-901.1" font-family="Times,serif" font-size="14.00">Select pixelation</text>
<text text-anchor="middle" x="403" y="-886.1" font-family="Times,serif" font-size="14.00">start position</text>
</g>
<!-- start_frame&#45;&gt;start_position -->
<g id="edge8" class="edge">
<title>start_frame&#45;&gt;start_position</title>
<path fill="none" stroke="black" d="M403,-960.24C403,-950.3 403,-937.77 403,-926.59"/>
<polygon fill="black" stroke="black" points="406.5,-926.41 403,-916.41 399.5,-926.41 406.5,-926.41"/>
</g>
<!-- out_start_frame -->
<g id="node15" class="node">
<title>out_start_frame</title>
<polygon fill="none" stroke="black" points="582,-997.42 488,-997.42 488,-961.42 588,-961.42 588,-991.42 582,-997.42"/>
<polyline fill="none" stroke="black" points="582,-997.42 582,-991.42 "/>
<polyline fill="none" stroke="black" points="588,-991.42 582,-991.42 "/>
<text text-anchor="middle" x="538" y="-975.72" font-family="Times,serif" font-size="14.00">Start frame</text>
</g>
<!-- start_frame&#45;&gt;out_start_frame -->
<g id="edge7" class="edge">
<title>start_frame&#45;&gt;out_start_frame</title>
<path fill="none" stroke="black" d="M452.04,-979.42C460.65,-979.42 469.26,-979.42 477.87,-979.42"/>
<polygon fill="black" stroke="black" points="477.97,-982.92 487.97,-979.42 477.97,-975.92 477.97,-982.92"/>
</g>
<!-- end_frame -->
<g id="node5" class="node">
<title>end_frame</title>
<polygon fill="none" stroke="black" points="447.5,-834.17 358.5,-834.17 358.5,-796.17 447.5,-796.17 447.5,-834.17"/>
<text text-anchor="middle" x="403" y="-818.97" font-family="Times,serif" font-size="14.00">Select</text>
<text text-anchor="middle" x="403" y="-803.97" font-family="Times,serif" font-size="14.00">end frame</text>
</g>
<!-- start_position&#45;&gt;end_frame -->
<g id="edge11" class="edge">
<title>start_position&#45;&gt;end_frame</title>
<path fill="none" stroke="black" d="M403,-878.11C403,-868.18 403,-855.65 403,-844.46"/>
<polygon fill="black" stroke="black" points="406.5,-844.28 403,-834.28 399.5,-844.28 406.5,-844.28"/>
</g>
<!-- out_start_position -->
<g id="node18" class="node">
<title>out_start_position</title>
<polygon fill="none" stroke="black" points="615.5,-915.3 506.5,-915.3 506.5,-879.3 621.5,-879.3 621.5,-909.3 615.5,-915.3"/>
<polyline fill="none" stroke="black" points="615.5,-915.3 615.5,-909.3 "/>
<polyline fill="none" stroke="black" points="621.5,-909.3 615.5,-909.3 "/>
<text text-anchor="middle" x="564" y="-893.6" font-family="Times,serif" font-size="14.00">Start position</text>
</g>
<!-- start_position&#45;&gt;out_start_position -->
<g id="edge10" class="edge">
<title>start_position&#45;&gt;out_start_position</title>
<path fill="none" stroke="black" d="M471.24,-897.3C479.57,-897.3 487.9,-897.3 496.22,-897.3"/>
<polygon fill="black" stroke="black" points="496.39,-900.8 506.39,-897.3 496.39,-893.8 496.39,-900.8"/>
</g>
<!-- end_position -->
<g id="node6" class="node">
<title>end_position</title>
<polygon fill="none" stroke="black" points="471,-752.05 335,-752.05 335,-714.05 471,-714.05 471,-752.05"/>
<text text-anchor="middle" x="403" y="-736.85" font-family="Times,serif" font-size="14.00">Select pixelation</text>
<text text-anchor="middle" x="403" y="-721.85" font-family="Times,serif" font-size="14.00">end position</text>
</g>
<!-- end_frame&#45;&gt;end_position -->
<g id="edge15" class="edge">
<title>end_frame&#45;&gt;end_position</title>
<path fill="none" stroke="black" d="M403,-795.99C403,-786.05 403,-773.52 403,-762.34"/>
<polygon fill="black" stroke="black" points="406.5,-762.16 403,-752.16 399.5,-762.16 406.5,-762.16"/>
</g>
<!-- out_end_frame -->
<g id="node19" class="node">
<title>out_end_frame</title>
<polygon fill="none" stroke="black" points="569,-833.17 483,-833.17 483,-797.17 575,-797.17 575,-827.17 569,-833.17"/>
<polyline fill="none" stroke="black" points="569,-833.17 569,-827.17 "/>
<polyline fill="none" stroke="black" points="575,-827.17 569,-827.17 "/>
<text text-anchor="middle" x="529" y="-811.47" font-family="Times,serif" font-size="14.00">End frame</text>
</g>
<!-- end_frame&#45;&gt;out_end_frame -->
<g id="edge14" class="edge">
<title>end_frame&#45;&gt;out_end_frame</title>
<path fill="none" stroke="black" d="M447.79,-815.17C456.06,-815.17 464.33,-815.17 472.6,-815.17"/>
<polygon fill="black" stroke="black" points="472.68,-818.67 482.68,-815.17 472.68,-811.67 472.68,-818.67"/>
</g>
<!-- apply_pixelation -->
<g id="node7" class="node">
<title>apply_pixelation</title>
<polygon fill="none" stroke="black" points="510.64,-677.05 339.41,-677.05 295.36,-601.05 466.59,-601.05 510.64,-677.05"/>
<text text-anchor="middle" x="403" y="-642.85" font-family="Times,serif" font-size="14.00">Pixelate</text>
<text text-anchor="middle" x="403" y="-627.85" font-family="Times,serif" font-size="14.00">frame range</text>
</g>
<!-- end_position&#45;&gt;apply_pixelation -->
<g id="edge18" class="edge">
<title>end_position&#45;&gt;apply_pixelation</title>
<path fill="none" stroke="black" d="M403,-713.87C403,-706.18 403,-696.83 403,-687.4"/>
<polygon fill="black" stroke="black" points="406.5,-687.21 403,-677.21 399.5,-687.21 406.5,-687.21"/>
</g>
<!-- out_end_position -->
<g id="node21" class="node">
<title>out_end_position</title>
<polygon fill="none" stroke="black" points="607.5,-751.05 506.5,-751.05 506.5,-715.05 613.5,-715.05 613.5,-745.05 607.5,-751.05"/>
<polyline fill="none" stroke="black" points="607.5,-751.05 607.5,-745.05 "/>
<polyline fill="none" stroke="black" points="613.5,-745.05 607.5,-745.05 "/>
<text text-anchor="middle" x="560" y="-729.35" font-family="Times,serif" font-size="14.00">End position</text>
</g>
<!-- end_position&#45;&gt;out_end_position -->
<g id="edge17" class="edge">
<title>end_position&#45;&gt;out_end_position</title>
<path fill="none" stroke="black" d="M471.07,-733.05C479.39,-733.05 487.7,-733.05 496.02,-733.05"/>
<polygon fill="black" stroke="black" points="496.16,-736.55 506.16,-733.05 496.16,-729.55 496.16,-736.55"/>
</g>
<!-- decision_show_preview -->
<g id="node9" class="node">
<title>decision_show_preview</title>
<polygon fill="none" stroke="black" points="403,-564.05 322,-526.05 403,-488.05 484,-526.05 403,-564.05"/>
<text text-anchor="middle" x="403" y="-529.85" font-family="Times,serif" font-size="14.00">Show</text>
<text text-anchor="middle" x="403" y="-514.85" font-family="Times,serif" font-size="14.00">preview?</text>
</g>
<!-- apply_pixelation&#45;&gt;decision_show_preview -->
<g id="edge22" class="edge">
<title>apply_pixelation&#45;&gt;decision_show_preview</title>
<path fill="none" stroke="black" d="M403,-600.78C403,-592.36 403,-583.31 403,-574.53"/>
<polygon fill="black" stroke="black" points="406.5,-574.41 403,-564.41 399.5,-574.41 406.5,-574.41"/>
</g>
<!-- out_modified_frames -->
<g id="node26" class="node">
<title>out_modified_frames</title>
<path fill="none" stroke="black" d="M626,-660.52C626,-663.16 608.07,-665.3 586,-665.3 563.93,-665.3 546,-663.16 546,-660.52 546,-660.52 546,-617.57 546,-617.57 546,-614.94 563.93,-612.8 586,-612.8 608.07,-612.8 626,-614.94 626,-617.57 626,-617.57 626,-660.52 626,-660.52"/>
<path fill="none" stroke="black" d="M626,-660.52C626,-657.89 608.07,-655.75 586,-655.75 563.93,-655.75 546,-657.89 546,-660.52"/>
<text text-anchor="middle" x="586" y="-642.85" font-family="Times,serif" font-size="14.00">Modified</text>
<text text-anchor="middle" x="586" y="-627.85" font-family="Times,serif" font-size="14.00">frames</text>
</g>
<!-- apply_pixelation&#45;&gt;out_modified_frames -->
<g id="edge21" class="edge">
<title>apply_pixelation&#45;&gt;out_modified_frames</title>
<path fill="none" stroke="black" d="M488.78,-639.05C504.36,-639.05 519.93,-639.05 535.51,-639.05"/>
<polygon fill="black" stroke="black" points="535.75,-642.55 545.75,-639.05 535.75,-635.55 535.75,-642.55"/>
</g>
<!-- show_preview -->
<g id="node8" class="node">
<title>show_preview</title>
<polygon fill="none" stroke="black" points="413.5,-419.61 296.5,-419.61 296.5,-381.61 413.5,-381.61 413.5,-419.61"/>
<text text-anchor="middle" x="355" y="-404.41" font-family="Times,serif" font-size="14.00">Show preview</text>
<text text-anchor="middle" x="355" y="-389.41" font-family="Times,serif" font-size="14.00">as flip book</text>
</g>
<!-- set_save_params -->
<g id="node10" class="node">
<title>set_save_params</title>
<polygon fill="none" stroke="black" points="451.5,-327.17 352.5,-327.17 352.5,-289.17 451.5,-289.17 451.5,-327.17"/>
<text text-anchor="middle" x="402" y="-311.97" font-family="Times,serif" font-size="14.00">Set save</text>
<text text-anchor="middle" x="402" y="-296.97" font-family="Times,serif" font-size="14.00">parameters</text>
</g>
<!-- show_preview&#45;&gt;set_save_params -->
<g id="edge25" class="edge">
<title>show_preview&#45;&gt;set_save_params</title>
<path fill="none" stroke="black" d="M364.51,-381.31C371.2,-368.44 380.27,-350.99 387.81,-336.48"/>
<polygon fill="black" stroke="black" points="391,-337.93 392.5,-327.45 384.79,-334.7 391,-337.93"/>
</g>
<!-- decision_show_preview&#45;&gt;show_preview -->
<g id="edge23" class="edge">
<title>decision_show_preview&#45;&gt;show_preview</title>
<path fill="none" stroke="black" d="M390.76,-493.58C383.01,-473.63 373.07,-448.07 365.64,-428.97"/>
<polygon fill="black" stroke="black" points="368.89,-427.68 362.01,-419.63 362.37,-430.22 368.89,-427.68"/>
<text text-anchor="middle" x="393.5" y="-458.85" font-family="Times,serif" font-size="14.00">yes</text>
</g>
<!-- decision_show_preview&#45;&gt;set_save_params -->
<g id="edge26" class="edge">
<title>decision_show_preview&#45;&gt;set_save_params</title>
<path fill="none" stroke="black" d="M412.46,-492.23C420.55,-459.6 429.76,-408.21 422,-364.17 420.39,-355.04 417.39,-345.42 414.19,-336.84"/>
<polygon fill="black" stroke="black" points="417.35,-335.32 410.41,-327.31 410.84,-337.9 417.35,-335.32"/>
<text text-anchor="middle" x="434" y="-396.91" font-family="Times,serif" font-size="14.00">no</text>
</g>
<!-- save_video -->
<g id="node11" class="node">
<title>save_video</title>
<polygon fill="none" stroke="black" points="492.56,-233.73 348.5,-233.73 311.44,-197.73 455.5,-197.73 492.56,-233.73"/>
<text text-anchor="middle" x="402" y="-212.03" font-family="Times,serif" font-size="14.00">Save Video</text>
</g>
<!-- set_save_params&#45;&gt;save_video -->
<g id="edge27" class="edge">
<title>set_save_params&#45;&gt;save_video</title>
<path fill="none" stroke="black" d="M402,-288.87C402,-276.04 402,-258.66 402,-244.17"/>
<polygon fill="black" stroke="black" points="405.5,-243.78 402,-233.78 398.5,-243.78 405.5,-243.78"/>
</g>
<!-- quit -->
<g id="node12" class="node">
<title>quit</title>
<polygon fill="none" stroke="black" points="429,-125.65 375,-125.65 375,-89.65 429,-89.65 429,-125.65"/>
<text text-anchor="middle" x="402" y="-103.95" font-family="Times,serif" font-size="14.00">Quit</text>
</g>
<!-- save_video&#45;&gt;quit -->
<g id="edge31" class="edge">
<title>save_video&#45;&gt;quit</title>
<path fill="none" stroke="black" d="M402,-197.69C402,-180.99 402,-155.26 402,-135.75"/>
<polygon fill="black" stroke="black" points="405.5,-135.65 402,-125.65 398.5,-135.65 405.5,-135.65"/>
</g>
<!-- out_result_video -->
<g id="node30" class="node">
<title>out_result_video</title>
<path fill="none" stroke="black" d="M590,-237.21C590,-239.85 576.11,-241.98 559,-241.98 541.89,-241.98 528,-239.85 528,-237.21 528,-237.21 528,-194.26 528,-194.26 528,-191.62 541.89,-189.48 559,-189.48 576.11,-189.48 590,-191.62 590,-194.26 590,-194.26 590,-237.21 590,-237.21"/>
<path fill="none" stroke="black" d="M590,-237.21C590,-234.58 576.11,-232.44 559,-232.44 541.89,-232.44 528,-234.58 528,-237.21"/>
<text text-anchor="middle" x="559" y="-219.53" font-family="Times,serif" font-size="14.00">Result</text>
<text text-anchor="middle" x="559" y="-204.53" font-family="Times,serif" font-size="14.00">video</text>
</g>
<!-- save_video&#45;&gt;out_result_video -->
<g id="edge30" class="edge">
<title>save_video&#45;&gt;out_result_video</title>
<path fill="none" stroke="black" d="M474.06,-215.73C488.62,-215.73 503.18,-215.73 517.73,-215.73"/>
<polygon fill="black" stroke="black" points="517.81,-219.23 527.81,-215.73 517.81,-212.23 517.81,-219.23"/>
</g>
<!-- Finish -->
<g id="node34" class="node">
<title>Finish</title>
<ellipse fill="none" stroke="black" cx="402" cy="-18" rx="39.79" ry="18"/>
<text text-anchor="middle" x="402" y="-14.3" font-family="Times,serif" font-size="14.00">Finish</text>
</g>
<!-- quit&#45;&gt;Finish -->
<g id="edge34" class="edge">
<title>quit&#45;&gt;Finish</title>
<path fill="none" stroke="black" d="M402,-89.33C402,-77.09 402,-60.42 402,-46.38"/>
<polygon fill="black" stroke="black" points="405.5,-46.28 402,-36.28 398.5,-46.28 405.5,-46.28"/>
</g>
<!-- in_original_video -->
<g id="node13" class="node">
<title>in_original_video</title>
<path fill="none" stroke="black" d="M250,-1102.02C250,-1104.66 233.42,-1106.8 213,-1106.8 192.58,-1106.8 176,-1104.66 176,-1102.02 176,-1102.02 176,-1059.07 176,-1059.07 176,-1056.44 192.58,-1054.3 213,-1054.3 233.42,-1054.3 250,-1056.44 250,-1059.07 250,-1059.07 250,-1102.02 250,-1102.02"/>
<path fill="none" stroke="black" d="M250,-1102.02C250,-1099.39 233.42,-1097.25 213,-1097.25 192.58,-1097.25 176,-1099.39 176,-1102.02"/>
<text text-anchor="middle" x="213" y="-1084.35" font-family="Times,serif" font-size="14.00">Original</text>
<text text-anchor="middle" x="213" y="-1069.35" font-family="Times,serif" font-size="14.00">video</text>
</g>
<!-- in_original_video&#45;&gt;split_video -->
<g id="edge3" class="edge">
<title>in_original_video&#45;&gt;split_video</title>
<path fill="none" stroke="black" d="M250.11,-1080.55C266.51,-1080.55 282.92,-1080.55 299.32,-1080.55"/>
<polygon fill="black" stroke="black" points="299.53,-1084.05 309.53,-1080.55 299.53,-1077.05 299.53,-1084.05"/>
</g>
<!-- in_start_frame_1 -->
<g id="node16" class="node">
<title>in_start_frame_1</title>
<polygon fill="none" stroke="black" points="293,-915.3 199,-915.3 199,-879.3 299,-879.3 299,-909.3 293,-915.3"/>
<polyline fill="none" stroke="black" points="293,-915.3 293,-909.3 "/>
<polyline fill="none" stroke="black" points="299,-909.3 293,-909.3 "/>
<text text-anchor="middle" x="249" y="-893.6" font-family="Times,serif" font-size="14.00">Start frame</text>
</g>
<!-- in_start_frame_1&#45;&gt;start_position -->
<g id="edge9" class="edge">
<title>in_start_frame_1&#45;&gt;start_position</title>
<path fill="none" stroke="black" d="M299.23,-897.3C307.78,-897.3 316.32,-897.3 324.87,-897.3"/>
<polygon fill="black" stroke="black" points="324.9,-900.8 334.9,-897.3 324.9,-893.8 324.9,-900.8"/>
</g>
<!-- in_start_frame_2 -->
<g id="node17" class="node">
<title>in_start_frame_2</title>
<polygon fill="none" stroke="black" points="317,-833.17 223,-833.17 223,-797.17 323,-797.17 323,-827.17 317,-833.17"/>
<polyline fill="none" stroke="black" points="317,-833.17 317,-827.17 "/>
<polyline fill="none" stroke="black" points="323,-827.17 317,-827.17 "/>
<text text-anchor="middle" x="273" y="-811.47" font-family="Times,serif" font-size="14.00">Start frame</text>
</g>
<!-- in_start_frame_2&#45;&gt;end_frame -->
<g id="edge13" class="edge">
<title>in_start_frame_2&#45;&gt;end_frame</title>
<path fill="none" stroke="black" d="M323.02,-815.17C331.39,-815.17 339.75,-815.17 348.12,-815.17"/>
<polygon fill="black" stroke="black" points="348.32,-818.67 358.32,-815.17 348.32,-811.67 348.32,-818.67"/>
</g>
<!-- in_end_frame -->
<g id="node20" class="node">
<title>in_end_frame</title>
<polygon fill="none" stroke="black" points="293,-751.05 207,-751.05 207,-715.05 299,-715.05 299,-745.05 293,-751.05"/>
<polyline fill="none" stroke="black" points="293,-751.05 293,-745.05 "/>
<polyline fill="none" stroke="black" points="299,-745.05 293,-745.05 "/>
<text text-anchor="middle" x="253" y="-729.35" font-family="Times,serif" font-size="14.00">End frame</text>
</g>
<!-- in_end_frame&#45;&gt;end_position -->
<g id="edge16" class="edge">
<title>in_end_frame&#45;&gt;end_position</title>
<path fill="none" stroke="black" d="M299.29,-733.05C307.83,-733.05 316.37,-733.05 324.91,-733.05"/>
<polygon fill="black" stroke="black" points="324.94,-736.55 334.94,-733.05 324.94,-729.55 324.94,-736.55"/>
</g>
<!-- in_frames_and_positions -->
<g id="node22" class="node">
<title>in_frames_and_positions</title>
<polygon fill="none" stroke="black" points="253.5,-673.05 144.5,-673.05 144.5,-605.05 259.5,-605.05 259.5,-667.05 253.5,-673.05"/>
<polyline fill="none" stroke="black" points="253.5,-673.05 253.5,-667.05 "/>
<polyline fill="none" stroke="black" points="259.5,-667.05 253.5,-667.05 "/>
<text text-anchor="middle" x="202" y="-657.85" font-family="Times,serif" font-size="14.00">Start frame</text>
<text text-anchor="middle" x="202" y="-642.85" font-family="Times,serif" font-size="14.00">Start position</text>
<text text-anchor="middle" x="202" y="-627.85" font-family="Times,serif" font-size="14.00">End frame</text>
<text text-anchor="middle" x="202" y="-612.85" font-family="Times,serif" font-size="14.00">End position</text>
</g>
<!-- in_frames_and_positions&#45;&gt;apply_pixelation -->
<g id="edge20" class="edge">
<title>in_frames_and_positions&#45;&gt;apply_pixelation</title>
<path fill="none" stroke="black" d="M259.71,-639.05C275.47,-639.05 291.24,-639.05 307,-639.05"/>
<polygon fill="black" stroke="black" points="307.36,-642.55 317.36,-639.05 307.36,-635.55 307.36,-642.55"/>
</g>
<!-- in_original_frames_1 -->
<g id="node23" class="node">
<title>in_original_frames_1</title>
<path fill="none" stroke="black" d="M318,-1000.9C318,-1003.53 301.42,-1005.67 281,-1005.67 260.58,-1005.67 244,-1003.53 244,-1000.9 244,-1000.9 244,-957.94 244,-957.94 244,-955.31 260.58,-953.17 281,-953.17 301.42,-953.17 318,-955.31 318,-957.94 318,-957.94 318,-1000.9 318,-1000.9"/>
<path fill="none" stroke="black" d="M318,-1000.9C318,-998.27 301.42,-996.13 281,-996.13 260.58,-996.13 244,-998.27 244,-1000.9"/>
<text text-anchor="middle" x="281" y="-983.22" font-family="Times,serif" font-size="14.00">Original</text>
<text text-anchor="middle" x="281" y="-968.22" font-family="Times,serif" font-size="14.00">frames</text>
</g>
<!-- in_original_frames_1&#45;&gt;start_frame -->
<g id="edge6" class="edge">
<title>in_original_frames_1&#45;&gt;start_frame</title>
<path fill="none" stroke="black" d="M318.17,-979.42C326.75,-979.42 335.32,-979.42 343.89,-979.42"/>
<polygon fill="black" stroke="black" points="343.96,-982.92 353.96,-979.42 343.96,-975.92 343.96,-982.92"/>
</g>
<!-- in_original_frames_2 -->
<g id="node24" class="node">
<title>in_original_frames_2</title>
<path fill="none" stroke="black" d="M187,-836.65C187,-839.28 170.42,-841.42 150,-841.42 129.58,-841.42 113,-839.28 113,-836.65 113,-836.65 113,-793.69 113,-793.69 113,-791.06 129.58,-788.92 150,-788.92 170.42,-788.92 187,-791.06 187,-793.69 187,-793.69 187,-836.65 187,-836.65"/>
<path fill="none" stroke="black" d="M187,-836.65C187,-834.02 170.42,-831.88 150,-831.88 129.58,-831.88 113,-834.02 113,-836.65"/>
<text text-anchor="middle" x="150" y="-818.97" font-family="Times,serif" font-size="14.00">Original</text>
<text text-anchor="middle" x="150" y="-803.97" font-family="Times,serif" font-size="14.00">frames</text>
</g>
<!-- in_original_frames_2&#45;&gt;in_start_frame_2 -->
<g id="edge12" class="edge">
<title>in_original_frames_2&#45;&gt;in_start_frame_2</title>
<path fill="none" stroke="black" d="M187.48,-815.17C195.87,-815.17 204.26,-815.17 212.65,-815.17"/>
<polygon fill="black" stroke="black" points="212.89,-818.67 222.89,-815.17 212.89,-811.67 212.89,-818.67"/>
</g>
<!-- in_original_frames_3 -->
<g id="node25" class="node">
<title>in_original_frames_3</title>
<path fill="none" stroke="black" d="M109,-660.52C109,-663.16 92.42,-665.3 72,-665.3 51.58,-665.3 35,-663.16 35,-660.52 35,-660.52 35,-617.57 35,-617.57 35,-614.94 51.58,-612.8 72,-612.8 92.42,-612.8 109,-614.94 109,-617.57 109,-617.57 109,-660.52 109,-660.52"/>
<path fill="none" stroke="black" d="M109,-660.52C109,-657.89 92.42,-655.75 72,-655.75 51.58,-655.75 35,-657.89 35,-660.52"/>
<text text-anchor="middle" x="72" y="-642.85" font-family="Times,serif" font-size="14.00">Original</text>
<text text-anchor="middle" x="72" y="-627.85" font-family="Times,serif" font-size="14.00">frames</text>
</g>
<!-- in_original_frames_3&#45;&gt;in_frames_and_positions -->
<g id="edge19" class="edge">
<title>in_original_frames_3&#45;&gt;in_frames_and_positions</title>
<path fill="none" stroke="black" d="M109.07,-639.05C117.41,-639.05 125.76,-639.05 134.1,-639.05"/>
<polygon fill="black" stroke="black" points="134.28,-642.55 144.28,-639.05 134.28,-635.55 134.28,-642.55"/>
</g>
<!-- in_modified_frames_1 -->
<g id="node27" class="node">
<title>in_modified_frames_1</title>
<path fill="none" stroke="black" d="M261,-430.37C261,-434.02 232.31,-436.98 197,-436.98 161.69,-436.98 133,-434.02 133,-430.37 133,-430.37 133,-370.85 133,-370.85 133,-367.2 161.69,-364.23 197,-364.23 232.31,-364.23 261,-367.2 261,-370.85 261,-370.85 261,-430.37 261,-430.37"/>
<path fill="none" stroke="black" d="M261,-430.37C261,-426.72 232.31,-423.76 197,-423.76 161.69,-423.76 133,-426.72 133,-430.37"/>
<text text-anchor="middle" x="197" y="-411.91" font-family="Times,serif" font-size="14.00">Unchanged and</text>
<text text-anchor="middle" x="197" y="-396.91" font-family="Times,serif" font-size="14.00">modified</text>
<text text-anchor="middle" x="197" y="-381.91" font-family="Times,serif" font-size="14.00">frames</text>
</g>
<!-- in_modified_frames_1&#45;&gt;show_preview -->
<g id="edge24" class="edge">
<title>in_modified_frames_1&#45;&gt;show_preview</title>
<path fill="none" stroke="black" d="M261.19,-400.61C269.52,-400.61 277.86,-400.61 286.2,-400.61"/>
<polygon fill="black" stroke="black" points="286.37,-404.11 296.37,-400.61 286.37,-397.11 286.37,-404.11"/>
</g>
<!-- in_modified_frames_2 -->
<g id="node28" class="node">
<title>in_modified_frames_2</title>
<path fill="none" stroke="black" d="M128,-245.5C128,-249.14 99.31,-252.11 64,-252.11 28.69,-252.11 0,-249.14 0,-245.5 0,-245.5 0,-185.97 0,-185.97 0,-182.32 28.69,-179.36 64,-179.36 99.31,-179.36 128,-182.32 128,-185.97 128,-185.97 128,-245.5 128,-245.5"/>
<path fill="none" stroke="black" d="M128,-245.5C128,-241.85 99.31,-238.88 64,-238.88 28.69,-238.88 0,-241.85 0,-245.5"/>
<text text-anchor="middle" x="64" y="-227.03" font-family="Times,serif" font-size="14.00">Unchanged and</text>
<text text-anchor="middle" x="64" y="-212.03" font-family="Times,serif" font-size="14.00">modified</text>
<text text-anchor="middle" x="64" y="-197.03" font-family="Times,serif" font-size="14.00">frames</text>
</g>
<!-- in_modified_frames_2&#45;&gt;save_video -->
<g id="edge29" class="edge">
<title>in_modified_frames_2&#45;&gt;save_video</title>
<path fill="none" stroke="black" d="M107.09,-251.42C118.99,-259.31 132.39,-266.53 146,-270.67 200.85,-287.35 218.86,-282.29 275,-270.67 305.25,-264.41 337.15,-250.58 361.41,-238.36"/>
<polygon fill="black" stroke="black" points="363.03,-241.47 370.31,-233.78 359.82,-235.24 363.03,-241.47"/>
</g>
<!-- in_original_audio_stream -->
<g id="node29" class="node">
<title>in_original_audio_stream</title>
<path fill="none" stroke="black" stroke-dasharray="1,5" d="M275.5,-245.5C275.5,-249.14 246.59,-252.11 211,-252.11 175.41,-252.11 146.5,-249.14 146.5,-245.5 146.5,-245.5 146.5,-185.97 146.5,-185.97 146.5,-182.32 175.41,-179.36 211,-179.36 246.59,-179.36 275.5,-182.32 275.5,-185.97 275.5,-185.97 275.5,-245.5 275.5,-245.5"/>
<path fill="none" stroke="black" stroke-dasharray="1,5" d="M275.5,-245.5C275.5,-241.85 246.59,-238.88 211,-238.88 175.41,-238.88 146.5,-241.85 146.5,-245.5"/>
<text text-anchor="middle" x="211" y="-227.03" font-family="Times,serif" font-size="14.00">Original video’s</text>
<text text-anchor="middle" x="211" y="-212.03" font-family="Times,serif" font-size="14.00">audio stream(s)</text>
<text text-anchor="middle" x="211" y="-197.03" font-family="Times,serif" font-size="14.00">if avaiable</text>
</g>
<!-- in_original_audio_stream&#45;&gt;save_video -->
<g id="edge28" class="edge">
<title>in_original_audio_stream&#45;&gt;save_video</title>
<path fill="none" stroke="black" stroke-dasharray="1,5" d="M275.54,-215.73C290.25,-215.73 304.97,-215.73 319.69,-215.73"/>
<polygon fill="black" stroke="black" points="319.88,-219.23 329.88,-215.73 319.88,-212.23 319.88,-219.23"/>
</g>
<!-- anytime_load -->
<g id="node31" class="node">
<title>anytime_load</title>
<ellipse fill="none" stroke="black" cx="285" cy="-1190.19" rx="34.8" ry="34.8"/>
<text text-anchor="middle" x="285" y="-1193.99" font-family="Times,serif" font-size="14.00">any</text>
<text text-anchor="middle" x="285" y="-1178.99" font-family="Times,serif" font-size="14.00">time</text>
</g>
<!-- anytime_load&#45;&gt;load_video -->
<g id="edge32" class="edge">
<title>anytime_load&#45;&gt;load_video</title>
<path fill="none" stroke="black" d="M320.03,-1190.19C328.4,-1190.19 336.77,-1190.19 345.15,-1190.19"/>
<polygon fill="black" stroke="black" points="345.36,-1193.69 355.36,-1190.19 345.36,-1186.69 345.36,-1193.69"/>
</g>
<!-- anytime_quit -->
<g id="node32" class="node">
<title>anytime_quit</title>
<ellipse fill="none" stroke="black" cx="305" cy="-107.65" rx="34.8" ry="34.8"/>
<text text-anchor="middle" x="305" y="-111.45" font-family="Times,serif" font-size="14.00">any</text>
<text text-anchor="middle" x="305" y="-96.45" font-family="Times,serif" font-size="14.00">time</text>
</g>
<!-- anytime_quit&#45;&gt;quit -->
<g id="edge33" class="edge">
<title>anytime_quit&#45;&gt;quit</title>
<path fill="none" stroke="black" d="M339.86,-107.65C348.14,-107.65 356.43,-107.65 364.71,-107.65"/>
<polygon fill="black" stroke="black" points="364.81,-111.15 374.81,-107.65 364.81,-104.15 364.81,-111.15"/>
</g>
<!-- Start -->
<g id="node33" class="node">
<title>Start</title>
<ellipse fill="none" stroke="black" cx="403" cy="-1279.84" rx="34.39" ry="18"/>
<text text-anchor="middle" x="403" y="-1276.14" font-family="Times,serif" font-size="14.00">Start</text>
</g>
<!-- Start&#45;&gt;load_video -->
<g id="edge1" class="edge">
<title>Start&#45;&gt;load_video</title>
<path fill="none" stroke="black" d="M403,-1261.53C403,-1249.28 403,-1232.61 403,-1218.58"/>
<polygon fill="black" stroke="black" points="406.5,-1218.48 403,-1208.48 399.5,-1218.48 406.5,-1218.48"/>
</g>
</g>
</svg>
