<?xml version="1.0" encoding="UTF-8" standalone="no"?>
<!DOCTYPE svg PUBLIC "-//W3C//DTD SVG 1.1//EN"
 "http://www.w3.org/Graphics/SVG/1.1/DTD/svg11.dtd">
<!-- Generated by graphviz version 2.43.0 (0)
 -->
<!-- Title: pixelate&#45;videos generic workflow (v0.8+) Pages: 1 -->
<svg width="743pt" height="1576pt"
 viewBox="0.00 0.00 743.00 1576.37" xmlns="http://www.w3.org/2000/svg" xmlns:xlink="http://www.w3.org/1999/xlink">
<g id="graph0" class="graph" transform="scale(1 1) rotate(0) translate(4 1572.37)">
<title>pixelate&#45;videos generic workflow (v0.8+)</title>
<polygon fill="white" stroke="transparent" points="-4,4 -4,-1572.37 739,-1572.37 739,4 -4,4"/>
<!-- load_video -->
<g id="node1" class="node">
<title>load_video</title>
<polygon fill="none" stroke="black" points="500,-1478.73 406,-1478.73 406,-1442.73 500,-1442.73 500,-1478.73"/>
<text text-anchor="middle" x="453" y="-1457.03" font-family="Times,serif" font-size="14.00">Load video</text>
</g>
<!-- preprocess_video -->
<g id="node2" class="node">
<title>preprocess_video</title>
<ellipse fill="none" stroke="black" cx="453" cy="-1278.06" rx="111.03" ry="111.03"/>
<polyline fill="none" stroke="black" points="526.43,-1361.32 379.57,-1361.32 "/>
<polyline fill="none" stroke="black" points="526.43,-1194.8 379.57,-1194.8 "/>
<text text-anchor="middle" x="453" y="-1304.36" font-family="Times,serif" font-size="14.00">Preprocess video:</text>
<text text-anchor="middle" x="453" y="-1289.36" font-family="Times,serif" font-size="14.00">de&#45;shake if possible</text>
<text text-anchor="middle" x="453" y="-1274.36" font-family="Times,serif" font-size="14.00">and requested,</text>
<text text-anchor="middle" x="453" y="-1259.36" font-family="Times,serif" font-size="14.00">cut if requested,</text>
<text text-anchor="middle" x="453" y="-1244.36" font-family="Times,serif" font-size="14.00">split into frames</text>
</g>
<!-- load_video&#45;&gt;preprocess_video -->
<g id="edge2" class="edge">
<title>load_video&#45;&gt;preprocess_video</title>
<path fill="none" stroke="black" d="M453,-1442.4C453,-1431.4 453,-1416.09 453,-1399.21"/>
<polygon fill="black" stroke="black" points="456.5,-1399.11 453,-1389.11 449.5,-1399.11 456.5,-1399.11"/>
</g>
<!-- new_pixelation -->
<!-- preprocess_video&#45;&gt;new_pixelation -->
<g id="edge5" class="edge">
<title>preprocess_video&#45;&gt;new_pixelation</title>
<path fill="none" stroke="black" d="M453,-1166.75C453,-1149.51 453,-1134.17 453,-1124.35"/>
<polygon fill="black" stroke="black" points="456.5,-1124.14 453,-1114.14 449.5,-1124.14 456.5,-1124.14"/>
</g>
<!-- out_original_frames -->
<g id="node15" class="node">
<title>out_original_frames</title>
<path fill="none" stroke="black" d="M674,-1299.54C674,-1302.17 657.42,-1304.31 637,-1304.31 616.58,-1304.31 600,-1302.17 600,-1299.54 600,-1299.54 600,-1256.58 600,-1256.58 600,-1253.95 616.58,-1251.81 637,-1251.81 657.42,-1251.81 674,-1253.95 674,-1256.58 674,-1256.58 674,-1299.54 674,-1299.54"/>
<path fill="none" stroke="black" d="M674,-1299.54C674,-1296.91 657.42,-1294.77 637,-1294.77 616.58,-1294.77 600,-1296.91 600,-1299.54"/>
<text text-anchor="middle" x="637" y="-1281.86" font-family="Times,serif" font-size="14.00">Original</text>
<text text-anchor="middle" x="637" y="-1266.86" font-family="Times,serif" font-size="14.00">frames</text>
</g>
<!-- preprocess_video&#45;&gt;out_original_frames -->
<g id="edge4" class="edge">
<title>preprocess_video&#45;&gt;out_original_frames</title>
<path fill="none" stroke="black" d="M564.05,-1278.06C572.65,-1278.06 581.25,-1278.06 589.85,-1278.06"/>
<polygon fill="black" stroke="black" points="589.95,-1281.56 599.95,-1278.06 589.95,-1274.56 589.95,-1281.56"/>
</g>
<!-- start_position -->
<g id="node4" class="node">
<title>start_position</title>
<polygon fill="none" stroke="black" points="521,-1057.05 385,-1057.05 385,-1004.05 521,-1004.05 521,-1057.05"/>
<text text-anchor="middle" x="453" y="-1041.85" font-family="Times,serif" font-size="14.00">Select pixelation</text>
<text text-anchor="middle" x="453" y="-1026.85" font-family="Times,serif" font-size="14.00">start frame</text>
<text text-anchor="middle" x="453" y="-1011.85" font-family="Times,serif" font-size="14.00">and position</text>
</g>
<!-- new_pixelation&#45;&gt;start_position -->
<g id="edge7" class="edge">
<title>new_pixelation&#45;&gt;start_position</title>
<path fill="none" stroke="black" d="M453,-1110.15C453,-1105.78 453,-1086.06 453,-1067.47"/>
<polygon fill="black" stroke="black" points="456.5,-1067.36 453,-1057.36 449.5,-1067.36 456.5,-1067.36"/>
</g>
<!-- additional_stop_position -->
<!-- start_position&#45;&gt;additional_stop_position -->
<g id="edge10" class="edge">
<title>start_position&#45;&gt;additional_stop_position</title>
<path fill="none" stroke="black" d="M453,-1003.95C453,-989.66 453,-972.55 453,-961.5"/>
<polygon fill="black" stroke="black" points="456.5,-961.41 453,-951.41 449.5,-961.41 456.5,-961.41"/>
</g>
<!-- out_start_position -->
<g id="node17" class="node">
<title>out_start_position</title>
<polygon fill="none" stroke="black" points="729,-1049.55 557,-1049.55 557,-1011.55 735,-1011.55 735,-1043.55 729,-1049.55"/>
<polyline fill="none" stroke="black" points="729,-1049.55 729,-1043.55 "/>
<polyline fill="none" stroke="black" points="735,-1043.55 729,-1043.55 "/>
<text text-anchor="middle" x="646" y="-1034.35" font-family="Times,serif" font-size="14.00">Start frame + position</text>
<text text-anchor="middle" x="646" y="-1019.35" font-family="Times,serif" font-size="14.00">Crop area</text>
</g>
<!-- start_position&#45;&gt;out_start_position -->
<g id="edge9" class="edge">
<title>start_position&#45;&gt;out_start_position</title>
<path fill="none" stroke="black" d="M521.23,-1030.55C529.75,-1030.55 538.28,-1030.55 546.8,-1030.55"/>
<polygon fill="black" stroke="black" points="546.81,-1034.05 556.81,-1030.55 546.81,-1027.05 546.81,-1034.05"/>
</g>
<!-- stop_position -->
<g id="node6" class="node">
<title>stop_position</title>
<polygon fill="none" stroke="black" points="521,-894.05 385,-894.05 385,-841.05 521,-841.05 521,-894.05"/>
<text text-anchor="middle" x="453" y="-878.85" font-family="Times,serif" font-size="14.00">Select pixelation</text>
<text text-anchor="middle" x="453" y="-863.85" font-family="Times,serif" font-size="14.00">stop frame</text>
<text text-anchor="middle" x="453" y="-848.85" font-family="Times,serif" font-size="14.00">and position</text>
</g>
<!-- additional_stop_position&#45;&gt;stop_position -->
<g id="edge12" class="edge">
<title>additional_stop_position&#45;&gt;stop_position</title>
<path fill="none" stroke="black" d="M453,-947.15C453,-942.78 453,-923.06 453,-904.47"/>
<polygon fill="black" stroke="black" points="456.5,-904.36 453,-894.36 449.5,-904.36 456.5,-904.36"/>
</g>
<!-- add_stop_position -->
<g id="node7" class="node">
<title>add_stop_position</title>
<polygon fill="none" stroke="black" points="453,-804.05 349,-766.05 453,-728.05 557,-766.05 453,-804.05"/>
<text text-anchor="middle" x="453" y="-769.85" font-family="Times,serif" font-size="14.00">Add another</text>
<text text-anchor="middle" x="453" y="-754.85" font-family="Times,serif" font-size="14.00">stop?</text>
</g>
<!-- stop_position&#45;&gt;add_stop_position -->
<g id="edge16" class="edge">
<title>stop_position&#45;&gt;add_stop_position</title>
<path fill="none" stroke="black" d="M453,-840.92C453,-832.81 453,-823.56 453,-814.42"/>
<polygon fill="black" stroke="black" points="456.5,-814.21 453,-804.21 449.5,-814.21 456.5,-814.21"/>
</g>
<!-- out_stop_position -->
<g id="node18" class="node">
<title>out_stop_position</title>
<polygon fill="none" stroke="black" points="725,-886.55 557,-886.55 557,-848.55 731,-848.55 731,-880.55 725,-886.55"/>
<polyline fill="none" stroke="black" points="725,-886.55 725,-880.55 "/>
<polyline fill="none" stroke="black" points="731,-880.55 725,-880.55 "/>
<text text-anchor="middle" x="644" y="-871.35" font-family="Times,serif" font-size="14.00">Stop frame + position</text>
<text text-anchor="middle" x="644" y="-856.35" font-family="Times,serif" font-size="14.00">Crop area</text>
</g>
<!-- stop_position&#45;&gt;out_stop_position -->
<g id="edge15" class="edge">
<title>stop_position&#45;&gt;out_stop_position</title>
<path fill="none" stroke="black" d="M521.27,-867.55C529.67,-867.55 538.08,-867.55 546.49,-867.55"/>
<polygon fill="black" stroke="black" points="546.74,-871.05 556.74,-867.55 546.74,-864.05 546.74,-871.05"/>
</g>
<!-- apply_pixelation -->
<g id="node8" class="node">
<title>apply_pixelation</title>
<polygon fill="none" stroke="black" points="560.64,-677.05 389.41,-677.05 345.36,-601.05 516.59,-601.05 560.64,-677.05"/>
<text text-anchor="middle" x="453" y="-642.85" font-family="Times,serif" font-size="14.00">Pixelate</text>
<text text-anchor="middle" x="453" y="-627.85" font-family="Times,serif" font-size="14.00">frame range</text>
</g>
<!-- add_stop_position&#45;&gt;apply_pixelation -->
<g id="edge18" class="edge">
<title>add_stop_position&#45;&gt;apply_pixelation</title>
<path fill="none" stroke="black" d="M453,-727.88C453,-715.15 453,-700.73 453,-687.31"/>
<polygon fill="black" stroke="black" points="456.5,-687.28 453,-677.28 449.5,-687.28 456.5,-687.28"/>
<text text-anchor="middle" x="462" y="-698.85" font-family="Times,serif" font-size="14.00">no</text>
</g>
<!-- additional_station_2 -->
<g id="node35" class="node">
<title>additional_station_2</title>
<ellipse fill="none" stroke="black" cx="618" cy="-766.05" rx="18" ry="18"/>
<text text-anchor="middle" x="618" y="-762.35" font-family="Times,serif" font-size="14.00">C</text>
</g>
<!-- add_stop_position&#45;&gt;additional_station_2 -->
<g id="edge17" class="edge">
<title>add_stop_position&#45;&gt;additional_station_2</title>
<path fill="none" stroke="black" d="M557.03,-766.05C568.87,-766.05 580.07,-766.05 589.57,-766.05"/>
<polygon fill="black" stroke="black" points="589.87,-769.55 599.87,-766.05 589.87,-762.55 589.87,-769.55"/>
<text text-anchor="middle" x="578.5" y="-772.85" font-family="Times,serif" font-size="14.00">yes</text>
</g>
<!-- show_preview -->
<g id="node9" class="node">
<title>show_preview</title>
<polygon fill="none" stroke="black" points="511.5,-546.61 394.5,-546.61 394.5,-508.61 511.5,-508.61 511.5,-546.61"/>
<text text-anchor="middle" x="453" y="-531.41" font-family="Times,serif" font-size="14.00">Show preview</text>
<text text-anchor="middle" x="453" y="-516.41" font-family="Times,serif" font-size="14.00">as a flip book</text>
</g>
<!-- apply_pixelation&#45;&gt;show_preview -->
<g id="edge22" class="edge">
<title>apply_pixelation&#45;&gt;show_preview</title>
<path fill="none" stroke="black" d="M453,-601C453,-586.61 453,-570.4 453,-556.97"/>
<polygon fill="black" stroke="black" points="456.5,-556.89 453,-546.89 449.5,-556.89 456.5,-556.89"/>
</g>
<!-- out_modified_frames -->
<g id="node23" class="node">
<title>out_modified_frames</title>
<path fill="none" stroke="black" d="M676,-660.52C676,-663.16 658.07,-665.3 636,-665.3 613.93,-665.3 596,-663.16 596,-660.52 596,-660.52 596,-617.57 596,-617.57 596,-614.94 613.93,-612.8 636,-612.8 658.07,-612.8 676,-614.94 676,-617.57 676,-617.57 676,-660.52 676,-660.52"/>
<path fill="none" stroke="black" d="M676,-660.52C676,-657.89 658.07,-655.75 636,-655.75 613.93,-655.75 596,-657.89 596,-660.52"/>
<text text-anchor="middle" x="636" y="-642.85" font-family="Times,serif" font-size="14.00">Modified</text>
<text text-anchor="middle" x="636" y="-627.85" font-family="Times,serif" font-size="14.00">frames</text>
</g>
<!-- apply_pixelation&#45;&gt;out_modified_frames -->
<g id="edge21" class="edge">
<title>apply_pixelation&#45;&gt;out_modified_frames</title>
<path fill="none" stroke="black" d="M538.78,-639.05C554.36,-639.05 569.93,-639.05 585.51,-639.05"/>
<polygon fill="black" stroke="black" points="585.75,-642.55 595.75,-639.05 585.75,-635.55 585.75,-642.55"/>
</g>
<!-- add_pixelation -->
<g id="node10" class="node">
<title>add_pixelation</title>
<polygon fill="none" stroke="black" points="453,-454.17 349,-416.17 453,-378.17 557,-416.17 453,-454.17"/>
<text text-anchor="middle" x="453" y="-419.97" font-family="Times,serif" font-size="14.00">Add another</text>
<text text-anchor="middle" x="453" y="-404.97" font-family="Times,serif" font-size="14.00">pixelation?</text>
</g>
<!-- show_preview&#45;&gt;add_pixelation -->
<g id="edge25" class="edge">
<title>show_preview&#45;&gt;add_pixelation</title>
<path fill="none" stroke="black" d="M453,-508.54C453,-496.49 453,-480.04 453,-464.43"/>
<polygon fill="black" stroke="black" points="456.5,-464.34 453,-454.34 449.5,-464.34 456.5,-464.34"/>
</g>
<!-- out_crop_area -->
<g id="node25" class="node">
<title>out_crop_area</title>
<polygon fill="none" stroke="black" points="628.5,-545.61 547.5,-545.61 547.5,-509.61 634.5,-509.61 634.5,-539.61 628.5,-545.61"/>
<polyline fill="none" stroke="black" points="628.5,-545.61 628.5,-539.61 "/>
<polyline fill="none" stroke="black" points="634.5,-539.61 628.5,-539.61 "/>
<text text-anchor="middle" x="591" y="-523.91" font-family="Times,serif" font-size="14.00">Crop area</text>
</g>
<!-- show_preview&#45;&gt;out_crop_area -->
<g id="edge24" class="edge">
<title>show_preview&#45;&gt;out_crop_area</title>
<path fill="none" stroke="black" d="M511.76,-527.61C520.29,-527.61 528.81,-527.61 537.34,-527.61"/>
<polygon fill="black" stroke="black" points="537.35,-531.11 547.35,-527.61 537.35,-524.11 537.35,-531.11"/>
</g>
<!-- set_save_params -->
<g id="node11" class="node">
<title>set_save_params</title>
<polygon fill="none" stroke="black" points="502.5,-327.17 403.5,-327.17 403.5,-289.17 502.5,-289.17 502.5,-327.17"/>
<text text-anchor="middle" x="453" y="-311.97" font-family="Times,serif" font-size="14.00">Set save</text>
<text text-anchor="middle" x="453" y="-296.97" font-family="Times,serif" font-size="14.00">parameters</text>
</g>
<!-- add_pixelation&#45;&gt;set_save_params -->
<g id="edge27" class="edge">
<title>add_pixelation&#45;&gt;set_save_params</title>
<path fill="none" stroke="black" d="M453,-378.1C453,-364.8 453,-350.03 453,-337.58"/>
<polygon fill="black" stroke="black" points="456.5,-337.33 453,-327.33 449.5,-337.33 456.5,-337.33"/>
<text text-anchor="middle" x="462" y="-348.97" font-family="Times,serif" font-size="14.00">no</text>
</g>
<!-- additional_pixelation_2 -->
<g id="node33" class="node">
<title>additional_pixelation_2</title>
<ellipse fill="none" stroke="black" cx="618" cy="-416.17" rx="18" ry="18"/>
<text text-anchor="middle" x="618" y="-412.47" font-family="Times,serif" font-size="14.00">B</text>
</g>
<!-- add_pixelation&#45;&gt;additional_pixelation_2 -->
<g id="edge26" class="edge">
<title>add_pixelation&#45;&gt;additional_pixelation_2</title>
<path fill="none" stroke="black" d="M557.03,-416.17C568.87,-416.17 580.07,-416.17 589.57,-416.17"/>
<polygon fill="black" stroke="black" points="589.87,-419.67 599.87,-416.17 589.87,-412.67 589.87,-419.67"/>
<text text-anchor="middle" x="578.5" y="-422.97" font-family="Times,serif" font-size="14.00">yes</text>
</g>
<!-- save_video -->
<g id="node12" class="node">
<title>save_video</title>
<polygon fill="none" stroke="black" points="574.95,-233.73 380.95,-233.73 331.05,-197.73 525.05,-197.73 574.95,-233.73"/>
<text text-anchor="middle" x="453" y="-212.03" font-family="Times,serif" font-size="14.00">Assemble video</text>
</g>
<!-- set_save_params&#45;&gt;save_video -->
<g id="edge29" class="edge">
<title>set_save_params&#45;&gt;save_video</title>
<path fill="none" stroke="black" d="M453,-288.87C453,-276.04 453,-258.66 453,-244.17"/>
<polygon fill="black" stroke="black" points="456.5,-243.78 453,-233.78 449.5,-243.78 456.5,-243.78"/>
</g>
<!-- quit -->
<g id="node13" class="node">
<title>quit</title>
<polygon fill="none" stroke="black" points="480,-125.65 426,-125.65 426,-89.65 480,-89.65 480,-125.65"/>
<text text-anchor="middle" x="453" y="-103.95" font-family="Times,serif" font-size="14.00">Quit</text>
</g>
<!-- save_video&#45;&gt;quit -->
<g id="edge33" class="edge">
<title>save_video&#45;&gt;quit</title>
<path fill="none" stroke="black" d="M453,-197.69C453,-180.99 453,-155.26 453,-135.75"/>
<polygon fill="black" stroke="black" points="456.5,-135.65 453,-125.65 449.5,-135.65 456.5,-135.65"/>
</g>
<!-- out_result_video -->
<g id="node29" class="node">
<title>out_result_video</title>
<path fill="none" stroke="black" d="M672,-237.21C672,-239.85 658.11,-241.98 641,-241.98 623.89,-241.98 610,-239.85 610,-237.21 610,-237.21 610,-194.26 610,-194.26 610,-191.62 623.89,-189.48 641,-189.48 658.11,-189.48 672,-191.62 672,-194.26 672,-194.26 672,-237.21 672,-237.21"/>
<path fill="none" stroke="black" d="M672,-237.21C672,-234.58 658.11,-232.44 641,-232.44 623.89,-232.44 610,-234.58 610,-237.21"/>
<text text-anchor="middle" x="641" y="-219.53" font-family="Times,serif" font-size="14.00">Result</text>
<text text-anchor="middle" x="641" y="-204.53" font-family="Times,serif" font-size="14.00">video</text>
</g>
<!-- save_video&#45;&gt;out_result_video -->
<g id="edge32" class="edge">
<title>save_video&#45;&gt;out_result_video</title>
<path fill="none" stroke="black" d="M550.3,-215.73C566.73,-215.73 583.16,-215.73 599.59,-215.73"/>
<polygon fill="black" stroke="black" points="599.82,-219.23 609.82,-215.73 599.82,-212.23 599.82,-219.23"/>
</g>
<!-- Finish -->
<g id="node37" class="node">
<title>Finish</title>
<ellipse fill="none" stroke="black" cx="453" cy="-18" rx="39.79" ry="18"/>
<text text-anchor="middle" x="453" y="-14.3" font-family="Times,serif" font-size="14.00">Finish</text>
</g>
<!-- quit&#45;&gt;Finish -->
<g id="edge36" class="edge">
<title>quit&#45;&gt;Finish</title>
<path fill="none" stroke="black" d="M453,-89.33C453,-77.09 453,-60.42 453,-46.38"/>
<polygon fill="black" stroke="black" points="456.5,-46.28 453,-36.28 449.5,-46.28 456.5,-46.28"/>
</g>
<!-- in_original_video -->
<g id="node14" class="node">
<title>in_original_video</title>
<path fill="none" stroke="black" d="M306,-1299.54C306,-1302.17 289.42,-1304.31 269,-1304.31 248.58,-1304.31 232,-1302.17 232,-1299.54 232,-1299.54 232,-1256.58 232,-1256.58 232,-1253.95 248.58,-1251.81 269,-1251.81 289.42,-1251.81 306,-1253.95 306,-1256.58 306,-1256.58 306,-1299.54 306,-1299.54"/>
<path fill="none" stroke="black" d="M306,-1299.54C306,-1296.91 289.42,-1294.77 269,-1294.77 248.58,-1294.77 232,-1296.91 232,-1299.54"/>
<text text-anchor="middle" x="269" y="-1281.86" font-family="Times,serif" font-size="14.00">Original</text>
<text text-anchor="middle" x="269" y="-1266.86" font-family="Times,serif" font-size="14.00">video</text>
</g>
<!-- in_original_video&#45;&gt;preprocess_video -->
<g id="edge3" class="edge">
<title>in_original_video&#45;&gt;preprocess_video</title>
<path fill="none" stroke="black" d="M306.02,-1278.06C314.61,-1278.06 323.21,-1278.06 331.81,-1278.06"/>
<polygon fill="black" stroke="black" points="331.9,-1281.56 341.9,-1278.06 331.9,-1274.56 331.9,-1281.56"/>
</g>
<!-- in_start_frame -->
<g id="node16" class="node">
<title>in_start_frame</title>
<polygon fill="none" stroke="black" points="343,-885.55 249,-885.55 249,-849.55 349,-849.55 349,-879.55 343,-885.55"/>
<polyline fill="none" stroke="black" points="343,-885.55 343,-879.55 "/>
<polyline fill="none" stroke="black" points="349,-879.55 343,-879.55 "/>
<text text-anchor="middle" x="299" y="-863.85" font-family="Times,serif" font-size="14.00">Start frame</text>
</g>
<!-- in_start_frame&#45;&gt;stop_position -->
<g id="edge14" class="edge">
<title>in_start_frame&#45;&gt;stop_position</title>
<path fill="none" stroke="black" d="M349.23,-867.55C357.78,-867.55 366.32,-867.55 374.87,-867.55"/>
<polygon fill="black" stroke="black" points="374.9,-871.05 384.9,-867.55 374.9,-864.05 374.9,-871.05"/>
</g>
<!-- in_frames_and_positions -->
<g id="node19" class="node">
<title>in_frames_and_positions</title>
<polygon fill="none" stroke="black" points="304,-673.05 110,-673.05 110,-605.05 310,-605.05 310,-667.05 304,-673.05"/>
<polyline fill="none" stroke="black" points="304,-673.05 304,-667.05 "/>
<polyline fill="none" stroke="black" points="310,-667.05 304,-667.05 "/>
<text text-anchor="middle" x="210" y="-657.85" font-family="Times,serif" font-size="14.00">Start frame + position</text>
<text text-anchor="middle" x="210" y="-642.85" font-family="Times,serif" font-size="14.00">Stop #1 frame + position</text>
<text text-anchor="middle" x="210" y="-627.85" font-family="Times,serif" font-size="14.00">...</text>
<text text-anchor="middle" x="210" y="-612.85" font-family="Times,serif" font-size="14.00">Stop #n frame + position</text>
</g>
<!-- in_frames_and_positions&#45;&gt;apply_pixelation -->
<g id="edge20" class="edge">
<title>in_frames_and_positions&#45;&gt;apply_pixelation</title>
<path fill="none" stroke="black" d="M310.14,-639.05C325.78,-639.05 341.42,-639.05 357.06,-639.05"/>
<polygon fill="black" stroke="black" points="357.34,-642.55 367.34,-639.05 357.34,-635.55 357.34,-642.55"/>
</g>
<!-- in_original_frames_1 -->
<g id="node20" class="node">
<title>in_original_frames_1</title>
<path fill="none" stroke="black" d="M349,-1052.02C349,-1054.66 332.42,-1056.8 312,-1056.8 291.58,-1056.8 275,-1054.66 275,-1052.02 275,-1052.02 275,-1009.07 275,-1009.07 275,-1006.44 291.58,-1004.3 312,-1004.3 332.42,-1004.3 349,-1006.44 349,-1009.07 349,-1009.07 349,-1052.02 349,-1052.02"/>
<path fill="none" stroke="black" d="M349,-1052.02C349,-1049.39 332.42,-1047.25 312,-1047.25 291.58,-1047.25 275,-1049.39 275,-1052.02"/>
<text text-anchor="middle" x="312" y="-1034.35" font-family="Times,serif" font-size="14.00">Original</text>
<text text-anchor="middle" x="312" y="-1019.35" font-family="Times,serif" font-size="14.00">frames</text>
</g>
<!-- in_original_frames_1&#45;&gt;start_position -->
<g id="edge8" class="edge">
<title>in_original_frames_1&#45;&gt;start_position</title>
<path fill="none" stroke="black" d="M349.18,-1030.55C357.73,-1030.55 366.28,-1030.55 374.83,-1030.55"/>
<polygon fill="black" stroke="black" points="374.87,-1034.05 384.87,-1030.55 374.87,-1027.05 374.87,-1034.05"/>
</g>
<!-- in_original_frames_2 -->
<g id="node21" class="node">
<title>in_original_frames_2</title>
<path fill="none" stroke="black" d="M213,-889.02C213,-891.66 196.42,-893.8 176,-893.8 155.58,-893.8 139,-891.66 139,-889.02 139,-889.02 139,-846.07 139,-846.07 139,-843.44 155.58,-841.3 176,-841.3 196.42,-841.3 213,-843.44 213,-846.07 213,-846.07 213,-889.02 213,-889.02"/>
<path fill="none" stroke="black" d="M213,-889.02C213,-886.39 196.42,-884.25 176,-884.25 155.58,-884.25 139,-886.39 139,-889.02"/>
<text text-anchor="middle" x="176" y="-871.35" font-family="Times,serif" font-size="14.00">Original</text>
<text text-anchor="middle" x="176" y="-856.35" font-family="Times,serif" font-size="14.00">frames</text>
</g>
<!-- in_original_frames_2&#45;&gt;in_start_frame -->
<g id="edge13" class="edge">
<title>in_original_frames_2&#45;&gt;in_start_frame</title>
<path fill="none" stroke="black" d="M213.48,-867.55C221.87,-867.55 230.26,-867.55 238.65,-867.55"/>
<polygon fill="black" stroke="black" points="238.89,-871.05 248.89,-867.55 238.89,-864.05 238.89,-871.05"/>
</g>
<!-- in_original_frames_3 -->
<g id="node22" class="node">
<title>in_original_frames_3</title>
<path fill="none" stroke="black" d="M74,-660.52C74,-663.16 57.42,-665.3 37,-665.3 16.58,-665.3 0,-663.16 0,-660.52 0,-660.52 0,-617.57 0,-617.57 0,-614.94 16.58,-612.8 37,-612.8 57.42,-612.8 74,-614.94 74,-617.57 74,-617.57 74,-660.52 74,-660.52"/>
<path fill="none" stroke="black" d="M74,-660.52C74,-657.89 57.42,-655.75 37,-655.75 16.58,-655.75 0,-657.89 0,-660.52"/>
<text text-anchor="middle" x="37" y="-642.85" font-family="Times,serif" font-size="14.00">Original</text>
<text text-anchor="middle" x="37" y="-627.85" font-family="Times,serif" font-size="14.00">frames</text>
</g>
<!-- in_original_frames_3&#45;&gt;in_frames_and_positions -->
<g id="edge19" class="edge">
<title>in_original_frames_3&#45;&gt;in_frames_and_positions</title>
<path fill="none" stroke="black" d="M74.17,-639.05C82.75,-639.05 91.33,-639.05 99.91,-639.05"/>
<polygon fill="black" stroke="black" points="99.98,-642.55 109.98,-639.05 99.98,-635.55 99.98,-642.55"/>
</g>
<!-- in_modified_frames_1 -->
<g id="node24" class="node">
<title>in_modified_frames_1</title>
<path fill="none" stroke="black" d="M359,-557.37C359,-561.02 330.31,-563.98 295,-563.98 259.69,-563.98 231,-561.02 231,-557.37 231,-557.37 231,-497.85 231,-497.85 231,-494.2 259.69,-491.23 295,-491.23 330.31,-491.23 359,-494.2 359,-497.85 359,-497.85 359,-557.37 359,-557.37"/>
<path fill="none" stroke="black" d="M359,-557.37C359,-553.72 330.31,-550.76 295,-550.76 259.69,-550.76 231,-553.72 231,-557.37"/>
<text text-anchor="middle" x="295" y="-538.91" font-family="Times,serif" font-size="14.00">Unchanged and</text>
<text text-anchor="middle" x="295" y="-523.91" font-family="Times,serif" font-size="14.00">modified</text>
<text text-anchor="middle" x="295" y="-508.91" font-family="Times,serif" font-size="14.00">frames</text>
</g>
<!-- in_modified_frames_1&#45;&gt;show_preview -->
<g id="edge23" class="edge">
<title>in_modified_frames_1&#45;&gt;show_preview</title>
<path fill="none" stroke="black" d="M359.19,-527.61C367.52,-527.61 375.86,-527.61 384.2,-527.61"/>
<polygon fill="black" stroke="black" points="384.37,-531.11 394.37,-527.61 384.37,-524.11 384.37,-531.11"/>
</g>
<!-- in_crop_area -->
<g id="node26" class="node">
<title>in_crop_area</title>
<polygon fill="none" stroke="black" points="361.5,-326.17 280.5,-326.17 280.5,-290.17 367.5,-290.17 367.5,-320.17 361.5,-326.17"/>
<polyline fill="none" stroke="black" points="361.5,-326.17 361.5,-320.17 "/>
<polyline fill="none" stroke="black" points="367.5,-320.17 361.5,-320.17 "/>
<text text-anchor="middle" x="324" y="-304.47" font-family="Times,serif" font-size="14.00">Crop area</text>
</g>
<!-- in_crop_area&#45;&gt;set_save_params -->
<g id="edge28" class="edge">
<title>in_crop_area&#45;&gt;set_save_params</title>
<path fill="none" stroke="black" d="M367.59,-308.17C376.14,-308.17 384.69,-308.17 393.25,-308.17"/>
<polygon fill="black" stroke="black" points="393.29,-311.67 403.29,-308.17 393.29,-304.67 393.29,-311.67"/>
</g>
<!-- in_modified_frames_2 -->
<g id="node27" class="node">
<title>in_modified_frames_2</title>
<path fill="none" stroke="black" d="M296,-245.5C296,-249.14 267.31,-252.11 232,-252.11 196.69,-252.11 168,-249.14 168,-245.5 168,-245.5 168,-185.97 168,-185.97 168,-182.32 196.69,-179.36 232,-179.36 267.31,-179.36 296,-182.32 296,-185.97 296,-185.97 296,-245.5 296,-245.5"/>
<path fill="none" stroke="black" d="M296,-245.5C296,-241.85 267.31,-238.88 232,-238.88 196.69,-238.88 168,-241.85 168,-245.5"/>
<text text-anchor="middle" x="232" y="-227.03" font-family="Times,serif" font-size="14.00">Unchanged and</text>
<text text-anchor="middle" x="232" y="-212.03" font-family="Times,serif" font-size="14.00">modified</text>
<text text-anchor="middle" x="232" y="-197.03" font-family="Times,serif" font-size="14.00">frames</text>
</g>
<!-- in_modified_frames_2&#45;&gt;save_video -->
<g id="edge31" class="edge">
<title>in_modified_frames_2&#45;&gt;save_video</title>
<path fill="none" stroke="black" d="M296.31,-215.73C312.79,-215.73 329.26,-215.73 345.73,-215.73"/>
<polygon fill="black" stroke="black" points="345.99,-219.23 355.99,-215.73 345.99,-212.23 345.99,-219.23"/>
</g>
<!-- in_original_audio_stream -->
<g id="node28" class="node">
<title>in_original_audio_stream</title>
<path fill="none" stroke="black" stroke-dasharray="1,5" d="M132.5,-245.5C132.5,-249.14 103.59,-252.11 68,-252.11 32.41,-252.11 3.5,-249.14 3.5,-245.5 3.5,-245.5 3.5,-185.97 3.5,-185.97 3.5,-182.32 32.41,-179.36 68,-179.36 103.59,-179.36 132.5,-182.32 132.5,-185.97 132.5,-185.97 132.5,-245.5 132.5,-245.5"/>
<path fill="none" stroke="black" stroke-dasharray="1,5" d="M132.5,-245.5C132.5,-241.85 103.59,-238.88 68,-238.88 32.41,-238.88 3.5,-241.85 3.5,-245.5"/>
<text text-anchor="middle" x="68" y="-227.03" font-family="Times,serif" font-size="14.00">Original video’s</text>
<text text-anchor="middle" x="68" y="-212.03" font-family="Times,serif" font-size="14.00">audio stream(s)</text>
<text text-anchor="middle" x="68" y="-197.03" font-family="Times,serif" font-size="14.00">if avaiable</text>
</g>
<!-- in_original_audio_stream&#45;&gt;in_modified_frames_2 -->
<g id="edge30" class="edge">
<title>in_original_audio_stream&#45;&gt;in_modified_frames_2</title>
<path fill="none" stroke="black" stroke-dasharray="1,5" d="M132.7,-215.73C140.98,-215.73 149.25,-215.73 157.52,-215.73"/>
<polygon fill="black" stroke="black" points="157.61,-219.23 167.61,-215.73 157.61,-212.23 157.61,-219.23"/>
</g>
<!-- anytime_load -->
<g id="node30" class="node">
<title>anytime_load</title>
<ellipse fill="none" stroke="black" cx="336" cy="-1460.73" rx="34.8" ry="34.8"/>
<text text-anchor="middle" x="336" y="-1464.53" font-family="Times,serif" font-size="14.00">any</text>
<text text-anchor="middle" x="336" y="-1449.53" font-family="Times,serif" font-size="14.00">time</text>
</g>
<!-- anytime_load&#45;&gt;load_video -->
<g id="edge34" class="edge">
<title>anytime_load&#45;&gt;load_video</title>
<path fill="none" stroke="black" d="M370.73,-1460.73C379.04,-1460.73 387.34,-1460.73 395.64,-1460.73"/>
<polygon fill="black" stroke="black" points="395.76,-1464.23 405.76,-1460.73 395.76,-1457.23 395.76,-1464.23"/>
</g>
<!-- anytime_quit -->
<g id="node31" class="node">
<title>anytime_quit</title>
<ellipse fill="none" stroke="black" cx="356" cy="-107.65" rx="34.8" ry="34.8"/>
<text text-anchor="middle" x="356" y="-111.45" font-family="Times,serif" font-size="14.00">any</text>
<text text-anchor="middle" x="356" y="-96.45" font-family="Times,serif" font-size="14.00">time</text>
</g>
<!-- anytime_quit&#45;&gt;quit -->
<g id="edge35" class="edge">
<title>anytime_quit&#45;&gt;quit</title>
<path fill="none" stroke="black" d="M390.86,-107.65C399.14,-107.65 407.43,-107.65 415.71,-107.65"/>
<polygon fill="black" stroke="black" points="415.81,-111.15 425.81,-107.65 415.81,-104.15 415.81,-111.15"/>
</g>
<!-- additional_pixelation_1 -->
<g id="node32" class="node">
<title>additional_pixelation_1</title>
<ellipse fill="none" stroke="black" cx="398" cy="-1112.05" rx="18" ry="18"/>
<text text-anchor="middle" x="398" y="-1108.35" font-family="Times,serif" font-size="14.00">B</text>
</g>
<!-- additional_pixelation_1&#45;&gt;new_pixelation -->
<g id="edge6" class="edge">
<title>additional_pixelation_1&#45;&gt;new_pixelation</title>
<path fill="none" stroke="black" d="M416.05,-1112.05C424.33,-1112.05 432.6,-1112.05 440.88,-1112.05"/>
<polygon fill="black" stroke="black" points="440.98,-1115.55 450.98,-1112.05 440.98,-1108.55 440.98,-1115.55"/>
</g>
<!-- additional_station_1 -->
<g id="node34" class="node">
<title>additional_station_1</title>
<ellipse fill="none" stroke="black" cx="398" cy="-949.05" rx="18" ry="18"/>
<text text-anchor="middle" x="398" y="-945.35" font-family="Times,serif" font-size="14.00">C</text>
</g>
<!-- additional_station_1&#45;&gt;additional_stop_position -->
<g id="edge11" class="edge">
<title>additional_station_1&#45;&gt;additional_stop_position</title>
<path fill="none" stroke="black" d="M416.05,-949.05C424.33,-949.05 432.6,-949.05 440.88,-949.05"/>
<polygon fill="black" stroke="black" points="440.98,-952.55 450.98,-949.05 440.98,-945.55 440.98,-952.55"/>
</g>
<!-- Start -->
<g id="node36" class="node">
<title>Start</title>
<ellipse fill="none" stroke="black" cx="453" cy="-1550.37" rx="34.39" ry="18"/>
<text text-anchor="middle" x="453" y="-1546.67" font-family="Times,serif" font-size="14.00">Start</text>
</g>
<!-- Start&#45;&gt;load_video -->
<g id="edge1" class="edge">
<title>Start&#45;&gt;load_video</title>
<path fill="none" stroke="black" d="M453,-1532.06C453,-1519.81 453,-1503.15 453,-1489.11"/>
<polygon fill="black" stroke="black" points="456.5,-1489.01 453,-1479.01 449.5,-1489.01 456.5,-1489.01"/>
</g>
</g>
</svg>
