<?xml version="1.0" encoding="UTF-8" standalone="no"?>
<!DOCTYPE svg PUBLIC "-//W3C//DTD SVG 1.1//EN"
 "http://www.w3.org/Graphics/SVG/1.1/DTD/svg11.dtd">
<!-- Generated by graphviz version 2.43.0 (0)
 -->
<!-- Title: pixelate&#45;videos generic workflow Pages: 1 -->
<svg width="632pt" height="1167pt"
 viewBox="0.00 0.00 632.00 1166.84" xmlns="http://www.w3.org/2000/svg" xmlns:xlink="http://www.w3.org/1999/xlink">
<g id="graph0" class="graph" transform="scale(1 1) rotate(0) translate(4 1162.84)">
<title>pixelate&#45;videos generic workflow</title>
<polygon fill="white" stroke="transparent" points="-4,4 -4,-1162.84 628,-1162.84 628,4 -4,4"/>
<!-- load_video -->
<g id="node1" class="node">
<title>load_video</title>
<polygon fill="none" stroke="black" points="462,-1070.19 368,-1070.19 368,-1034.19 462,-1034.19 462,-1070.19"/>
<text text-anchor="middle" x="415" y="-1048.49" font-family="Times,serif" font-size="14.00">Load video</text>
</g>
<!-- split_video -->
<g id="node2" class="node">
<title>split_video</title>
<polygon fill="none" stroke="black" points="532.31,-981.55 345.7,-981.55 297.69,-905.55 484.3,-905.55 532.31,-981.55"/>
<text text-anchor="middle" x="415" y="-947.35" font-family="Times,serif" font-size="14.00">Split into</text>
<text text-anchor="middle" x="415" y="-932.35" font-family="Times,serif" font-size="14.00">single frames</text>
</g>
<!-- load_video&#45;&gt;split_video -->
<g id="edge2" class="edge">
<title>load_video&#45;&gt;split_video</title>
<path fill="none" stroke="black" d="M415,-1034.06C415,-1022.67 415,-1007.12 415,-992.17"/>
<polygon fill="black" stroke="black" points="418.5,-991.98 415,-981.98 411.5,-991.98 418.5,-991.98"/>
</g>
<!-- start_frame -->
<g id="node3" class="node">
<title>start_frame</title>
<polygon fill="none" stroke="black" points="464,-862.42 366,-862.42 366,-824.42 464,-824.42 464,-862.42"/>
<text text-anchor="middle" x="415" y="-847.22" font-family="Times,serif" font-size="14.00">Select</text>
<text text-anchor="middle" x="415" y="-832.22" font-family="Times,serif" font-size="14.00">start frame</text>
</g>
<!-- split_video&#45;&gt;start_frame -->
<g id="edge5" class="edge">
<title>split_video&#45;&gt;start_frame</title>
<path fill="none" stroke="black" d="M415,-905.45C415,-894.57 415,-882.86 415,-872.64"/>
<polygon fill="black" stroke="black" points="418.5,-872.61 415,-862.61 411.5,-872.61 418.5,-872.61"/>
</g>
<!-- out_original_frames -->
<g id="node13" class="node">
<title>out_original_frames</title>
<path fill="none" stroke="black" d="M624,-965.02C624,-967.66 607.42,-969.8 587,-969.8 566.58,-969.8 550,-967.66 550,-965.02 550,-965.02 550,-922.07 550,-922.07 550,-919.44 566.58,-917.3 587,-917.3 607.42,-917.3 624,-919.44 624,-922.07 624,-922.07 624,-965.02 624,-965.02"/>
<path fill="none" stroke="black" d="M624,-965.02C624,-962.39 607.42,-960.25 587,-960.25 566.58,-960.25 550,-962.39 550,-965.02"/>
<text text-anchor="middle" x="587" y="-947.35" font-family="Times,serif" font-size="14.00">Original</text>
<text text-anchor="middle" x="587" y="-932.35" font-family="Times,serif" font-size="14.00">frames</text>
</g>
<!-- split_video&#45;&gt;out_original_frames -->
<g id="edge4" class="edge">
<title>split_video&#45;&gt;out_original_frames</title>
<path fill="none" stroke="black" d="M508.39,-943.55C518.86,-943.55 529.33,-943.55 539.81,-943.55"/>
<polygon fill="black" stroke="black" points="539.84,-947.05 549.84,-943.55 539.84,-940.05 539.84,-947.05"/>
</g>
<!-- start_position -->
<g id="node4" class="node">
<title>start_position</title>
<polygon fill="none" stroke="black" points="483,-781.3 347,-781.3 347,-743.3 483,-743.3 483,-781.3"/>
<text text-anchor="middle" x="415" y="-766.1" font-family="Times,serif" font-size="14.00">Select pixelation</text>
<text text-anchor="middle" x="415" y="-751.1" font-family="Times,serif" font-size="14.00">start position</text>
</g>
<!-- start_frame&#45;&gt;start_position -->
<g id="edge8" class="edge">
<title>start_frame&#45;&gt;start_position</title>
<path fill="none" stroke="black" d="M415,-824.07C415,-814.48 415,-802.54 415,-791.78"/>
<polygon fill="black" stroke="black" points="418.5,-791.55 415,-781.55 411.5,-791.55 418.5,-791.55"/>
</g>
<!-- out_start_frame -->
<g id="node14" class="node">
<title>out_start_frame</title>
<polygon fill="none" stroke="black" points="576,-861.42 482,-861.42 482,-825.42 582,-825.42 582,-855.42 576,-861.42"/>
<polyline fill="none" stroke="black" points="576,-861.42 576,-855.42 "/>
<polyline fill="none" stroke="black" points="582,-855.42 576,-855.42 "/>
<text text-anchor="middle" x="532" y="-839.72" font-family="Times,serif" font-size="14.00">Start frame</text>
</g>
<!-- start_frame&#45;&gt;out_start_frame -->
<g id="edge7" class="edge">
<title>start_frame&#45;&gt;out_start_frame</title>
<path fill="none" stroke="black" d="M464.36,-843.42C466.81,-843.42 469.26,-843.42 471.72,-843.42"/>
<polygon fill="black" stroke="black" points="471.8,-846.92 481.8,-843.42 471.8,-839.92 471.8,-846.92"/>
</g>
<!-- end_frame -->
<g id="node5" class="node">
<title>end_frame</title>
<polygon fill="none" stroke="black" points="459.5,-700.17 370.5,-700.17 370.5,-662.17 459.5,-662.17 459.5,-700.17"/>
<text text-anchor="middle" x="415" y="-684.97" font-family="Times,serif" font-size="14.00">Select</text>
<text text-anchor="middle" x="415" y="-669.97" font-family="Times,serif" font-size="14.00">end frame</text>
</g>
<!-- start_position&#45;&gt;end_frame -->
<g id="edge11" class="edge">
<title>start_position&#45;&gt;end_frame</title>
<path fill="none" stroke="black" d="M415,-742.94C415,-733.36 415,-721.41 415,-710.65"/>
<polygon fill="black" stroke="black" points="418.5,-710.42 415,-700.42 411.5,-710.42 418.5,-710.42"/>
</g>
<!-- out_start_position -->
<g id="node17" class="node">
<title>out_start_position</title>
<polygon fill="none" stroke="black" points="610.5,-780.3 501.5,-780.3 501.5,-744.3 616.5,-744.3 616.5,-774.3 610.5,-780.3"/>
<polyline fill="none" stroke="black" points="610.5,-780.3 610.5,-774.3 "/>
<polyline fill="none" stroke="black" points="616.5,-774.3 610.5,-774.3 "/>
<text text-anchor="middle" x="559" y="-758.6" font-family="Times,serif" font-size="14.00">Start position</text>
</g>
<!-- start_position&#45;&gt;out_start_position -->
<g id="edge10" class="edge">
<title>start_position&#45;&gt;out_start_position</title>
<path fill="none" stroke="black" d="M483.06,-762.3C485.84,-762.3 488.62,-762.3 491.4,-762.3"/>
<polygon fill="black" stroke="black" points="491.45,-765.8 501.45,-762.3 491.45,-758.8 491.45,-765.8"/>
</g>
<!-- end_position -->
<g id="node6" class="node">
<title>end_position</title>
<polygon fill="none" stroke="black" points="483,-619.05 347,-619.05 347,-581.05 483,-581.05 483,-619.05"/>
<text text-anchor="middle" x="415" y="-603.85" font-family="Times,serif" font-size="14.00">Select pixelation</text>
<text text-anchor="middle" x="415" y="-588.85" font-family="Times,serif" font-size="14.00">end position</text>
</g>
<!-- end_frame&#45;&gt;end_position -->
<g id="edge15" class="edge">
<title>end_frame&#45;&gt;end_position</title>
<path fill="none" stroke="black" d="M415,-661.82C415,-652.23 415,-640.29 415,-629.53"/>
<polygon fill="black" stroke="black" points="418.5,-629.3 415,-619.3 411.5,-629.3 418.5,-629.3"/>
</g>
<!-- out_end_frame -->
<g id="node18" class="node">
<title>out_end_frame</title>
<polygon fill="none" stroke="black" points="564,-699.17 478,-699.17 478,-663.17 570,-663.17 570,-693.17 564,-699.17"/>
<polyline fill="none" stroke="black" points="564,-699.17 564,-693.17 "/>
<polyline fill="none" stroke="black" points="570,-693.17 564,-693.17 "/>
<text text-anchor="middle" x="524" y="-677.47" font-family="Times,serif" font-size="14.00">End frame</text>
</g>
<!-- end_frame&#45;&gt;out_end_frame -->
<g id="edge14" class="edge">
<title>end_frame&#45;&gt;out_end_frame</title>
<path fill="none" stroke="black" d="M459.71,-681.17C462.34,-681.17 464.98,-681.17 467.62,-681.17"/>
<polygon fill="black" stroke="black" points="467.79,-684.67 477.79,-681.17 467.79,-677.67 467.79,-684.67"/>
</g>
<!-- apply_pixelation -->
<g id="node7" class="node">
<title>apply_pixelation</title>
<polygon fill="none" stroke="black" points="522.64,-545.05 351.41,-545.05 307.36,-469.05 478.59,-469.05 522.64,-545.05"/>
<text text-anchor="middle" x="415" y="-510.85" font-family="Times,serif" font-size="14.00">Pixelate</text>
<text text-anchor="middle" x="415" y="-495.85" font-family="Times,serif" font-size="14.00">frame range</text>
</g>
<!-- end_position&#45;&gt;apply_pixelation -->
<g id="edge18" class="edge">
<title>end_position&#45;&gt;apply_pixelation</title>
<path fill="none" stroke="black" d="M415,-580.63C415,-573.24 415,-564.34 415,-555.35"/>
<polygon fill="black" stroke="black" points="418.5,-555.23 415,-545.23 411.5,-555.23 418.5,-555.23"/>
</g>
<!-- out_end_position -->
<g id="node20" class="node">
<title>out_end_position</title>
<polygon fill="none" stroke="black" points="602.5,-618.05 501.5,-618.05 501.5,-582.05 608.5,-582.05 608.5,-612.05 602.5,-618.05"/>
<polyline fill="none" stroke="black" points="602.5,-618.05 602.5,-612.05 "/>
<polyline fill="none" stroke="black" points="608.5,-612.05 602.5,-612.05 "/>
<text text-anchor="middle" x="555" y="-596.35" font-family="Times,serif" font-size="14.00">End position</text>
</g>
<!-- end_position&#45;&gt;out_end_position -->
<g id="edge17" class="edge">
<title>end_position&#45;&gt;out_end_position</title>
<path fill="none" stroke="black" d="M483.09,-600.05C485.75,-600.05 488.41,-600.05 491.07,-600.05"/>
<polygon fill="black" stroke="black" points="491.35,-603.55 501.35,-600.05 491.35,-596.55 491.35,-603.55"/>
</g>
<!-- show_preview -->
<g id="node8" class="node">
<title>show_preview</title>
<polygon fill="none" stroke="black" points="473.5,-415.61 356.5,-415.61 356.5,-377.61 473.5,-377.61 473.5,-415.61"/>
<text text-anchor="middle" x="415" y="-400.41" font-family="Times,serif" font-size="14.00">Show preview</text>
<text text-anchor="middle" x="415" y="-385.41" font-family="Times,serif" font-size="14.00">as a flip book</text>
</g>
<!-- apply_pixelation&#45;&gt;show_preview -->
<g id="edge22" class="edge">
<title>apply_pixelation&#45;&gt;show_preview</title>
<path fill="none" stroke="black" d="M415,-469.03C415,-454.94 415,-439.12 415,-425.95"/>
<polygon fill="black" stroke="black" points="418.5,-425.62 415,-415.62 411.5,-425.62 418.5,-425.62"/>
</g>
<!-- out_modified_frames -->
<g id="node25" class="node">
<title>out_modified_frames</title>
<path fill="none" stroke="black" d="M621,-528.52C621,-531.16 603.07,-533.3 581,-533.3 558.93,-533.3 541,-531.16 541,-528.52 541,-528.52 541,-485.57 541,-485.57 541,-482.94 558.93,-480.8 581,-480.8 603.07,-480.8 621,-482.94 621,-485.57 621,-485.57 621,-528.52 621,-528.52"/>
<path fill="none" stroke="black" d="M621,-528.52C621,-525.89 603.07,-523.75 581,-523.75 558.93,-523.75 541,-525.89 541,-528.52"/>
<text text-anchor="middle" x="581" y="-510.85" font-family="Times,serif" font-size="14.00">Modified</text>
<text text-anchor="middle" x="581" y="-495.85" font-family="Times,serif" font-size="14.00">frames</text>
</g>
<!-- apply_pixelation&#45;&gt;out_modified_frames -->
<g id="edge21" class="edge">
<title>apply_pixelation&#45;&gt;out_modified_frames</title>
<path fill="none" stroke="black" d="M500.92,-507.05C510.93,-507.05 520.94,-507.05 530.95,-507.05"/>
<polygon fill="black" stroke="black" points="530.96,-510.55 540.96,-507.05 530.96,-503.55 530.96,-510.55"/>
</g>
<!-- set_save_params -->
<g id="node9" class="node">
<title>set_save_params</title>
<polygon fill="none" stroke="black" points="464.5,-324.17 365.5,-324.17 365.5,-286.17 464.5,-286.17 464.5,-324.17"/>
<text text-anchor="middle" x="415" y="-308.97" font-family="Times,serif" font-size="14.00">Set save</text>
<text text-anchor="middle" x="415" y="-293.97" font-family="Times,serif" font-size="14.00">parameters</text>
</g>
<!-- show_preview&#45;&gt;set_save_params -->
<g id="edge24" class="edge">
<title>show_preview&#45;&gt;set_save_params</title>
<path fill="none" stroke="black" d="M415,-377.51C415,-365.14 415,-348.51 415,-334.41"/>
<polygon fill="black" stroke="black" points="418.5,-334.24 415,-324.24 411.5,-334.24 418.5,-334.24"/>
</g>
<!-- save_video -->
<g id="node10" class="node">
<title>save_video</title>
<polygon fill="none" stroke="black" points="536.95,-231.73 342.95,-231.73 293.05,-195.73 487.05,-195.73 536.95,-231.73"/>
<text text-anchor="middle" x="415" y="-210.03" font-family="Times,serif" font-size="14.00">Assemble video</text>
</g>
<!-- set_save_params&#45;&gt;save_video -->
<g id="edge25" class="edge">
<title>set_save_params&#45;&gt;save_video</title>
<path fill="none" stroke="black" d="M415,-286.07C415,-273.46 415,-256.41 415,-242.15"/>
<polygon fill="black" stroke="black" points="418.5,-241.9 415,-231.9 411.5,-241.9 418.5,-241.9"/>
</g>
<!-- quit -->
<g id="node11" class="node">
<title>quit</title>
<polygon fill="none" stroke="black" points="442,-124.65 388,-124.65 388,-88.65 442,-88.65 442,-124.65"/>
<text text-anchor="middle" x="415" y="-102.95" font-family="Times,serif" font-size="14.00">Quit</text>
</g>
<!-- save_video&#45;&gt;quit -->
<g id="edge29" class="edge">
<title>save_video&#45;&gt;quit</title>
<path fill="none" stroke="black" d="M415,-195.38C415,-178.93 415,-153.96 415,-134.86"/>
<polygon fill="black" stroke="black" points="418.5,-134.68 415,-124.68 411.5,-134.68 418.5,-134.68"/>
</g>
<!-- out_result_video -->
<g id="node29" class="node">
<title>out_result_video</title>
<path fill="none" stroke="black" d="M617,-235.21C617,-237.85 603.11,-239.98 586,-239.98 568.89,-239.98 555,-237.85 555,-235.21 555,-235.21 555,-192.26 555,-192.26 555,-189.62 568.89,-187.48 586,-187.48 603.11,-187.48 617,-189.62 617,-192.26 617,-192.26 617,-235.21 617,-235.21"/>
<path fill="none" stroke="black" d="M617,-235.21C617,-232.58 603.11,-230.44 586,-230.44 568.89,-230.44 555,-232.58 555,-235.21"/>
<text text-anchor="middle" x="586" y="-217.53" font-family="Times,serif" font-size="14.00">Result</text>
<text text-anchor="middle" x="586" y="-202.53" font-family="Times,serif" font-size="14.00">video</text>
</g>
<!-- save_video&#45;&gt;out_result_video -->
<g id="edge28" class="edge">
<title>save_video&#45;&gt;out_result_video</title>
<path fill="none" stroke="black" d="M512.19,-213.73C523.08,-213.73 533.97,-213.73 544.86,-213.73"/>
<polygon fill="black" stroke="black" points="544.86,-217.23 554.86,-213.73 544.86,-210.23 544.86,-217.23"/>
</g>
<!-- Finish -->
<g id="node33" class="node">
<title>Finish</title>
<ellipse fill="none" stroke="black" cx="415" cy="-18" rx="39.79" ry="18"/>
<text text-anchor="middle" x="415" y="-14.3" font-family="Times,serif" font-size="14.00">Finish</text>
</g>
<!-- quit&#45;&gt;Finish -->
<g id="edge32" class="edge">
<title>quit&#45;&gt;Finish</title>
<path fill="none" stroke="black" d="M415,-88.53C415,-76.54 415,-60.27 415,-46.48"/>
<polygon fill="black" stroke="black" points="418.5,-46.08 415,-36.08 411.5,-46.08 418.5,-46.08"/>
</g>
<!-- in_original_video -->
<g id="node12" class="node">
<title>in_original_video</title>
<path fill="none" stroke="black" d="M280,-965.02C280,-967.66 263.42,-969.8 243,-969.8 222.58,-969.8 206,-967.66 206,-965.02 206,-965.02 206,-922.07 206,-922.07 206,-919.44 222.58,-917.3 243,-917.3 263.42,-917.3 280,-919.44 280,-922.07 280,-922.07 280,-965.02 280,-965.02"/>
<path fill="none" stroke="black" d="M280,-965.02C280,-962.39 263.42,-960.25 243,-960.25 222.58,-960.25 206,-962.39 206,-965.02"/>
<text text-anchor="middle" x="243" y="-947.35" font-family="Times,serif" font-size="14.00">Original</text>
<text text-anchor="middle" x="243" y="-932.35" font-family="Times,serif" font-size="14.00">video</text>
</g>
<!-- in_original_video&#45;&gt;split_video -->
<g id="edge3" class="edge">
<title>in_original_video&#45;&gt;split_video</title>
<path fill="none" stroke="black" d="M280.29,-943.55C290.72,-943.55 301.16,-943.55 311.59,-943.55"/>
<polygon fill="black" stroke="black" points="311.6,-947.05 321.6,-943.55 311.6,-940.05 311.6,-947.05"/>
</g>
<!-- in_start_frame_1 -->
<g id="node15" class="node">
<title>in_start_frame_1</title>
<polygon fill="none" stroke="black" points="323,-780.3 229,-780.3 229,-744.3 329,-744.3 329,-774.3 323,-780.3"/>
<polyline fill="none" stroke="black" points="323,-780.3 323,-774.3 "/>
<polyline fill="none" stroke="black" points="329,-774.3 323,-774.3 "/>
<text text-anchor="middle" x="279" y="-758.6" font-family="Times,serif" font-size="14.00">Start frame</text>
</g>
<!-- in_start_frame_1&#45;&gt;start_position -->
<g id="edge9" class="edge">
<title>in_start_frame_1&#45;&gt;start_position</title>
<path fill="none" stroke="black" d="M329.2,-762.3C331.7,-762.3 334.2,-762.3 336.7,-762.3"/>
<polygon fill="black" stroke="black" points="336.97,-765.8 346.97,-762.3 336.97,-758.8 336.97,-765.8"/>
</g>
<!-- in_start_frame_2 -->
<g id="node16" class="node">
<title>in_start_frame_2</title>
<polygon fill="none" stroke="black" points="346,-699.17 252,-699.17 252,-663.17 352,-663.17 352,-693.17 346,-699.17"/>
<polyline fill="none" stroke="black" points="346,-699.17 346,-693.17 "/>
<polyline fill="none" stroke="black" points="352,-693.17 346,-693.17 "/>
<text text-anchor="middle" x="302" y="-677.47" font-family="Times,serif" font-size="14.00">Start frame</text>
</g>
<!-- in_start_frame_2&#45;&gt;end_frame -->
<g id="edge13" class="edge">
<title>in_start_frame_2&#45;&gt;end_frame</title>
<path fill="none" stroke="black" d="M352.32,-681.17C354.96,-681.17 357.6,-681.17 360.25,-681.17"/>
<polygon fill="black" stroke="black" points="360.44,-684.67 370.44,-681.17 360.44,-677.67 360.44,-684.67"/>
</g>
<!-- in_end_frame -->
<g id="node19" class="node">
<title>in_end_frame</title>
<polygon fill="none" stroke="black" points="323,-618.05 237,-618.05 237,-582.05 329,-582.05 329,-612.05 323,-618.05"/>
<polyline fill="none" stroke="black" points="323,-618.05 323,-612.05 "/>
<polyline fill="none" stroke="black" points="329,-612.05 323,-612.05 "/>
<text text-anchor="middle" x="283" y="-596.35" font-family="Times,serif" font-size="14.00">End frame</text>
</g>
<!-- in_end_frame&#45;&gt;end_position -->
<g id="edge16" class="edge">
<title>in_end_frame&#45;&gt;end_position</title>
<path fill="none" stroke="black" d="M329.15,-600.05C331.65,-600.05 334.15,-600.05 336.65,-600.05"/>
<polygon fill="black" stroke="black" points="336.92,-603.55 346.92,-600.05 336.92,-596.55 336.92,-603.55"/>
</g>
<!-- in_frames_and_positions -->
<g id="node21" class="node">
<title>in_frames_and_positions</title>
<polygon fill="none" stroke="black" points="283.5,-541.05 174.5,-541.05 174.5,-473.05 289.5,-473.05 289.5,-535.05 283.5,-541.05"/>
<polyline fill="none" stroke="black" points="283.5,-541.05 283.5,-535.05 "/>
<polyline fill="none" stroke="black" points="289.5,-535.05 283.5,-535.05 "/>
<text text-anchor="middle" x="232" y="-525.85" font-family="Times,serif" font-size="14.00">Start frame</text>
<text text-anchor="middle" x="232" y="-510.85" font-family="Times,serif" font-size="14.00">Start position</text>
<text text-anchor="middle" x="232" y="-495.85" font-family="Times,serif" font-size="14.00">End frame</text>
<text text-anchor="middle" x="232" y="-480.85" font-family="Times,serif" font-size="14.00">End position</text>
</g>
<!-- in_frames_and_positions&#45;&gt;apply_pixelation -->
<g id="edge20" class="edge">
<title>in_frames_and_positions&#45;&gt;apply_pixelation</title>
<path fill="none" stroke="black" d="M289.54,-507.05C299.37,-507.05 309.19,-507.05 319.01,-507.05"/>
<polygon fill="black" stroke="black" points="319.24,-510.55 329.24,-507.05 319.24,-503.55 319.24,-510.55"/>
</g>
<!-- in_original_frames_1 -->
<g id="node22" class="node">
<title>in_original_frames_1</title>
<path fill="none" stroke="black" d="M348,-864.9C348,-867.53 331.42,-869.67 311,-869.67 290.58,-869.67 274,-867.53 274,-864.9 274,-864.9 274,-821.94 274,-821.94 274,-819.31 290.58,-817.17 311,-817.17 331.42,-817.17 348,-819.31 348,-821.94 348,-821.94 348,-864.9 348,-864.9"/>
<path fill="none" stroke="black" d="M348,-864.9C348,-862.27 331.42,-860.13 311,-860.13 290.58,-860.13 274,-862.27 274,-864.9"/>
<text text-anchor="middle" x="311" y="-847.22" font-family="Times,serif" font-size="14.00">Original</text>
<text text-anchor="middle" x="311" y="-832.22" font-family="Times,serif" font-size="14.00">frames</text>
</g>
<!-- in_original_frames_1&#45;&gt;start_frame -->
<g id="edge6" class="edge">
<title>in_original_frames_1&#45;&gt;start_frame</title>
<path fill="none" stroke="black" d="M348.38,-843.42C350.83,-843.42 353.28,-843.42 355.73,-843.42"/>
<polygon fill="black" stroke="black" points="355.81,-846.92 365.81,-843.42 355.81,-839.92 355.81,-846.92"/>
</g>
<!-- in_original_frames_2 -->
<g id="node23" class="node">
<title>in_original_frames_2</title>
<path fill="none" stroke="black" d="M234,-702.65C234,-705.28 217.42,-707.42 197,-707.42 176.58,-707.42 160,-705.28 160,-702.65 160,-702.65 160,-659.69 160,-659.69 160,-657.06 176.58,-654.92 197,-654.92 217.42,-654.92 234,-657.06 234,-659.69 234,-659.69 234,-702.65 234,-702.65"/>
<path fill="none" stroke="black" d="M234,-702.65C234,-700.02 217.42,-697.88 197,-697.88 176.58,-697.88 160,-700.02 160,-702.65"/>
<text text-anchor="middle" x="197" y="-684.97" font-family="Times,serif" font-size="14.00">Original</text>
<text text-anchor="middle" x="197" y="-669.97" font-family="Times,serif" font-size="14.00">frames</text>
</g>
<!-- in_original_frames_2&#45;&gt;in_start_frame_2 -->
<g id="edge12" class="edge">
<title>in_original_frames_2&#45;&gt;in_start_frame_2</title>
<path fill="none" stroke="black" d="M234.32,-681.17C236.78,-681.17 239.23,-681.17 241.68,-681.17"/>
<polygon fill="black" stroke="black" points="241.77,-684.67 251.77,-681.17 241.77,-677.67 241.77,-684.67"/>
</g>
<!-- in_original_frames_3 -->
<g id="node24" class="node">
<title>in_original_frames_3</title>
<path fill="none" stroke="black" d="M156,-528.52C156,-531.16 139.42,-533.3 119,-533.3 98.58,-533.3 82,-531.16 82,-528.52 82,-528.52 82,-485.57 82,-485.57 82,-482.94 98.58,-480.8 119,-480.8 139.42,-480.8 156,-482.94 156,-485.57 156,-485.57 156,-528.52 156,-528.52"/>
<path fill="none" stroke="black" d="M156,-528.52C156,-525.89 139.42,-523.75 119,-523.75 98.58,-523.75 82,-525.89 82,-528.52"/>
<text text-anchor="middle" x="119" y="-510.85" font-family="Times,serif" font-size="14.00">Original</text>
<text text-anchor="middle" x="119" y="-495.85" font-family="Times,serif" font-size="14.00">frames</text>
</g>
<!-- in_original_frames_3&#45;&gt;in_frames_and_positions -->
<g id="edge19" class="edge">
<title>in_original_frames_3&#45;&gt;in_frames_and_positions</title>
<path fill="none" stroke="black" d="M156.08,-507.05C158.86,-507.05 161.63,-507.05 164.41,-507.05"/>
<polygon fill="black" stroke="black" points="164.47,-510.55 174.47,-507.05 164.47,-503.55 164.47,-510.55"/>
</g>
<!-- in_modified_frames_1 -->
<g id="node26" class="node">
<title>in_modified_frames_1</title>
<path fill="none" stroke="black" d="M338,-426.37C338,-430.02 309.31,-432.98 274,-432.98 238.69,-432.98 210,-430.02 210,-426.37 210,-426.37 210,-366.85 210,-366.85 210,-363.2 238.69,-360.23 274,-360.23 309.31,-360.23 338,-363.2 338,-366.85 338,-366.85 338,-426.37 338,-426.37"/>
<path fill="none" stroke="black" d="M338,-426.37C338,-422.72 309.31,-419.76 274,-419.76 238.69,-419.76 210,-422.72 210,-426.37"/>
<text text-anchor="middle" x="274" y="-407.91" font-family="Times,serif" font-size="14.00">Unchanged and</text>
<text text-anchor="middle" x="274" y="-392.91" font-family="Times,serif" font-size="14.00">modified</text>
<text text-anchor="middle" x="274" y="-377.91" font-family="Times,serif" font-size="14.00">frames</text>
</g>
<!-- in_modified_frames_1&#45;&gt;show_preview -->
<g id="edge23" class="edge">
<title>in_modified_frames_1&#45;&gt;show_preview</title>
<path fill="none" stroke="black" d="M338.17,-396.61C340.93,-396.61 343.7,-396.61 346.46,-396.61"/>
<polygon fill="black" stroke="black" points="346.47,-400.11 356.47,-396.61 346.47,-393.11 346.47,-400.11"/>
</g>
<!-- in_modified_frames_2 -->
<g id="node27" class="node">
<title>in_modified_frames_2</title>
<path fill="none" stroke="black" d="M128,-243.5C128,-247.14 99.31,-250.11 64,-250.11 28.69,-250.11 0,-247.14 0,-243.5 0,-243.5 0,-183.97 0,-183.97 0,-180.32 28.69,-177.36 64,-177.36 99.31,-177.36 128,-180.32 128,-183.97 128,-183.97 128,-243.5 128,-243.5"/>
<path fill="none" stroke="black" d="M128,-243.5C128,-239.85 99.31,-236.88 64,-236.88 28.69,-236.88 0,-239.85 0,-243.5"/>
<text text-anchor="middle" x="64" y="-225.03" font-family="Times,serif" font-size="14.00">Unchanged and</text>
<text text-anchor="middle" x="64" y="-210.03" font-family="Times,serif" font-size="14.00">modified</text>
<text text-anchor="middle" x="64" y="-195.03" font-family="Times,serif" font-size="14.00">frames</text>
</g>
<!-- in_modified_frames_2&#45;&gt;save_video -->
<g id="edge27" class="edge">
<title>in_modified_frames_2&#45;&gt;save_video</title>
<path fill="none" stroke="black" d="M107.56,-249.38C119.35,-257.08 132.59,-264.12 146,-268.17 200.89,-284.73 218.65,-278.74 275,-268.17 308.13,-261.96 343.5,-248.14 370.39,-235.98"/>
<polygon fill="black" stroke="black" points="371.92,-239.13 379.54,-231.77 368.99,-232.77 371.92,-239.13"/>
</g>
<!-- in_original_audio_stream -->
<g id="node28" class="node">
<title>in_original_audio_stream</title>
<path fill="none" stroke="black" stroke-dasharray="1,5" d="M275.5,-243.5C275.5,-247.14 246.59,-250.11 211,-250.11 175.41,-250.11 146.5,-247.14 146.5,-243.5 146.5,-243.5 146.5,-183.97 146.5,-183.97 146.5,-180.32 175.41,-177.36 211,-177.36 246.59,-177.36 275.5,-180.32 275.5,-183.97 275.5,-183.97 275.5,-243.5 275.5,-243.5"/>
<path fill="none" stroke="black" stroke-dasharray="1,5" d="M275.5,-243.5C275.5,-239.85 246.59,-236.88 211,-236.88 175.41,-236.88 146.5,-239.85 146.5,-243.5"/>
<text text-anchor="middle" x="211" y="-225.03" font-family="Times,serif" font-size="14.00">Original video’s</text>
<text text-anchor="middle" x="211" y="-210.03" font-family="Times,serif" font-size="14.00">audio stream(s)</text>
<text text-anchor="middle" x="211" y="-195.03" font-family="Times,serif" font-size="14.00">if avaiable</text>
</g>
<!-- in_original_audio_stream&#45;&gt;save_video -->
<g id="edge26" class="edge">
<title>in_original_audio_stream&#45;&gt;save_video</title>
<path fill="none" stroke="black" stroke-dasharray="1,5" d="M275.55,-213.73C286.21,-213.73 296.88,-213.73 307.54,-213.73"/>
<polygon fill="black" stroke="black" points="307.76,-217.23 317.76,-213.73 307.76,-210.23 307.76,-217.23"/>
</g>
<!-- anytime_load -->
<g id="node30" class="node">
<title>anytime_load</title>
<ellipse fill="none" stroke="black" cx="315" cy="-1052.19" rx="34.8" ry="34.8"/>
<text text-anchor="middle" x="315" y="-1055.99" font-family="Times,serif" font-size="14.00">any</text>
<text text-anchor="middle" x="315" y="-1040.99" font-family="Times,serif" font-size="14.00">time</text>
</g>
<!-- anytime_load&#45;&gt;load_video -->
<g id="edge30" class="edge">
<title>anytime_load&#45;&gt;load_video</title>
<path fill="none" stroke="black" d="M349.77,-1052.19C352.4,-1052.19 355.04,-1052.19 357.68,-1052.19"/>
<polygon fill="black" stroke="black" points="357.86,-1055.69 367.86,-1052.19 357.86,-1048.69 357.86,-1055.69"/>
</g>
<!-- anytime_quit -->
<g id="node31" class="node">
<title>anytime_quit</title>
<ellipse fill="none" stroke="black" cx="335" cy="-106.65" rx="34.8" ry="34.8"/>
<text text-anchor="middle" x="335" y="-110.45" font-family="Times,serif" font-size="14.00">any</text>
<text text-anchor="middle" x="335" y="-95.45" font-family="Times,serif" font-size="14.00">time</text>
</g>
<!-- anytime_quit&#45;&gt;quit -->
<g id="edge31" class="edge">
<title>anytime_quit&#45;&gt;quit</title>
<path fill="none" stroke="black" d="M369.69,-106.65C372.32,-106.65 374.95,-106.65 377.59,-106.65"/>
<polygon fill="black" stroke="black" points="377.74,-110.15 387.74,-106.65 377.74,-103.15 377.74,-110.15"/>
</g>
<!-- Start -->
<g id="node32" class="node">
<title>Start</title>
<ellipse fill="none" stroke="black" cx="415" cy="-1140.84" rx="34.39" ry="18"/>
<text text-anchor="middle" x="415" y="-1137.14" font-family="Times,serif" font-size="14.00">Start</text>
</g>
<!-- Start&#45;&gt;load_video -->
<g id="edge1" class="edge">
<title>Start&#45;&gt;load_video</title>
<path fill="none" stroke="black" d="M415,-1122.72C415,-1110.74 415,-1094.46 415,-1080.68"/>
<polygon fill="black" stroke="black" points="418.5,-1080.28 415,-1070.28 411.5,-1080.28 418.5,-1080.28"/>
</g>
</g>
</svg>
