<?xml version="1.0" encoding="UTF-8" standalone="no"?>
<!DOCTYPE svg PUBLIC "-//W3C//DTD SVG 1.1//EN"
 "http://www.w3.org/Graphics/SVG/1.1/DTD/svg11.dtd">
<!-- Generated by graphviz version 2.43.0 (0)
 -->
<!-- Title: video data workflow brainstorming Pages: 1 -->
<svg width="748pt" height="206pt"
 viewBox="0.00 0.00 747.99 205.74" xmlns="http://www.w3.org/2000/svg" xmlns:xlink="http://www.w3.org/1999/xlink">
<g id="graph0" class="graph" transform="scale(1 1) rotate(0) translate(4 201.74)">
<title>video data workflow brainstorming</title>
<polygon fill="white" stroke="transparent" points="-4,4 -4,-201.74 743.99,-201.74 743.99,4 -4,4"/>
<!-- add_pixelation -->
<g id="node1" class="node">
<title>add_pixelation</title>
<ellipse fill="none" stroke="black" cx="395.99" cy="-98.87" rx="109.68" ry="18"/>
<text text-anchor="middle" x="395.99" y="-95.17" font-family="Times,serif" font-size="14.00">Add pixelation (start)</text>
</g>
<!-- add_stop -->
<g id="node2" class="node">
<title>add_stop</title>
<ellipse fill="none" stroke="black" cx="622.99" cy="-98.87" rx="98.99" ry="26.74"/>
<text text-anchor="middle" x="622.99" y="-102.67" font-family="Times,serif" font-size="14.00">Add stop and</text>
<text text-anchor="middle" x="622.99" y="-87.67" font-family="Times,serif" font-size="14.00">pixelate segment</text>
</g>
<!-- add_pixelation&#45;&gt;add_stop -->
<g id="edge3" class="edge">
<title>add_pixelation&#45;&gt;add_stop</title>
<path fill="none" stroke="black" d="M476.24,-86.53C492.7,-85.38 509.16,-85.09 525.61,-85.64"/>
<polygon fill="black" stroke="black" points="525.71,-89.15 535.86,-86.1 526.03,-82.16 525.71,-89.15"/>
</g>
<!-- add_stop&#45;&gt;add_pixelation -->
<g id="edge5" class="edge">
<title>add_stop&#45;&gt;add_pixelation</title>
<path fill="none" stroke="black" d="M535.86,-111.64C519.4,-112.55 502.95,-112.61 486.49,-111.82"/>
<polygon fill="black" stroke="black" points="486.43,-108.31 476.24,-111.21 486.02,-115.29 486.43,-108.31"/>
</g>
<!-- add_stop&#45;&gt;add_stop -->
<g id="edge4" class="edge">
<title>add_stop&#45;&gt;add_stop</title>
<path fill="none" stroke="black" d="M706.07,-113.57C725.59,-112.36 739.99,-107.46 739.99,-98.87 739.99,-91.82 730.3,-87.26 716.04,-85.18"/>
<polygon fill="black" stroke="black" points="716.37,-81.69 706.07,-84.17 715.67,-88.66 716.37,-81.69"/>
</g>
<!-- Save -->
<g id="node6" class="node">
<title>Save</title>
<ellipse fill="none" stroke="black" cx="207.99" cy="-18" rx="33.29" ry="18"/>
<text text-anchor="middle" x="207.99" y="-14.3" font-family="Times,serif" font-size="14.00">Save</text>
</g>
<!-- add_stop&#45;&gt;Save -->
<g id="edge11" class="edge">
<title>add_stop&#45;&gt;Save</title>
<path fill="none" stroke="black" d="M551.68,-80.11C539.47,-77.26 526.89,-74.45 514.99,-72 420.54,-52.56 308.74,-34.49 249.57,-25.31"/>
<polygon fill="black" stroke="black" points="249.91,-21.82 239.5,-23.76 248.85,-28.74 249.91,-21.82"/>
</g>
<!-- Cut at start -->
<g id="node3" class="node">
<title>Cut at start</title>
<ellipse fill="none" stroke="black" cx="64.99" cy="-98.87" rx="64.99" ry="18"/>
<text text-anchor="middle" x="64.99" y="-95.17" font-family="Times,serif" font-size="14.00">Cut at start</text>
</g>
<!-- Cut at end -->
<g id="node4" class="node">
<title>Cut at end</title>
<ellipse fill="none" stroke="black" cx="207.99" cy="-98.87" rx="59.59" ry="18"/>
<text text-anchor="middle" x="207.99" y="-95.17" font-family="Times,serif" font-size="14.00">Cut at end</text>
</g>
<!-- Cut at start&#45;&gt;Cut at end -->
<g id="edge1" class="edge">
<title>Cut at start&#45;&gt;Cut at end</title>
<path fill="none" stroke="black" d="M130.07,-98.87C132.69,-98.87 135.31,-98.87 137.93,-98.87"/>
<polygon fill="black" stroke="black" points="138.03,-102.37 148.03,-98.87 138.03,-95.37 138.03,-102.37"/>
</g>
<!-- Cut at start&#45;&gt;Save -->
<g id="edge9" class="edge">
<title>Cut at start&#45;&gt;Save</title>
<path fill="none" stroke="black" d="M92.91,-82.48C116.83,-69.28 151.29,-50.27 176.26,-36.5"/>
<polygon fill="black" stroke="black" points="178.26,-39.4 185.33,-31.5 174.88,-33.27 178.26,-39.4"/>
</g>
<!-- Cut at end&#45;&gt;add_pixelation -->
<g id="edge2" class="edge">
<title>Cut at end&#45;&gt;add_pixelation</title>
<path fill="none" stroke="black" d="M267.85,-98.87C270.51,-98.87 273.17,-98.87 275.84,-98.87"/>
<polygon fill="black" stroke="black" points="276.12,-102.37 286.12,-98.87 276.12,-95.37 276.12,-102.37"/>
</g>
<!-- Cut at end&#45;&gt;Save -->
<g id="edge10" class="edge">
<title>Cut at end&#45;&gt;Save</title>
<path fill="none" stroke="black" d="M207.99,-80.76C207.99,-70.73 207.99,-57.84 207.99,-46.42"/>
<polygon fill="black" stroke="black" points="211.49,-46.08 207.99,-36.08 204.49,-46.08 211.49,-46.08"/>
</g>
<!-- Load video -->
<g id="node5" class="node">
<title>Load video</title>
<ellipse fill="none" stroke="black" cx="207.99" cy="-179.74" rx="61.19" ry="18"/>
<text text-anchor="middle" x="207.99" y="-176.04" font-family="Times,serif" font-size="14.00">Load video</text>
</g>
<!-- Load video&#45;&gt;add_pixelation -->
<g id="edge8" class="edge">
<title>Load video&#45;&gt;add_pixelation</title>
<path fill="none" stroke="black" d="M241.6,-164.64C271.31,-152.18 314.96,-133.86 348.28,-119.89"/>
<polygon fill="black" stroke="black" points="349.95,-122.98 357.82,-115.88 347.25,-116.53 349.95,-122.98"/>
</g>
<!-- Load video&#45;&gt;Cut at start -->
<g id="edge6" class="edge">
<title>Load video&#45;&gt;Cut at start</title>
<path fill="none" stroke="black" d="M180.42,-163.53C158.11,-151.23 126.49,-133.79 101.98,-120.27"/>
<polygon fill="black" stroke="black" points="103.42,-117.06 92.97,-115.3 100.04,-123.19 103.42,-117.06"/>
</g>
<!-- Load video&#45;&gt;Cut at end -->
<g id="edge7" class="edge">
<title>Load video&#45;&gt;Cut at end</title>
<path fill="none" stroke="black" d="M207.99,-161.63C207.99,-151.6 207.99,-138.71 207.99,-127.29"/>
<polygon fill="black" stroke="black" points="211.49,-126.95 207.99,-116.95 204.49,-126.95 211.49,-126.95"/>
</g>
</g>
</svg>
