<?xml version="1.0" encoding="UTF-8" standalone="no"?>
<!DOCTYPE svg PUBLIC "-//W3C//DTD SVG 1.1//EN"
 "http://www.w3.org/Graphics/SVG/1.1/DTD/svg11.dtd">
<!-- Generated by graphviz version 2.43.0 (0)
 -->
<!-- Title: video data workflow brainstorming Pages: 1 -->
<svg width="824pt" height="188pt"
 viewBox="0.00 0.00 824.04 188.00" xmlns="http://www.w3.org/2000/svg" xmlns:xlink="http://www.w3.org/1999/xlink">
<g id="graph0" class="graph" transform="scale(1 1) rotate(0) translate(4 184)">
<title>video data workflow brainstorming</title>
<polygon fill="white" stroke="transparent" points="-4,4 -4,-184 820.04,-184 820.04,4 -4,4"/>
<!-- Cut at start -->
<g id="node1" class="node">
<title>Cut at start</title>
<ellipse fill="none" stroke="black" cx="64.99" cy="-90" rx="64.99" ry="18"/>
<text text-anchor="middle" x="64.99" y="-86.3" font-family="Times,serif" font-size="14.00">Cut at start</text>
</g>
<!-- Cut at end -->
<g id="node2" class="node">
<title>Cut at end</title>
<ellipse fill="none" stroke="black" cx="207.99" cy="-90" rx="59.59" ry="18"/>
<text text-anchor="middle" x="207.99" y="-86.3" font-family="Times,serif" font-size="14.00">Cut at end</text>
</g>
<!-- Cut at start&#45;&gt;Cut at end -->
<g id="edge1" class="edge">
<title>Cut at start&#45;&gt;Cut at end</title>
<path fill="none" stroke="black" d="M130.07,-90C132.69,-90 135.31,-90 137.93,-90"/>
<polygon fill="black" stroke="black" points="138.03,-93.5 148.03,-90 138.03,-86.5 138.03,-93.5"/>
</g>
<!-- Save -->
<g id="node7" class="node">
<title>Save</title>
<ellipse fill="none" stroke="black" cx="207.99" cy="-18" rx="33.29" ry="18"/>
<text text-anchor="middle" x="207.99" y="-14.3" font-family="Times,serif" font-size="14.00">Save</text>
</g>
<!-- Cut at start&#45;&gt;Save -->
<g id="edge10" class="edge">
<title>Cut at start&#45;&gt;Save</title>
<path fill="none" stroke="black" d="M95.67,-73.98C119,-62.56 151.05,-46.88 174.94,-35.18"/>
<polygon fill="black" stroke="black" points="176.54,-38.29 183.99,-30.75 173.47,-32 176.54,-38.29"/>
</g>
<!-- Add pixelation (start) -->
<g id="node3" class="node">
<title>Add pixelation (start)</title>
<ellipse fill="none" stroke="black" cx="395.99" cy="-90" rx="109.68" ry="18"/>
<text text-anchor="middle" x="395.99" y="-86.3" font-family="Times,serif" font-size="14.00">Add pixelation (start)</text>
</g>
<!-- Cut at end&#45;&gt;Add pixelation (start) -->
<g id="edge2" class="edge">
<title>Cut at end&#45;&gt;Add pixelation (start)</title>
<path fill="none" stroke="black" d="M267.85,-90C270.51,-90 273.17,-90 275.84,-90"/>
<polygon fill="black" stroke="black" points="276.12,-93.5 286.12,-90 276.12,-86.5 276.12,-93.5"/>
</g>
<!-- Cut at end&#45;&gt;Save -->
<g id="edge11" class="edge">
<title>Cut at end&#45;&gt;Save</title>
<path fill="none" stroke="black" d="M207.99,-71.7C207.99,-63.98 207.99,-54.71 207.99,-46.11"/>
<polygon fill="black" stroke="black" points="211.49,-46.1 207.99,-36.1 204.49,-46.1 211.49,-46.1"/>
</g>
<!-- Add stop -->
<g id="node4" class="node">
<title>Add stop</title>
<ellipse fill="none" stroke="black" cx="575.99" cy="-90" rx="51.99" ry="18"/>
<text text-anchor="middle" x="575.99" y="-86.3" font-family="Times,serif" font-size="14.00">Add stop</text>
</g>
<!-- Add pixelation (start)&#45;&gt;Add stop -->
<g id="edge3" class="edge">
<title>Add pixelation (start)&#45;&gt;Add stop</title>
<path fill="none" stroke="black" d="M506.03,-90C508.53,-90 511.03,-90 513.53,-90"/>
<polygon fill="black" stroke="black" points="513.8,-93.5 523.8,-90 513.8,-86.5 513.8,-93.5"/>
</g>
<!-- Add stop&#45;&gt;Add stop -->
<g id="edge5" class="edge">
<title>Add stop&#45;&gt;Add stop</title>
<path fill="none" stroke="black" d="M612.01,-103.1C629.97,-104.91 645.99,-100.55 645.99,-90 645.99,-81.51 635.62,-77.03 622.21,-76.54"/>
<polygon fill="black" stroke="black" points="621.88,-73.05 612.01,-76.9 622.12,-80.05 621.88,-73.05"/>
</g>
<!-- Pixelate route -->
<g id="node5" class="node">
<title>Pixelate route</title>
<ellipse fill="none" stroke="black" cx="739.99" cy="-90" rx="76.09" ry="18"/>
<text text-anchor="middle" x="739.99" y="-86.3" font-family="Times,serif" font-size="14.00">Pixelate route</text>
</g>
<!-- Add stop&#45;&gt;Pixelate route -->
<g id="edge4" class="edge">
<title>Add stop&#45;&gt;Pixelate route</title>
<path fill="none" stroke="black" d="M628.21,-90C636.59,-90 644.97,-90 653.35,-90"/>
<polygon fill="black" stroke="black" points="653.58,-93.5 663.58,-90 653.58,-86.5 653.58,-93.5"/>
</g>
<!-- Pixelate route&#45;&gt;Add pixelation (start) -->
<g id="edge6" class="edge">
<title>Pixelate route&#45;&gt;Add pixelation (start)</title>
<path fill="none" stroke="black" d="M706.49,-106.27C688.92,-113.9 666.79,-122.15 645.99,-126 592.68,-135.86 577.71,-133.41 523.99,-126 499.99,-122.69 474.15,-116.04 452.02,-109.35"/>
<polygon fill="black" stroke="black" points="453.04,-106 442.45,-106.39 450.97,-112.69 453.04,-106"/>
</g>
<!-- Pixelate route&#45;&gt;Save -->
<g id="edge12" class="edge">
<title>Pixelate route&#45;&gt;Save</title>
<path fill="none" stroke="black" d="M685.24,-77.39C675.2,-75.45 664.8,-73.56 654.99,-72 507.09,-48.48 330.12,-30.47 250.49,-22.9"/>
<polygon fill="black" stroke="black" points="250.65,-19.4 240.37,-21.95 250,-26.37 250.65,-19.4"/>
</g>
<!-- Load video -->
<g id="node6" class="node">
<title>Load video</title>
<ellipse fill="none" stroke="black" cx="207.99" cy="-162" rx="61.19" ry="18"/>
<text text-anchor="middle" x="207.99" y="-158.3" font-family="Times,serif" font-size="14.00">Load video</text>
</g>
<!-- Load video&#45;&gt;Cut at start -->
<g id="edge7" class="edge">
<title>Load video&#45;&gt;Cut at start</title>
<path fill="none" stroke="black" d="M177.67,-146.15C156.48,-135.78 127.98,-121.83 104.95,-110.56"/>
<polygon fill="black" stroke="black" points="106.29,-107.32 95.77,-106.07 103.21,-113.61 106.29,-107.32"/>
</g>
<!-- Load video&#45;&gt;Cut at end -->
<g id="edge8" class="edge">
<title>Load video&#45;&gt;Cut at end</title>
<path fill="none" stroke="black" d="M207.99,-143.7C207.99,-135.98 207.99,-126.71 207.99,-118.11"/>
<polygon fill="black" stroke="black" points="211.49,-118.1 207.99,-108.1 204.49,-118.1 211.49,-118.1"/>
</g>
<!-- Load video&#45;&gt;Add pixelation (start) -->
<g id="edge9" class="edge">
<title>Load video&#45;&gt;Add pixelation (start)</title>
<path fill="none" stroke="black" d="M244.24,-147.5C272.67,-136.92 312.61,-122.05 344.37,-110.22"/>
<polygon fill="black" stroke="black" points="345.8,-113.42 353.95,-106.65 343.36,-106.86 345.8,-113.42"/>
</g>
</g>
</svg>
