<?xml version="1.0" encoding="UTF-8" standalone="no"?>
<!DOCTYPE svg PUBLIC "-//W3C//DTD SVG 1.1//EN"
 "http://www.w3.org/Graphics/SVG/1.1/DTD/svg11.dtd">
<!-- Generated by graphviz version 2.43.0 (0)
 -->
<!-- Title: pixelate&#45;images save detailed workflow Pages: 1 -->
<svg width="408pt" height="371pt"
 viewBox="0.00 0.00 407.65 371.00" xmlns="http://www.w3.org/2000/svg" xmlns:xlink="http://www.w3.org/1999/xlink">
<g id="graph0" class="graph" transform="scale(1 1) rotate(0) translate(4 367)">
<title>pixelate&#45;images save detailed workflow</title>
<polygon fill="white" stroke="transparent" points="-4,4 -4,-367 403.65,-367 403.65,4 -4,4"/>
<!-- check_unapplied_changes -->
<g id="node1" class="node">
<title>check_unapplied_changes</title>
<polygon fill="none" stroke="black" points="184,-290 94,-252 184,-214 274,-252 184,-290"/>
<text text-anchor="middle" x="184" y="-255.8" font-family="Times,serif" font-size="14.00">Unapplied</text>
<text text-anchor="middle" x="184" y="-240.8" font-family="Times,serif" font-size="14.00">changes?</text>
</g>
<!-- ask_to_apply -->
<g id="node2" class="node">
<title>ask_to_apply</title>
<polygon fill="none" stroke="black" points="83,-163 0,-125 83,-87 166,-125 83,-163"/>
<text text-anchor="middle" x="83" y="-128.8" font-family="Times,serif" font-size="14.00">Ask user:</text>
<text text-anchor="middle" x="83" y="-113.8" font-family="Times,serif" font-size="14.00">Apply?</text>
</g>
<!-- check_unapplied_changes&#45;&gt;ask_to_apply -->
<g id="edge2" class="edge">
<title>check_unapplied_changes&#45;&gt;ask_to_apply</title>
<path fill="none" stroke="black" d="M161.58,-223.26C146.77,-204.93 127.23,-180.74 111.34,-161.08"/>
<polygon fill="black" stroke="black" points="114.01,-158.81 105.01,-153.23 108.57,-163.21 114.01,-158.81"/>
<text text-anchor="middle" x="152.5" y="-184.8" font-family="Times,serif" font-size="14.00">yes</text>
</g>
<!-- check_applied_changes -->
<g id="node3" class="node">
<title>check_applied_changes</title>
<polygon fill="none" stroke="black" points="285,-163 202,-125 285,-87 368,-125 285,-163"/>
<text text-anchor="middle" x="285" y="-128.8" font-family="Times,serif" font-size="14.00">Applied</text>
<text text-anchor="middle" x="285" y="-113.8" font-family="Times,serif" font-size="14.00">changes?</text>
</g>
<!-- check_unapplied_changes&#45;&gt;check_applied_changes -->
<g id="edge6" class="edge">
<title>check_unapplied_changes&#45;&gt;check_applied_changes</title>
<path fill="none" stroke="black" d="M206.42,-223.26C221.23,-204.93 240.77,-180.74 256.66,-161.08"/>
<polygon fill="black" stroke="black" points="259.43,-163.21 262.99,-153.23 253.99,-158.81 259.43,-163.21"/>
<text text-anchor="middle" x="249" y="-184.8" font-family="Times,serif" font-size="14.00">no</text>
</g>
<!-- ask_to_apply&#45;&gt;check_applied_changes -->
<g id="edge5" class="edge">
<title>ask_to_apply&#45;&gt;check_applied_changes</title>
<path fill="none" stroke="black" d="M166.04,-125C174.56,-125 183.26,-125 191.89,-125"/>
<polygon fill="black" stroke="black" points="191.96,-128.5 201.96,-125 191.96,-121.5 191.96,-128.5"/>
<text text-anchor="middle" x="184" y="-131.8" font-family="Times,serif" font-size="14.00">no</text>
</g>
<!-- apply_changes -->
<g id="node4" class="node">
<title>apply_changes</title>
<polygon fill="none" stroke="black" points="149.5,-36 16.5,-36 16.5,0 149.5,0 149.5,-36"/>
<text text-anchor="middle" x="83" y="-14.3" font-family="Times,serif" font-size="14.00">Apply Pixelation</text>
</g>
<!-- ask_to_apply&#45;&gt;apply_changes -->
<g id="edge3" class="edge">
<title>ask_to_apply&#45;&gt;apply_changes</title>
<path fill="none" stroke="black" d="M83,-86.98C83,-73.56 83,-58.65 83,-46.22"/>
<polygon fill="black" stroke="black" points="86.5,-46.04 83,-36.04 79.5,-46.04 86.5,-46.04"/>
<text text-anchor="middle" x="95.5" y="-57.8" font-family="Times,serif" font-size="14.00">yes</text>
</g>
<!-- save -->
<g id="node5" class="node">
<title>save</title>
<polygon fill="none" stroke="black" points="285,-36 185,-36 185,0 285,0 285,-36"/>
<text text-anchor="middle" x="235" y="-14.3" font-family="Times,serif" font-size="14.00">Save Image</text>
</g>
<!-- check_applied_changes&#45;&gt;save -->
<g id="edge8" class="edge">
<title>check_applied_changes&#45;&gt;save</title>
<path fill="none" stroke="black" d="M270.4,-93.35C263.19,-78.2 254.57,-60.1 247.64,-45.55"/>
<polygon fill="black" stroke="black" points="250.61,-43.65 243.15,-36.12 244.29,-46.66 250.61,-43.65"/>
<text text-anchor="middle" x="270.5" y="-57.8" font-family="Times,serif" font-size="14.00">yes</text>
</g>
<!-- Finish -->
<g id="node6" class="node">
<title>Finish</title>
<ellipse fill="none" stroke="black" cx="360" cy="-18" rx="39.79" ry="18"/>
<text text-anchor="middle" x="360" y="-14.3" font-family="Times,serif" font-size="14.00">Finish</text>
</g>
<!-- check_applied_changes&#45;&gt;Finish -->
<g id="edge7" class="edge">
<title>check_applied_changes&#45;&gt;Finish</title>
<path fill="none" stroke="black" d="M305.1,-95.86C316.74,-79.56 331.26,-59.24 342.44,-43.58"/>
<polygon fill="black" stroke="black" points="345.31,-45.59 348.27,-35.42 339.61,-41.53 345.31,-45.59"/>
<text text-anchor="middle" x="342" y="-57.8" font-family="Times,serif" font-size="14.00">no</text>
</g>
<!-- apply_changes&#45;&gt;save -->
<g id="edge4" class="edge">
<title>apply_changes&#45;&gt;save</title>
<path fill="none" stroke="black" d="M149.8,-18C158.08,-18 166.36,-18 174.64,-18"/>
<polygon fill="black" stroke="black" points="174.74,-21.5 184.74,-18 174.74,-14.5 174.74,-21.5"/>
</g>
<!-- save&#45;&gt;Finish -->
<g id="edge9" class="edge">
<title>save&#45;&gt;Finish</title>
<path fill="none" stroke="black" d="M285.29,-18C293.59,-18 301.89,-18 310.19,-18"/>
<polygon fill="black" stroke="black" points="310.31,-21.5 320.31,-18 310.31,-14.5 310.31,-21.5"/>
</g>
<!-- Start -->
<g id="node7" class="node">
<title>Start</title>
<ellipse fill="none" stroke="black" cx="184" cy="-345" rx="34.39" ry="18"/>
<text text-anchor="middle" x="184" y="-341.3" font-family="Times,serif" font-size="14.00">Start</text>
</g>
<!-- Start&#45;&gt;check_unapplied_changes -->
<g id="edge1" class="edge">
<title>Start&#45;&gt;check_unapplied_changes</title>
<path fill="none" stroke="black" d="M184,-326.88C184,-319.25 184,-309.83 184,-300.31"/>
<polygon fill="black" stroke="black" points="187.5,-300.02 184,-290.02 180.5,-300.02 187.5,-300.02"/>
</g>
</g>
</svg>
