<?xml version="1.0" encoding="UTF-8" standalone="no"?>
<!DOCTYPE svg PUBLIC "-//W3C//DTD SVG 1.1//EN"
 "http://www.w3.org/Graphics/SVG/1.1/DTD/svg11.dtd">
<!-- Generated by graphviz version 2.43.0 (0)
 -->
<!-- Title: pixelate&#45;images generic workflow Pages: 1 -->
<svg width="344pt" height="332pt"
 viewBox="0.00 0.00 344.15 332.00" xmlns="http://www.w3.org/2000/svg" xmlns:xlink="http://www.w3.org/1999/xlink">
<g id="graph0" class="graph" transform="scale(1 1) rotate(0) translate(4 328)">
<title>pixelate&#45;images generic workflow</title>
<polygon fill="white" stroke="transparent" points="-4,4 -4,-328 340.15,-328 340.15,4 -4,4"/>
<!-- load_image -->
<g id="node1" class="node">
<title>load_image</title>
<polygon fill="none" stroke="black" points="251.5,-252 151.5,-252 151.5,-216 251.5,-216 251.5,-252"/>
<text text-anchor="middle" x="201.5" y="-230.3" font-family="Times,serif" font-size="14.00">Load Image</text>
</g>
<!-- change_selection -->
<g id="node2" class="node">
<title>change_selection</title>
<polygon fill="none" stroke="black" points="289,-180 114,-180 114,-144 289,-144 289,-180"/>
<text text-anchor="middle" x="201.5" y="-158.3" font-family="Times,serif" font-size="14.00">Main User Interaction</text>
</g>
<!-- load_image&#45;&gt;change_selection -->
<g id="edge2" class="edge">
<title>load_image&#45;&gt;change_selection</title>
<path fill="none" stroke="black" d="M195.58,-215.7C194.79,-207.98 194.56,-198.71 194.9,-190.11"/>
<polygon fill="black" stroke="black" points="198.4,-190.32 195.6,-180.1 191.42,-189.84 198.4,-190.32"/>
</g>
<!-- change_selection&#45;&gt;load_image -->
<g id="edge3" class="edge">
<title>change_selection&#45;&gt;load_image</title>
<path fill="none" stroke="black" d="M207.4,-180.1C208.2,-187.79 208.44,-197.05 208.1,-205.67"/>
<polygon fill="black" stroke="black" points="204.61,-205.48 207.42,-215.7 211.59,-205.96 204.61,-205.48"/>
</g>
<!-- apply_change -->
<g id="node3" class="node">
<title>apply_change</title>
<polygon fill="none" stroke="black" points="133,-108 0,-108 0,-72 133,-72 133,-108"/>
<text text-anchor="middle" x="66.5" y="-86.3" font-family="Times,serif" font-size="14.00">Apply Pixelation</text>
</g>
<!-- change_selection&#45;&gt;apply_change -->
<g id="edge4" class="edge">
<title>change_selection&#45;&gt;apply_change</title>
<path fill="none" stroke="black" d="M162.58,-143.88C143.71,-134.6 121.25,-123.03 102.75,-113.08"/>
<polygon fill="black" stroke="black" points="104.21,-109.88 93.75,-108.19 100.87,-116.04 104.21,-109.88"/>
</g>
<!-- save_image -->
<g id="node4" class="node">
<title>save_image</title>
<polygon fill="none" stroke="black" points="251.5,-108 151.5,-108 151.5,-72 251.5,-72 251.5,-108"/>
<text text-anchor="middle" x="201.5" y="-86.3" font-family="Times,serif" font-size="14.00">Save Image</text>
</g>
<!-- change_selection&#45;&gt;save_image -->
<g id="edge5" class="edge">
<title>change_selection&#45;&gt;save_image</title>
<path fill="none" stroke="black" d="M195.58,-143.7C194.79,-135.98 194.56,-126.71 194.9,-118.11"/>
<polygon fill="black" stroke="black" points="198.4,-118.32 195.6,-108.1 191.42,-117.84 198.4,-118.32"/>
</g>
<!-- quit -->
<g id="node5" class="node">
<title>quit</title>
<polygon fill="none" stroke="black" points="323.5,-108 269.5,-108 269.5,-72 323.5,-72 323.5,-108"/>
<text text-anchor="middle" x="296.5" y="-86.3" font-family="Times,serif" font-size="14.00">Quit</text>
</g>
<!-- change_selection&#45;&gt;quit -->
<g id="edge6" class="edge">
<title>change_selection&#45;&gt;quit</title>
<path fill="none" stroke="black" d="M224.98,-143.7C237.06,-134.8 251.95,-123.82 265.02,-114.2"/>
<polygon fill="black" stroke="black" points="267.31,-116.85 273.29,-108.1 263.16,-111.22 267.31,-116.85"/>
</g>
<!-- apply_change&#45;&gt;change_selection -->
<g id="edge7" class="edge">
<title>apply_change&#45;&gt;change_selection</title>
<path fill="none" stroke="black" d="M105.56,-108.19C124.44,-117.48 146.9,-129.05 165.38,-139"/>
<polygon fill="black" stroke="black" points="163.91,-142.18 174.37,-143.88 167.25,-136.03 163.91,-142.18"/>
</g>
<!-- save_image&#45;&gt;change_selection -->
<g id="edge8" class="edge">
<title>save_image&#45;&gt;change_selection</title>
<path fill="none" stroke="black" d="M207.4,-108.1C208.2,-115.79 208.44,-125.05 208.1,-133.67"/>
<polygon fill="black" stroke="black" points="204.61,-133.48 207.42,-143.7 211.59,-133.96 204.61,-133.48"/>
</g>
<!-- Finish -->
<g id="node7" class="node">
<title>Finish</title>
<ellipse fill="none" stroke="black" cx="296.5" cy="-18" rx="39.79" ry="18"/>
<text text-anchor="middle" x="296.5" y="-14.3" font-family="Times,serif" font-size="14.00">Finish</text>
</g>
<!-- quit&#45;&gt;Finish -->
<g id="edge9" class="edge">
<title>quit&#45;&gt;Finish</title>
<path fill="none" stroke="black" d="M296.5,-71.7C296.5,-63.98 296.5,-54.71 296.5,-46.11"/>
<polygon fill="black" stroke="black" points="300,-46.1 296.5,-36.1 293,-46.1 300,-46.1"/>
</g>
<!-- Start -->
<g id="node6" class="node">
<title>Start</title>
<ellipse fill="none" stroke="black" cx="201.5" cy="-306" rx="34.39" ry="18"/>
<text text-anchor="middle" x="201.5" y="-302.3" font-family="Times,serif" font-size="14.00">Start</text>
</g>
<!-- Start&#45;&gt;load_image -->
<g id="edge1" class="edge">
<title>Start&#45;&gt;load_image</title>
<path fill="none" stroke="black" d="M201.5,-287.7C201.5,-279.98 201.5,-270.71 201.5,-262.11"/>
<polygon fill="black" stroke="black" points="205,-262.1 201.5,-252.1 198,-262.1 205,-262.1"/>
</g>
</g>
</svg>
